<?xml version="1.0" encoding="utf-8"?>
<!-- Generator: Adobe Illustrator 22.0.0, SVG Export Plug-In . SVG Version: 6.00 Build 0)  -->
<svg version="1.1" id="Layer_1" xmlns="http://www.w3.org/2000/svg" xmlns:xlink="http://www.w3.org/1999/xlink" x="0px" y="0px"
	 viewBox="0 0 85 85" xml:space="preserve">
<style type="text/css">
	.st0{fill-rule:evenodd;clip-rule:evenodd;fill:url(#SVGID_1_);}
	.st1{fill-rule:evenodd;clip-rule:evenodd;fill:#141422;}
</style>
<g>
	<linearGradient id="SVGID_1_" gradientUnits="userSpaceOnUse" x1="38.1898" y1="12.5434" x2="64.1227" y2="69.6728">
		<stop  offset="0" style="stop-color:#6254A4"/>
		<stop  offset="1" style="stop-color:#E81E8B"/>
	</linearGradient>
	<path class="st0" d="M34.1,12h9.2l25.8,60.1h-9.2L34.1,12z"/>
	<path class="st1" d="M78.3,66.3H58.6l2.5,5.8h-2.9L32.2,12h2.9l2.5,5.8h40.7V66.3z M75.6,20.5H38.8l16,36.9l0.3,0.7h0l2.4,5.5h18.2
		V20.5z M59.4,58.1h-2.9V44.6h3.4l3.5,8l3.4-8h3.3l0,13.5h-2.9l0-8.1L64,57h-1.4l-3.2-6.9V58.1z M63.2,30.8c0.5,0.2,1.2,0.4,2.2,0.7
		c1,0.2,1.9,0.5,2.5,0.7c0.7,0.2,1.2,0.6,1.7,1.2c0.5,0.5,0.7,1.2,0.7,2.1c0,0.8-0.2,1.5-0.6,2.1c-0.4,0.6-1.1,1.1-1.9,1.5
		c-0.9,0.4-1.9,0.6-3.1,0.6c-1.1,0-2.1-0.1-3.1-0.4c-1-0.3-1.8-0.7-2.4-1.1l1.1-2.3c0.6,0.4,1.3,0.8,2.1,1c0.8,0.3,1.6,0.4,2.4,0.4
		c0.9,0,1.5-0.1,2-0.4c0.4-0.3,0.6-0.6,0.6-1c0-0.3-0.1-0.6-0.4-0.8c-0.3-0.2-0.6-0.4-1-0.5c-0.4-0.1-0.9-0.3-1.6-0.4
		c-1-0.2-1.9-0.5-2.5-0.7c-0.7-0.2-1.2-0.6-1.7-1.2c-0.5-0.5-0.7-1.3-0.7-2.2c0-0.8,0.2-1.5,0.6-2.1c0.4-0.6,1.1-1.1,1.9-1.5
		c0.9-0.4,1.9-0.6,3.1-0.6c0.9,0,1.7,0.1,2.5,0.3c0.8,0.2,1.5,0.5,2.2,0.9l-1,2.4c-1.2-0.7-2.5-1.1-3.7-1.1c-0.9,0-1.5,0.1-1.9,0.4
		c-0.4,0.3-0.6,0.7-0.6,1.1C62.5,30.2,62.7,30.6,63.2,30.8z M53.5,39.4h-3.1V28.5h-4.3v-2.5h11.7v2.5h-4.3V39.4z M39,47.1h-7.1V50
		h6.3v2.4h-6.3v3.1h7.3v2.5H28.8V44.6H39V47.1z M27.8,26.8c1.1,0.6,2,1.3,2.6,2.4c0.6,1,0.9,2.2,0.9,3.5c0,1.3-0.3,2.5-0.9,3.5
		c-0.6,1-1.5,1.8-2.6,2.4c-1.1,0.6-2.4,0.8-3.9,0.8h-8.4V25.9h8.4C25.4,25.9,26.7,26.2,27.8,26.8z M18.6,28.5v8.4h5.2
		c1.3,0,2.4-0.4,3.2-1.1c0.8-0.8,1.2-1.8,1.2-3.1c0-1.3-0.4-2.3-1.2-3.1c-0.8-0.8-1.9-1.1-3.2-1.1H18.6z M19.7,58.1V47.1h-4.3v-2.5
		h11.7v2.5h-4.3v10.9H19.7z M39.6,36.5h-3.5l-1.2,2.9h-3.2L36.4,29l1.5,3.4l-0.7,1.7h1.5L39.6,36.5z M47.8,55.2h-3.4l-1.2,2.9H40
		l4.6-10.3l1.5,3.4l-0.7,1.6h1.4L47.8,55.2z M10.2,20.5v43.1h41.3l1.2,2.7H7.5V17.8h24l1.2,2.7H10.2z"/>
</g>
</svg>
