<svg id="Ebene_1" data-name="Ebene 1"
    xmlns="http://www.w3.org/2000/svg" viewBox="0 0 196.06 180.63">
    <defs>
        <style>.cls-1{fill:#1d1d1b;}</style>
    </defs>
    <path class="cls-1" d="M122.68,111.64a9.2,9.2,0,0,0,.18-18.39,9,9,0,0,0-9.19,9A9.15,9.15,0,0,0,122.68,111.64Z"/>
    <path class="cls-1" d="M100.44,75.63a4.36,4.36,0,1,0-.1,8.71,4.36,4.36,0,0,0,.1-8.71Z"/>
    <path class="cls-1" d="M116.56,88.27a4,4,0,0,1,3.93-4.7c2.79-.15,4.38-1.64,4.55-4.47.33-5.21,1.67-29,2.13-35.65.16-2.33-1.08-5.13-3.29-6.06a12,12,0,0,0-4.65-.8c-2.35,0-4.29-1.26-4.53-3.39-.45-3.85-1.92-5.07-5.76-5.21-4.17-.14-23.48-1.58-29.23-2a6.68,6.68,0,0,0-6.5,7.55c.46,3.12-.79,4.74-3.9,5a4.65,4.65,0,0,0-4.47,5c0,.52-1.78,41.79-2,45C62.55,92.36,65.12,96,69,96.15c2.68.12,4,1.4,4.16,4.09a6.78,6.78,0,0,0,7.46,6.33c5.81-.78,11.64-1.5,17.49-2,3.53-.29,5.88-1.47,6-5.21a3.86,3.86,0,0,1,4.54-3.54C113.82,96.55,117.19,93.32,116.56,88.27Zm-5.35-5.11a6.4,6.4,0,0,0-7.48,7.24c.44,3.16-1.3,5.28-4.52,5.09-4.47-.28-17.52-1.68-19.6-1.95-2.41-.3-3.57-1.59-3.69-4-.69-13.3-2.16-44.67-2.1-47.05.05-2,2.09-3.53,4.13-3.62,4.57-.2,26.45-1.41,32.4-1.76a3.78,3.78,0,0,1,4,4c0,2.33,1.24,27.2,1.83,37.52C116.38,81.78,114.33,83.64,111.21,83.16Z"/>
    <path class="cls-1" d="M64,129.18c-5.91,0-10,4.44-10,10.8s4.13,10.79,10,10.79S74,146.23,74,140,69.78,129.18,64,129.18Zm0,19.29c-4.4,0-7.47-3.5-7.47-8.49s3.07-8.5,7.47-8.5,7.48,3.57,7.48,8.5S68.29,148.47,64,148.47Z"/>
    <path class="cls-1" d="M40.68,129.18c-5.82,0-10,4.54-10,10.8s4.23,10.79,10.05,10.79,10-4.54,10-10.79S46.5,129.18,40.68,129.18Zm0,19.29c-4.41,0-7.48-3.5-7.48-8.49s3.07-8.5,7.48-8.5,7.47,3.57,7.47,8.5S45,148.47,40.68,148.47Z"/>
    <polygon class="cls-1" points="40.48 153.82 50.04 156.52 50.67 154.23 41.12 151.63 40.48 153.82"/>
    <rect class="cls-1" x="139.86" y="129.51" width="2.48" height="20.92"/>
    <polygon class="cls-1" points="124.74 145.55 117.63 129.51 114.63 129.51 114.63 150.44 116.98 150.44 116.98 133.73 123.43 147.98 123.48 148.09 126.03 148.09 132.44 133.8 132.44 150.44 134.79 150.44 134.79 129.51 131.82 129.51 124.74 145.55"/>
    <path class="cls-1" d="M162.93,144l0,.12a6.25,6.25,0,0,1-6.28,4.36c-4.3,0-7.31-3.45-7.31-8.4s3-8.62,7.34-8.62a5.78,5.78,0,0,1,5.92,4.52l0,.13h2.51l0-.21c-.77-4.14-4-6.71-8.48-6.71-5.71,0-9.69,4.48-9.69,10.89s4,10.67,9.72,10.67c4.42,0,7.94-2.63,8.77-6.54l0-.21Z"/>
    <path class="cls-1" d="M84.4,131.36a4,4,0,0,1,4.25,3.73l0,.16h2.38v-.19c-.19-3.52-2.87-5.89-6.67-5.89s-6.55,2.37-6.55,5.76c0,3.85,3.46,5,5.32,5.59l1.06.33c2.19.69,4.33,1.6,4.33,4.25,0,3.14-3,3.48-4.22,3.48-2.72,0-4.35-1.38-4.72-4l0-.16H77.19v.2c.33,3.9,2.92,6.15,7.11,6.15S91,148.57,91,145c0-4.38-3.93-5.64-5.62-6.19l-1-.29c-1.84-.59-4.13-1.33-4.13-3.69C80.24,132.8,82,131.36,84.4,131.36Z"/>
    <path class="cls-1" d="M102.63,131.36a4,4,0,0,1,4.24,3.73l0,.16h2.38v-.19c-.19-3.52-2.87-5.89-6.66-5.89s-6.55,2.37-6.55,5.76c0,3.85,3.45,5,5.31,5.59l1.06.33c2.2.69,4.33,1.6,4.33,4.25,0,3.14-2.94,3.48-4.21,3.48-2.72,0-4.35-1.38-4.72-4l0-.16H95.41l0,.2c.33,3.9,2.92,6.15,7.11,6.15s6.66-2.2,6.66-5.73c0-4.38-3.93-5.64-5.61-6.19l-1-.29c-1.83-.59-4.12-1.33-4.12-3.69C98.47,132.8,100.18,131.36,102.63,131.36Z"/>
</svg>
