                    <svg xmlns="http://www.w3.org/2000/svg" xmlns:xlink="http://www.w3.org/1999/xlink" viewBox="0 0 339 74" class="logo-svg">
                        <defs>
                            <linearGradient id="gradient" x1="465" y1="504" x2="534" y2="504" gradientTransform="translate(-385 85) rotate(-28)" gradientUnits="userSpaceOnUse">
                                <stop offset="0.04" stop-color="#5f2385"></stop>
                                <stop offset="0.97" stop-color="#9452ba"></stop>
                            </linearGradient>
                            <linearGradient id="gradient2" x1="517" y1="536" x2="517" y2="470" gradientTransform="translate(-385 85) rotate(-28)" gradientUnits="userSpaceOnUse">
                                <stop offset="0.04" stop-color="#5f2385"></stop>
                                <stop offset="1" stop-color="#fff"></stop>
                            </linearGradient>
                            <linearGradient id="gradient3" x1="482" y1="536" x2="482" y2="470" xlink:href="#gradient2"></linearGradient>
                            <linearGradient id="gradient4" x1="482" y1="481" x2="482" y2="533" gradientTransform="translate(-385 85) rotate(-28)" gradientUnits="userSpaceOnUse">
                                <stop offset="0.23" stop-color="#4f1374"></stop>
                                <stop offset="0.84" stop-color="#5f2385"></stop>
                            </linearGradient>
                            <linearGradient id="gradient5" x1="517" y1="481" x2="517" y2="533" xlink:href="#gradient4"></linearGradient>
                        </defs>
                        <path class="letter" d="M363.73,288.8q0-4.68-2.38-6.5t-6.9-1.82a29.27,29.27,0,0,0-5.19.44,39.38,39.38,0,0,0-4.72,1.15A12.35,12.35,0,0,1,343,275.8a36.47,36.47,0,0,1,5.95-1.35,43.34,43.34,0,0,1,6.26-.48q7.93,0,12.05,3.61t4.12,11.54v25.45q-2.78.64-6.74,1.31a48.17,48.17,0,0,1-8.09.67,31.62,31.62,0,0,1-7-.71,14.32,14.32,0,0,1-5.31-2.3,10.66,10.66,0,0,1-3.37-4,13.55,13.55,0,0,1-1.19-5.95,12.12,12.12,0,0,1,5.15-10.27,16.81,16.81,0,0,1,5.47-2.54,24.87,24.87,0,0,1,6.5-.83q2.54,0,4.16.12t2.73,0.28V288.8Zm0,7.69q-1.19-.16-3-0.32t-3.09-.16q-4.92,0-7.49,1.82a6.34,6.34,0,0,0-2.58,5.55,6.82,6.82,0,0,0,.87,3.73,6,6,0,0,0,2.18,2.06,7.58,7.58,0,0,0,2.89.87q1.59,0.16,3,.16a36.68,36.68,0,0,0,3.77-.2,22.5,22.5,0,0,0,3.45-.59V296.49Z" transform="translate(-254 -250)"></path>
                        <path class="letter" d="M382.92,257.48a18.67,18.67,0,0,1,1.94-.24c0.71-.05,1.36-0.08,1.94-0.08s1.24,0,2,.08a18.65,18.65,0,0,1,2,.24V315.6a18.62,18.62,0,0,1-2,.24q-1.11.08-2,.08t-1.94-.08a18.65,18.65,0,0,1-1.94-.24V257.48Zm8,37,14.92-19.58q1-.16,2.06-0.24t2.14-.08q1.19,0,2.26.08t2.18,0.24l-14.92,19,17.14,21.64q-1.11.16-2.14,0.24t-2.14.08q-1.11,0-2.22-.08T408,315.6Z" transform="translate(-254 -250)"></path>
                        <path class="letter" d="M428.27,297.2q0.16,6.66,3.45,9.75t9.71,3.09a29.13,29.13,0,0,0,10.7-2,11.89,11.89,0,0,1,1,2.89,18.85,18.85,0,0,1,.48,3.37,26.52,26.52,0,0,1-5.75,1.67,40,40,0,0,1-6.94.55,26.2,26.2,0,0,1-9.51-1.55,16.72,16.72,0,0,1-10.31-11,28.46,28.46,0,0,1-1.19-8.44,29.9,29.9,0,0,1,1.15-8.44,19,19,0,0,1,3.53-6.82,17,17,0,0,1,6-4.6,19.76,19.76,0,0,1,8.52-1.71,17.81,17.81,0,0,1,7.37,1.43,15,15,0,0,1,5.31,3.92,17,17,0,0,1,3.25,5.95,24.35,24.35,0,0,1,1.11,7.49q0,1.11-.08,2.34t-0.16,2.1H428.27Zm20.14-5.87a15,15,0,0,0-.59-4.24,10.8,10.8,0,0,0-1.74-3.53,8.51,8.51,0,0,0-2.93-2.42,9.22,9.22,0,0,0-4.24-.91q-4.84,0-7.41,2.93a14.36,14.36,0,0,0-3.13,8.17h20.06Z" transform="translate(-254 -250)"></path>
                        <path class="letter" d="M466.48,274.92q0.87-.16,1.7-0.24c0.56-.05,1.12-0.08,1.71-0.08a15.6,15.6,0,0,1,1.63.08q0.75,0.08,1.62.24,0.24,1.19.48,3.21a29.87,29.87,0,0,1,.24,3.37,16.26,16.26,0,0,1,2-2.7,15.57,15.57,0,0,1,2.81-2.42,14.52,14.52,0,0,1,8.17-2.42q7,0,10.31,4t3.33,11.85V315.6a18.66,18.66,0,0,1-2,.24q-1.11.08-2,.08t-1.94-.08a18.64,18.64,0,0,1-1.94-.24V292q0-5.63-1.75-8.29a6.16,6.16,0,0,0-5.55-2.66,11.19,11.19,0,0,0-4.2.79,9.33,9.33,0,0,0-3.49,2.46,12.3,12.3,0,0,0-2.42,4.32,19.71,19.71,0,0,0-.91,6.38V315.6a18.64,18.64,0,0,1-1.94.24q-1.07.08-1.94,0.08t-2-.08a18.57,18.57,0,0,1-2-.24V274.92Z" transform="translate(-254 -250)"></path>
                        <path class="letter" d="M518.17,297.2q0.16,6.66,3.45,9.75t9.71,3.09a29.14,29.14,0,0,0,10.7-2,12,12,0,0,1,1,2.89,19,19,0,0,1,.47,3.37A26.52,26.52,0,0,1,537.8,316a40,40,0,0,1-6.94.55,26.19,26.19,0,0,1-9.51-1.55A16.72,16.72,0,0,1,511,304a28.47,28.47,0,0,1-1.19-8.44,29.94,29.94,0,0,1,1.15-8.44,19,19,0,0,1,3.53-6.82,17,17,0,0,1,6-4.6A19.77,19.77,0,0,1,529,274a17.81,17.81,0,0,1,7.37,1.43,15,15,0,0,1,5.31,3.92,17,17,0,0,1,3.25,5.95,24.32,24.32,0,0,1,1.11,7.49q0,1.11-.08,2.34t-0.16,2.1H518.17Zm20.14-5.87a15,15,0,0,0-.59-4.24,10.82,10.82,0,0,0-1.74-3.53,8.51,8.51,0,0,0-2.93-2.42,9.21,9.21,0,0,0-4.24-.91q-4.84,0-7.41,2.93a14.36,14.36,0,0,0-3.13,8.17h20.06Z" transform="translate(-254 -250)"></path>
                        <path class="letter" d="M572.88,316.55a19.91,19.91,0,0,1-8.32-1.62,16.55,16.55,0,0,1-5.95-4.48,18.61,18.61,0,0,1-3.53-6.74,31.27,31.27,0,0,1,0-16.81,18.63,18.63,0,0,1,3.53-6.74,17,17,0,0,1,5.95-4.52,21.64,21.64,0,0,1,16.65,0,16.94,16.94,0,0,1,5.95,4.52,18.66,18.66,0,0,1,3.53,6.74,31.27,31.27,0,0,1,0,16.81,18.65,18.65,0,0,1-3.53,6.74,16.53,16.53,0,0,1-5.95,4.48A19.92,19.92,0,0,1,572.88,316.55Zm0-6.26q5.47,0,8.09-4t2.62-11q0-7.05-2.62-11t-8.09-3.92q-5.47,0-8,3.92t-2.58,11q0,7.06,2.58,11T572.88,310.28Z" transform="translate(-254 -250)"></path>
                        <path class="cls-1" fill="url(#gradient)" d="M309.28,321.89c0.27,0.88.51,1.49,0.58,1.69h0c-1.34-19.17,9.75-26.76,13.65-39.33a4.37,4.37,0,0,1,.13-0.62c0.08-.28.15-0.57,0.2-0.86,0.64-3.49-.67-7.63-3.25-12l0-.07c-0.21-.36-0.44-0.72-0.67-1.09h0c-0.43-.66-0.88-1.33-1.36-2l-0.15-.21-0.41-.55-0.42-.56-0.43-.55-0.45-.57-0.32-.4a96.15,96.15,0,0,0-15.19-14.56h0a94.09,94.09,0,0,1-.49,20.13,76,76,0,0,1-7.48,22.08,76,76,0,0,1-22.52-6,92.68,92.68,0,0,1-17-10.78c0,0.6.1,1.19,0.15,1.79,0,0.18,0,.35.05,0.53,0,0.43.08,0.85,0.13,1.28,0,0.2,0,.39.07,0.59,0,0.43.1,0.86,0.15,1.28,0,0.17,0,.35.06,0.52,0.07,0.54.14,1.08,0.22,1.61a1.31,1.31,0,0,0,0,.16c0.09,0.62.19,1.24,0.29,1.85,0,0,0,.09,0,0.14,0.09,0.55.19,1.1,0.29,1.65l0.06,0.33c0.09,0.5.19,1,.29,1.49,0,0.09,0,.19.06,0.29,0.12,0.57.24,1.14,0.37,1.7h0c0.42,1.81.88,3.55,1.39,5.23a0.43,0.43,0,0,1,0,.06,50.57,50.57,0,0,0,3,7.67l0.51,1,0,0h0c0.15,0.29.31,0.57,0.47,0.85h0l0,0c0.17,0.3.35,0.59,0.53,0.87h0l0.08,0.11h0c0.23,0.36.48,0.71,0.71,1l0.13,0.16,0,0.06c0.28,0.38.56,0.74,0.86,1.08h0c0.2,0.24.41,0.47,0.62,0.69l0.27,0.27,0.4,0.39,0.31,0.27,0.39,0.33,0.32,0.24,0.41,0.3,0.32,0.21,0.44,0.27,0.3,0.17,0.51,0.25,0.25,0.12a7.57,7.57,0,0,0,.78.29l0.47,0.18c12.63,3.79,25.22-1.13,40.42,10.53" transform="translate(-254 -250)"></path>
                        <g class="cls-2">
                            <path class="cls-3" fill="url(#gradient2)" d="M300.68,270.35a76,76,0,0,1-7.48,22.08c14.25,1.66,28.07-.51,30.45-8.81,2.6-9.06-9.17-23-22.48-33.4A92.76,92.76,0,0,1,300.68,270.35Z" transform="translate(-254 -250)"></path>
                            <path class="cls-4" fill="url(#gradient3)" d="M270.68,286.41a92.68,92.68,0,0,1-17-10.78C254.9,292.47,260,310,269,312.87c8.22,2.63,17.7-7.67,24.23-20.44A76,76,0,0,1,270.68,286.41Z" transform="translate(-254 -250)"></path>
                        </g>
                        <g class="cls-5">
                            <path class="cls-6" fill="url(#gradient4)" d="M282,302.37a51.23,51.23,0,0,1-28.38-26.74h0c0.77,10.32,3,20.89,6.65,28.2,0.16,0.31.32,0.63,0.49,0.93l0,0.08q0.24,0.44.48,0.85l0.07,0.11q0.24,0.41.48,0.79l0.08,0.11,0.5,0.76,0.34,0.46,0.08,0.11,0.24,0.31c0.19,0.25.39,0.49,0.58,0.72a11.87,11.87,0,0,0,5.31,3.8l0.47,0.18c12.63,3.79,25.22-1.13,40.42,10.53C308.7,322,297.9,308.27,282,302.37Z" transform="translate(-254 -250)"></path>
                            <path class="cls-7" fill="url(#gradient5)" d="M323.65,283.62c2.6-9.06-9.18-23-22.48-33.4h0a51.39,51.39,0,0,1,6.44,38.45c-4,16.8,1.8,33.63,2.25,34.9h0c-1.34-19.17,9.75-26.76,13.65-39.33A4.37,4.37,0,0,1,323.65,283.62Z" transform="translate(-254 -250)"></path>
                        </g>
                    </svg>