<?xml version="1.0" encoding="UTF-8" standalone="no"?><!DOCTYPE svg PUBLIC "-//W3C//DTD SVG 1.1//EN" "http://www.w3.org/Graphics/SVG/1.1/DTD/svg11.dtd"><svg width="100%" height="100%" viewBox="0 0 300 300" version="1.1" xmlns="http://www.w3.org/2000/svg" xmlns:xlink="http://www.w3.org/1999/xlink" xml:space="preserve" xmlns:serif="http://www.serif.com/" style="fill-rule:evenodd;clip-rule:evenodd;stroke-linejoin:round;stroke-miterlimit:1.41421;"><rect id="sfcloud-mini-white" x="0" y="0" width="300" height="300" style="fill:none;"/><clipPath id="_clip1"><rect x="0" y="0" width="300" height="300"/></clipPath><g clip-path="url(#_clip1)"><g id="sfcloud-mini-white1" serif:id="sfcloud-mini-white"><path d="M300,30c0,-16.557 -13.443,-30 -30,-30l-240,0c-16.557,0 -30,13.443 -30,30l0,240c0,16.557 13.443,30 30,30l240,0c16.557,0 30,-13.443 30,-30l0,-240Z" style="fill:#fff;"/><path d="M86.944,207.658c-4.144,-1.823 -8.537,-2.486 -13.013,-2.486c-17.654,0 -30.584,11.852 -30.584,29.672c0,18.401 12.184,30.17 30.501,30.17c3.398,0 8.786,-0.248 13.179,-2.072c0,0 -0.108,-1.741 -0.223,-3.603c-0.06,-0.972 -0.559,-1.863 -1.355,-2.423c-0.796,-0.56 -1.804,-0.728 -2.738,-0.456c-2.775,0.802 -6.077,1.261 -8.78,1.261c-12.018,0 -21.799,-9.035 -21.799,-22.628c0,-13.013 8.869,-22.627 22.213,-22.627c2.771,0 5.47,0.462 8.027,1.388c0.939,0.341 1.982,0.225 2.823,-0.314c0.841,-0.539 1.382,-1.439 1.464,-2.434c0.149,-1.802 0.285,-3.448 0.285,-3.448Zm119.896,14.091l0,39.067c0,0.85 -0.338,1.665 -0.939,2.265c-0.6,0.601 -1.415,0.939 -2.265,0.939c-2.054,0 -4.339,0 -4.339,0l0,-6.714l-0.165,0c-2.321,4.807 -7.957,7.708 -13.842,7.708c-10.941,0 -15.831,-6.796 -15.831,-18.151l0,-25.114c0,0 2.439,0 4.587,0c0.85,0 1.665,0.337 2.266,0.938c0.601,0.601 0.938,1.416 0.938,2.266c0,6.077 0,18.677 0,18.677c0,9.863 2.155,14.671 8.952,15.085c8.868,0 12.847,-7.128 12.847,-17.406c0,0 0,-10.808 0,-16.356c0,-0.85 0.337,-1.665 0.938,-2.266c0.601,-0.601 1.416,-0.938 2.266,-0.938l4.587,0Zm-90.013,21.135c0,12.101 8.786,22.13 21.55,22.13c12.682,0 21.467,-10.029 21.467,-22.13c0,-12.847 -8.62,-22.13 -21.467,-22.13c-12.93,0 -21.55,9.283 -21.55,22.13Zm132.035,-15.333l0,-25.695c0,0 2.439,0 4.588,0c0.849,0 1.664,0.338 2.265,0.939c0.601,0.601 0.938,1.416 0.938,2.265c0,10.691 0,45.065 0,55.756c0,0.85 -0.337,1.665 -0.938,2.265c-0.601,0.601 -1.416,0.939 -2.265,0.939c-2.023,0 -4.256,0 -4.256,0l0,-5.968l-0.166,0c-2.072,3.15 -6.879,6.962 -14.422,6.962c-12.764,0 -18.152,-11.355 -18.152,-22.876c0,-11.355 5.968,-21.384 18.235,-21.384c7.377,0 11.604,2.901 14.007,6.797l0.166,0Zm-150.435,36.469c0,0 2.439,0 4.587,0c0.85,0 1.665,-0.338 2.266,-0.939c0.601,-0.6 0.938,-1.415 0.938,-2.265c0,-10.691 0,-45.065 0,-55.756c0,-0.849 -0.337,-1.664 -0.938,-2.265c-0.601,-0.601 -1.416,-0.939 -2.266,-0.939c-2.148,0 -4.587,0 -4.587,0l0,62.164Zm26.689,-21.136c0,-8.04 4.89,-15.831 13.261,-15.831c8.289,0 13.179,7.791 13.179,15.831c0,7.543 -4.061,15.831 -13.179,15.831c-9.2,0 -13.261,-8.288 -13.261,-15.831Zm99.627,-0.166c-0.166,-7.708 3.149,-15.665 11.604,-15.665c8.454,0 12.515,8.04 12.515,15.914c0,7.045 -3.647,15.748 -12.432,15.748c-8.372,0 -11.853,-9.366 -11.687,-15.997Zm44.684,-63.726l-238.85,0c-0.355,-0.024 -0.449,-0.012 -0.794,-0.109c-1.164,-0.326 -2.062,-1.423 -2.145,-2.636c-0.073,-1.07 0.487,-2.158 1.409,-2.719c0.344,-0.209 0.73,-0.346 1.129,-0.401c0.133,-0.019 0.268,-0.019 0.401,-0.028l22.423,0c-7.987,-7.798 -9.293,-17.234 -7.409,-23.363c2.511,-8.144 8.984,-9.683 15.314,-7.741c6.779,2.096 9.432,10.333 7.493,16.657c-0.216,0.677 -0.562,1.805 -1.274,3.324c-0.787,1.738 -2.245,3.272 -2.869,5.31c-0.693,2.253 0.33,4.211 2.099,5.813l27.289,0c1.97,-1.871 3.447,-4.169 4.233,-6.74c2.444,-7.89 -2.548,-13.398 -4.615,-15.512l-10.054,-10.762c-4.598,-5.12 -14.713,-19.398 -9.779,-35.432c1.904,-6.184 5.91,-12.742 11.724,-17.083c12.275,-9.147 25.621,-10.648 38.327,-6.995c16.448,4.729 24.347,15.602 34.59,24.005c5.735,-16.818 13.683,-33.283 25.635,-47.176c10.794,-12.652 25.297,-21.822 41.908,-22.39c16.596,-0.548 29.142,6.974 29.556,18.882c0.167,5.068 -2.74,14.92 -12.864,15.261c-7.572,0.262 -12.8,-4.263 -13.036,-11.135c-0.085,-2.519 0.566,-4.724 2.292,-7.301c1.688,-3.304 2.049,-3.683 2.006,-5.12c-0.152,-4.333 -6.692,-4.493 -8.482,-4.409c-24.548,0.811 -31.018,33.939 -36.263,60.875l-2.569,14.205c14.136,2.067 24.172,-0.481 29.77,-4.102c7.881,-5.117 -2.205,-10.374 -0.933,-16.191c1.288,-5.931 6.683,-8.794 10.969,-8.914c6,-0.148 10.283,6.077 10.144,12.395c-0.216,10.444 -14.069,24.793 -41.783,24.207c-3.376,-0.079 -6.482,-0.315 -9.38,-0.665l-5.228,28.86c-1.387,6.478 -2.91,13.66 -4.945,21.237l94.561,0l0.401,0.028c0.132,0.027 0.265,0.045 0.394,0.082c1.033,0.289 1.87,1.181 2.09,2.237c0.272,1.308 -0.46,2.759 -1.711,3.302c-0.246,0.107 -0.506,0.18 -0.773,0.217c-0.132,0.018 -0.267,0.018 -0.401,0.027Zm-127.085,-5.893c0.469,-2.383 0.942,-4.832 1.422,-7.35l1.674,-10.152c2.723,-13.608 5.741,-28.784 10.342,-43.905c-11.162,-8.404 -17.847,-18.821 -32.86,-22.892c-10.29,-2.793 -16.562,-0.423 -20.973,5.155c-5.222,6.604 -3.488,15.2 1.557,20.241l8.336,9.223c10.222,11.808 15.809,20.999 13.707,33.359c-1.024,6.057 -3.949,11.682 -8.315,16.321l25.11,0Z" style="fill:#007dbd;"/></g></g></svg>