<?xml version="1.0" encoding="utf-8"?>
<!-- Generator: Adobe Illustrator 19.2.1, SVG Export Plug-In . SVG Version: 6.00 Build 0)  -->
<svg version="1.1" id="Calque_1" xmlns="http://www.w3.org/2000/svg" xmlns:xlink="http://www.w3.org/1999/xlink" x="0px" y="0px"
	 viewBox="0 0 192 173.5" xml:space="preserve">
<style type="text/css">
	.st0{fill-rule:evenodd;clip-rule:evenodd;}
	.st1{fill-rule:evenodd;clip-rule:evenodd;fill:#81A61B;}
	.st2{fill-rule:evenodd;clip-rule:evenodd;fill:#FFFFFF;}
	.st3{fill:#FFFFFF;}
	.st4{fill:#81A61B;}
	.st5{fill:#FFFFFF;stroke:#FF0000;}
</style>
<g>
	<g>
		<path class="st0" d="M68.4,19.5c1.5,0.4,4.7,0.4,6.2,0V13h3.8v6.5c1.5,0.4,4.7,0.4,6.2,0V13h3.8v22.6c0,7.4,0,16.8,0,22.3
			c0,4-2.8,7.7-4.8,11c-5.9,9.7-18.4,24.4-20.4,26.4c-2,2-4.3,4.3-4.3,4.3s-4.8,4.8-8.6,5.8c8-8.9,14.1-22,14.2-39.1
			c0.1-16.8-0.1-35.8,0-53.3h3.8V19.5z"/>
		<path class="st1" d="M88.5,74.5c3-7.8,9.2-12.5,19-13.4c1.1-0.1,3.6,0,3.6,0c7.1,0.4,13.6,4.3,19,10.6c4.1-6,10.5-9.7,19.7-10.6
			c1.3-0.1,2.4,0,2.4,0c14.5,1.6,23.4,12.3,23.3,23.8c0,1.7,0,35.5,0,35.5c-1,3.8-8.5,3.8-8.6-0.7c-0.2-11.5,0.3-23.7-0.2-34.8
			c-0.7-8.9-5.8-13.1-14.2-14.6c-1.4-0.2-3.7-0.2-4.8,0c-7.6,1.4-12,6.4-13.2,14.4c-0.6,11-0.1,23.1-0.2,34.6c0.2,5-7.8,5.2-8.6,1
			V89.4c0-11.1-4.4-17.8-14.2-19.2c-2.3-0.2-2.6-0.2-4.6,0C94.8,71.5,92,82,92.6,95.8C90.9,89,89.4,82.1,88.5,74.5"/>
		<path class="st0" d="M88.5,74.4c0.9,7.6,2.4,14.6,4.1,21.4c2.8,10.3,6.8,19.3,11.8,27.4h-12H49.9c-9.6-0.2-16.4-3.7-21.4-7.9
			c-5-4.2-10.4-13.8-10.3-23C18,78.9,27.2,70,29,68.7c3.9-3.2,10-6.8,18.7-7.4c0,0,1.5-0.1,2.9,0c4.5,0.5,10.5,0.9,10.6,5.8
			c0,2.8-2.3,4.8-6.2,4.8c-3,0-1.9,0-7,0.2c-12.7,0.6-20.1,10.8-19,22.6c1,10.3,11.3,20.9,25.2,17.3c6.1-1.6,16.7-11.7,17.8-13
			C78.8,92.1,83.7,83.3,88.5,74.4"/>
	</g>
</g>
<g>
	<g>
		<g>
			<path class="st2" d="M278.4,19.5c1.5,0.4,4.7,0.4,6.2,0V13h3.8v6.5c1.5,0.4,4.7,0.4,6.2,0V13h3.8v22.6c0,7.4,0,16.8,0,22.3
				c0,4-2.8,7.7-4.8,11c-5.9,9.7-18.4,24.4-20.4,26.4c-2,2-4.3,4.3-4.3,4.3s-4.8,4.8-8.6,5.8c8-8.9,14.1-22,14.2-39.1
				c0.1-16.8-0.1-35.8,0-53.3h3.8V19.5z"/>
			<path class="st1" d="M298.5,74.5c3-7.8,9.2-12.5,19-13.4c1.1-0.1,3.6,0,3.6,0c7.1,0.4,13.6,4.3,19,10.6c4.1-6,10.5-9.7,19.7-10.6
				c1.3-0.1,2.4,0,2.4,0c14.5,1.6,23.4,12.3,23.3,23.8c0,1.7,0,35.5,0,35.5c-1,3.8-8.5,3.8-8.6-0.7c-0.2-11.5,0.3-23.7-0.2-34.8
				c-0.7-8.9-5.8-13.1-14.2-14.6c-1.4-0.2-3.7-0.2-4.8,0c-7.6,1.4-12,6.4-13.2,14.4c-0.6,11-0.1,23.1-0.2,34.6c0.2,5-7.8,5.2-8.6,1
				V89.4c0-11.1-4.4-17.8-14.2-19.2c-2.3-0.2-2.6-0.2-4.6,0C304.8,71.5,302,82,302.6,95.8C300.9,89,299.4,82.1,298.5,74.5"/>
			<path class="st2" d="M298.5,74.4c0.9,7.6,2.4,14.6,4.1,21.4c2.8,10.3,6.8,19.3,11.8,27.4h-12h-42.5c-9.6-0.2-16.4-3.7-21.4-7.9
				c-5-4.2-10.4-13.8-10.3-23c-0.2-13.3,9-22.1,10.8-23.5c3.9-3.2,10-6.8,18.7-7.4c0,0,1.5-0.1,2.9,0c4.5,0.5,10.5,0.9,10.6,5.8
				c0,2.8-2.3,4.8-6.2,4.8c-3,0-1.9,0-7,0.2c-12.7,0.6-20.1,10.8-19,22.6c1,10.3,11.3,20.9,25.2,17.3c6.1-1.6,16.7-11.7,17.8-13
				C288.8,92.1,293.7,83.3,298.5,74.4"/>
		</g>
	</g>
	<text transform="matrix(1 0 0 1 227.4995 153.4697)"><tspan x="0" y="0" class="st3" style="font-family:'Comfortaa'; font-size:35.8456px;">dark</tspan><tspan x="66" y="0" class="st4" style="font-family:'Comfortaa'; font-size:35.8456px;">mira</tspan></text>
</g>
<g>
	<g>
		<g>
			<path class="st0" d="M491.9,28.1c1.5,0.4,4.7,0.4,6.2,0v-6.5h3.8v6.5c1.5,0.4,4.7,0.4,6.2,0v-6.5h3.8v22.6c0,7.4,0,16.8,0,22.3
				c0,4-2.8,7.7-4.8,11c-5.9,9.7-18.4,24.4-20.4,26.4c-2,2-4.3,4.3-4.3,4.3s-4.8,4.8-8.6,5.8c8-8.9,14.1-22,14.2-39.1
				c0.1-16.8-0.1-35.8,0-53.3h3.8V28.1z"/>
			<path class="st1" d="M512.1,83.1c3-7.8,9.2-12.5,19-13.4c1.1-0.1,3.6,0,3.6,0c7.1,0.4,13.6,4.3,19,10.6c4.1-6,10.5-9.7,19.7-10.6
				c1.3-0.1,2.4,0,2.4,0c14.5,1.6,23.4,12.3,23.3,23.8c0,1.7,0,35.5,0,35.5c-1,3.8-8.5,3.8-8.6-0.7c-0.2-11.5,0.3-23.7-0.2-34.8
				c-0.7-8.9-5.8-13.1-14.2-14.6c-1.4-0.2-3.7-0.2-4.8,0c-7.6,1.4-12,6.4-13.2,14.4c-0.6,11-0.1,23.1-0.2,34.6c0.2,5-7.8,5.2-8.6,1
				V98c0-11.1-4.4-17.8-14.2-19.2c-2.3-0.2-2.6-0.2-4.6,0c-11.9,1.4-14.7,11.8-14.2,25.7C514.5,97.6,512.9,90.7,512.1,83.1"/>
			<path class="st0" d="M512.1,83c0.9,7.6,2.4,14.6,4.1,21.4c2.8,10.3,6.8,19.3,11.8,27.4h-12h-42.5c-9.6-0.2-16.4-3.7-21.4-7.9
				c-5-4.2-10.4-13.8-10.3-23c-0.2-13.3,9-22.1,10.8-23.5c3.9-3.2,10-6.8,18.7-7.4c0,0,1.5-0.1,2.9,0c4.5,0.5,10.5,0.9,10.6,5.8
				c0,2.8-2.3,4.8-6.2,4.8c-3,0-1.9,0-7,0.2c-12.7,0.6-20.1,10.8-19,22.6c1,10.3,11.3,20.9,25.2,17.3c6.1-1.6,16.7-11.7,17.8-13
				C502.4,100.7,507.2,91.9,512.1,83"/>
		</g>
	</g>
	<text transform="matrix(1 0 0 1 609.7021 132.7318)"><tspan x="0" y="0" style="font-family:'Comfortaa'; font-size:142.4557px;">dark</tspan><tspan x="262.4" y="0" class="st4" style="font-family:'Comfortaa'; font-size:142.4557px;">mira</tspan></text>
</g>
<path class="st5" d="M-44.4,87.7c0.1-14.4-11.1-26-26.8-27.8c0,0-0.1,0-0.1,0c-0.1,0-1.4-0.1-3,0c0,0-0.1,0-0.1,0
	c-8.1,0.7-14.7,3.6-19.5,8.5c-5.6-5.3-11.9-8.2-18.5-8.5c-0.7,0-2.9-0.2-4.3,0c-6.4,0.6-11.6,2.7-15.6,6.2c0.7-1.7,1.1-3.5,1.1-5.4
	c0-3.7,0-9.1,0-14.4l0-7.9V15.9c0-2.2-1.8-4-4-4h-3.8c-1.3,0-2.4,0.6-3.1,1.5c-0.7-0.9-1.9-1.5-3.1-1.5h-3.8c-1.3,0-2.4,0.6-3.1,1.5
	c-0.7-0.9-1.9-1.5-3.1-1.5h-3.8c-2.2,0-4,1.8-4,4c0,8.4,0,17.2,0,25.8c0,6.9,0,14,0,20.7c-2.8-1.5-6.3-1.9-8.8-2.1l-0.7-0.1
	c-0.1,0-0.1,0-0.2,0c-1.6-0.1-3.2,0-3.4,0c-7.8,0.6-15,3.4-20.9,8.3c-3.6,2.7-12.5,12.7-12.3,26.6c-0.1,10.4,5.8,21,11.7,26.1
	c2.3,1.9,4.7,3.6,7.3,4.9c-0.9,1-1.5,2.3-1.5,3.7v3.3c-1-0.2-2-0.3-3-0.3c-3.8,0-7.1,1.4-9.8,4c-2.7,2.7-4,6-4,9.8
	c0,3.8,1.4,7.1,4,9.8c2.7,2.7,6,4,9.8,4c3.8,0,7.1-1.4,9.8-4c0.5-0.5,1-1.1,1.4-1.7c0.4,0.6,0.9,1.2,1.4,1.7c2.7,2.7,6,4,9.8,4
	c1.9,0,3.6-0.3,5.3-1c0.9,0.7,2,1,3.1,1c1,0,2-0.3,2.8-0.8c0.8,0.5,1.8,0.8,2.8,0.8c1.4,0,2.8-0.6,3.8-1.6c1-1,1.6-2.4,1.6-3.8h6
	c0,1.4,0.6,2.8,1.6,3.8c1,1,2.4,1.6,3.8,1.6s2.8-0.6,3.8-1.6c1-1,1.6-2.4,1.6-3.8v-1.5l4.6,5.2c0.1,0.1,0.1,0.2,0.2,0.2
	c1,1,2.4,1.5,3.8,1.5c1,0,2-0.3,2.8-0.8c0.8,0.5,1.8,0.8,2.8,0.8c1.4,0,2.8-0.6,3.8-1.6s1.6-2.4,1.6-3.8h1.8c0,1.4,0.6,2.8,1.6,3.8
	c1,1,2.4,1.6,3.8,1.6s2.8-0.6,3.8-1.6c1-1,1.6-2.4,1.6-3.8h1.8c0,1.4,0.6,2.8,1.6,3.8c1,1,2.4,1.6,3.8,1.6c1.3,0,2.5-0.5,3.5-1.3
	c1,0.8,2.2,1.3,3.5,1.3c1.3,0,2.5-0.5,3.5-1.3c1,0.8,2.2,1.3,3.5,1.3c1.4,0,2.8-0.6,3.8-1.6s1.6-2.4,1.6-3.8c0,0,7.4-1.3,10,1.4
	c2.7,2.7,6,4,9.8,4c1.9,0,3.6-0.3,5.3-1c0.9,0.7,2,1,3.1,1c1.4,0,2.8-0.6,3.8-1.6s1.6-2.4,1.6-3.8v-8.4
	C-44.1,142.7-44.4,87.7-44.4,87.7z"/>
<path class="st0" d="M-155.4,22.3c1.5,0.4,4.7,0.4,6.2,0v-6.5h3.8v6.5c1.5,0.4,4.7,0.4,6.2,0v-6.5h3.8v22.6c0,7.4,0,16.8,0,22.3
	c0,4-2.8,7.7-4.8,11c-5.9,9.7-18.4,24.4-20.4,26.4c-2,2-4.3,4.3-4.3,4.3s-4.8,4.8-8.6,5.8c8-8.9,14.1-22,14.2-39.1
	c0.1-16.8-0.1-35.8,0-53.3h3.8V22.3z"/>
<path class="st1" d="M-135.3,77.4c3-7.8,9.2-12.5,19-13.4c1.1-0.1,3.6,0,3.6,0c7.1,0.4,13.6,4.3,19,10.6c4.1-6,10.5-9.7,19.7-10.6
	c1.3-0.1,2.4,0,2.4,0c14.5,1.6,23.4,12.3,23.3,23.8c0,1.7,0,35.5,0,35.5c-1,3.8-8.5,3.8-8.6-0.7c-0.2-11.5,0.3-23.7-0.2-34.8
	C-58,78.8-63.1,74.5-71.5,73c-1.4-0.2-3.7-0.2-4.8,0c-7.6,1.4-12,6.4-13.2,14.4c-0.6,11-0.1,23.1-0.2,34.6c0.2,5-7.8,5.2-8.6,1V92.2
	c0-11.1-4.4-17.8-14.2-19.2c-2.3-0.2-2.6-0.2-4.6,0c-11.9,1.4-14.7,11.8-14.2,25.7C-132.9,91.9-134.4,84.9-135.3,77.4"/>
<path class="st0" d="M-135.3,77.3c0.9,7.6,2.4,14.6,4.1,21.4c2.8,10.3,6.8,19.3,11.8,27.4h-12h-42.5c-9.6-0.2-16.4-3.7-21.4-7.9
	c-5-4.2-10.4-13.8-10.3-23c-0.2-13.3,9-22.1,10.8-23.5c3.9-3.2,10-6.8,18.7-7.4c0,0,1.5-0.1,2.9,0c4.5,0.5,10.5,0.9,10.6,5.8
	c0,2.8-2.3,4.8-6.2,4.8c-3,0-1.9,0-7,0.2c-12.7,0.6-20.1,10.8-19,22.6c1,10.3,11.3,20.9,25.2,17.3c6.1-1.6,16.7-11.7,17.8-13
	C-145,94.9-140.1,86.2-135.3,77.3"/>
<g>
	<path d="M-188.1,129.7c0-0.4,0.1-0.7,0.4-1c0.3-0.3,0.6-0.4,1-0.4c0.4,0,0.7,0.1,1,0.4s0.4,0.6,0.4,1v16.8c0,2.7-1,5-2.9,6.9
		c-1.9,1.9-4.2,2.9-6.9,2.9c-2.7,0-5-1-6.9-2.9c-1.9-1.9-2.9-4.2-2.9-6.9s1-5,2.9-6.9c1.9-1.9,4.2-2.9,6.9-2.9c2.7,0,5,1,6.9,2.9
		c0,0,0,0,0.1,0.1V129.7z M-188.1,146.5c0-1.9-0.7-3.6-2-5c-1.4-1.4-3-2-5-2c-1.9,0-3.6,0.7-5,2c-1.4,1.4-2,3-2,5c0,1.9,0.7,3.6,2,5
		c1.4,1.4,3,2,5,2c1.9,0,3.6-0.7,5-2C-188.8,150.1-188.1,148.5-188.1,146.5z"/>
	<path d="M-165.7,153.4c-2,2-4.3,2.9-7,2.9c-2.7,0-5-1-6.9-2.9c-1.9-1.9-2.9-4.2-2.9-6.9s1-5,2.9-6.9c1.9-1.9,4.2-2.9,6.9-2.9
		c2.7,0,5,1,6.9,2.9c1.9,1.9,2.9,4.2,2.9,6.9v8.4c0,0.4-0.1,0.7-0.4,1c-0.3,0.3-0.6,0.4-1,0.4c-0.4,0-0.7-0.1-1-0.4
		c-0.3-0.3-0.4-0.6-0.4-1V153.4z M-172.7,139.5c-1.9,0-3.6,0.7-5,2c-1.4,1.4-2,3-2,5c0,1.9,0.7,3.6,2,5c1.4,1.4,3,2,5,2
		c1.9,0,3.6-0.7,5-2c1.4-1.4,2-3,2-5c0-1.9-0.7-3.6-2-5C-169.1,140.2-170.7,139.5-172.7,139.5z"/>
	<path d="M-160.1,138.1c0-0.4,0.1-0.7,0.4-1c0.3-0.3,0.6-0.4,1-0.4c0.4,0,0.7,0.1,1,0.4c0.3,0.3,0.4,0.6,0.4,1v1.5
		c2-2,4.3-2.9,7-2.9c1.4,0,2.6,0.2,3.8,0.7c0.2,0.1,0.4,0.2,0.6,0.4c0.3,0.3,0.4,0.6,0.4,1c0,0.4-0.1,0.7-0.4,1
		c-0.3,0.3-0.6,0.4-1,0.4c-0.2,0-0.4,0-0.6-0.1c-0.8-0.4-1.7-0.5-2.7-0.5c-1.9,0-3.6,0.7-5,2c-1.4,1.4-2,3-2,5v8.4
		c0,0.4-0.1,0.7-0.4,1c-0.3,0.3-0.6,0.4-1,0.4c-0.4,0-0.7-0.1-1-0.4c-0.3-0.3-0.4-0.6-0.4-1V138.1z"/>
	<path d="M-140.5,144.7l11.8-7.7c0.2-0.1,0.5-0.2,0.8-0.2c0.4,0,0.7,0.1,1,0.4c0.3,0.3,0.4,0.6,0.4,1c0,0.4-0.1,0.7-0.4,1
		c-0.1,0.1-0.1,0.1-0.2,0.2l-8.1,5.3l8.3,9.4c0.3,0.3,0.4,0.6,0.4,1c0,0.4-0.1,0.7-0.4,1c-0.3,0.3-0.6,0.4-1,0.4
		c-0.4,0-0.7-0.1-1-0.4l-8.7-9.8l-2.9,1.9v6.9c0,0.4-0.1,0.7-0.4,1c-0.3,0.3-0.6,0.4-1,0.4c-0.4,0-0.7-0.1-1-0.4s-0.4-0.6-0.4-1
		v-25.2c0-0.4,0.1-0.7,0.4-1s0.6-0.4,1-0.4c0.4,0,0.7,0.1,1,0.4c0.3,0.3,0.4,0.6,0.4,1V144.7z"/>
	<path class="st4" d="M-120.9,154.9c0,0.4-0.1,0.7-0.4,1c-0.3,0.3-0.6,0.4-1,0.4c-0.4,0-0.7-0.1-1-0.4c-0.3-0.3-0.4-0.6-0.4-1v-16.8
		c0-0.4,0.1-0.7,0.4-1c0.3-0.3,0.6-0.4,1-0.4c0.4,0,0.7,0.1,1,0.4c0.3,0.3,0.4,0.6,0.4,1v0.4c1.4-1.2,3-1.8,4.9-1.8
		c2.1,0,3.9,0.8,5.4,2.3c0.3,0.3,0.6,0.6,0.9,1c0.3-0.3,0.5-0.7,0.9-1c1.5-1.5,3.3-2.3,5.4-2.3s3.9,0.8,5.4,2.3
		c1.5,1.5,2.3,3.3,2.3,5.4v10.5c0,0.4-0.1,0.7-0.4,1c-0.3,0.3-0.6,0.4-1,0.4c-0.4,0-0.7-0.1-1-0.4c-0.3-0.3-0.4-0.6-0.4-1v-10.5
		c0-1.4-0.5-2.5-1.4-3.5c-1-1-2.1-1.4-3.5-1.4s-2.5,0.5-3.5,1.4c-1,1-1.4,2.1-1.4,3.5v10.5c0,0.4-0.1,0.7-0.4,1
		c-0.3,0.3-0.6,0.4-1,0.4c-0.4,0-0.7-0.1-1-0.4c-0.3-0.3-0.4-0.6-0.4-1v-10.5c0-1.4-0.5-2.5-1.4-3.5c-1-1-2.1-1.4-3.5-1.4
		c-1.4,0-2.5,0.5-3.5,1.4c-1,1-1.4,2.1-1.4,3.5V154.9z"/>
	<path class="st4" d="M-88.3,132.5c0,0.5-0.2,0.9-0.5,1.2c-0.3,0.3-0.8,0.5-1.2,0.5s-0.9-0.2-1.2-0.5c-0.3-0.3-0.5-0.8-0.5-1.2
		c0-0.5,0.2-0.9,0.5-1.2c0.3-0.3,0.8-0.5,1.2-0.5s0.9,0.2,1.2,0.5C-88.5,131.6-88.3,132.1-88.3,132.5z M-91.5,138.1
		c0-0.4,0.1-0.7,0.4-1c0.3-0.3,0.6-0.4,1-0.4c0.4,0,0.7,0.1,1,0.4c0.3,0.3,0.4,0.6,0.4,1v16.8c0,0.4-0.1,0.7-0.4,1s-0.6,0.4-1,0.4
		c-0.4,0-0.7-0.1-1-0.4c-0.3-0.3-0.4-0.6-0.4-1V138.1z"/>
	<path class="st4" d="M-84.5,138.1c0-0.4,0.1-0.7,0.4-1c0.3-0.3,0.6-0.4,1-0.4c0.4,0,0.7,0.1,1,0.4c0.3,0.3,0.4,0.6,0.4,1v1.5
		c2-2,4.3-2.9,7-2.9c1.4,0,2.6,0.2,3.8,0.7c0.2,0.1,0.4,0.2,0.6,0.4c0.3,0.3,0.4,0.6,0.4,1c0,0.4-0.1,0.7-0.4,1
		c-0.3,0.3-0.6,0.4-1,0.4c-0.2,0-0.4,0-0.6-0.1c-0.8-0.4-1.7-0.5-2.7-0.5c-1.9,0-3.6,0.7-5,2c-1.4,1.4-2,3-2,5v8.4
		c0,0.4-0.1,0.7-0.4,1s-0.6,0.4-1,0.4c-0.4,0-0.7-0.1-1-0.4c-0.3-0.3-0.4-0.6-0.4-1V138.1z"/>
	<path class="st4" d="M-50.9,153.4c-2,2-4.3,2.9-7,2.9c-2.7,0-5-1-6.9-2.9c-1.9-1.9-2.9-4.2-2.9-6.9s1-5,2.9-6.9
		c1.9-1.9,4.2-2.9,6.9-2.9c2.7,0,5,1,6.9,2.9c1.9,1.9,2.9,4.2,2.9,6.9v8.4c0,0.4-0.1,0.7-0.4,1c-0.3,0.3-0.6,0.4-1,0.4
		c-0.4,0-0.7-0.1-1-0.4c-0.3-0.3-0.4-0.6-0.4-1V153.4z M-57.9,139.5c-1.9,0-3.6,0.7-5,2c-1.4,1.4-2,3-2,5c0,1.9,0.7,3.6,2,5
		c1.4,1.4,3,2,5,2c1.9,0,3.6-0.7,5-2c1.4-1.4,2-3,2-5c0-1.9-0.7-3.6-2-5C-54.3,140.2-55.9,139.5-57.9,139.5z"/>
</g>
<g>
	<path d="M35.2,129.6c0-0.4,0.1-0.7,0.4-1c0.3-0.3,0.6-0.4,1-0.4c0.4,0,0.7,0.1,1,0.4s0.4,0.6,0.4,1v16.8c0,2.7-1,5-2.9,6.9
		c-1.9,1.9-4.2,2.9-6.9,2.9c-2.7,0-5-1-6.9-2.9c-1.9-1.9-2.9-4.2-2.9-6.9s1-5,2.9-6.9c1.9-1.9,4.2-2.9,6.9-2.9c2.7,0,5,1,6.9,2.9
		c0,0,0,0,0.1,0.1V129.6z M35.2,146.4c0-1.9-0.7-3.6-2-5c-1.4-1.4-3-2-5-2c-1.9,0-3.6,0.7-5,2c-1.4,1.4-2,3-2,5c0,1.9,0.7,3.6,2,5
		c1.4,1.4,3,2,5,2c1.9,0,3.6-0.7,5-2C34.5,150,35.2,148.4,35.2,146.4z"/>
	<path d="M57.6,153.3c-2,2-4.3,2.9-7,2.9c-2.7,0-5-1-6.9-2.9c-1.9-1.9-2.9-4.2-2.9-6.9s1-5,2.9-6.9c1.9-1.9,4.2-2.9,6.9-2.9
		c2.7,0,5,1,6.9,2.9c1.9,1.9,2.9,4.2,2.9,6.9v8.4c0,0.4-0.1,0.7-0.4,1c-0.3,0.3-0.6,0.4-1,0.4c-0.4,0-0.7-0.1-1-0.4
		c-0.3-0.3-0.4-0.6-0.4-1V153.3z M50.6,139.4c-1.9,0-3.6,0.7-5,2c-1.4,1.4-2,3-2,5c0,1.9,0.7,3.6,2,5c1.4,1.4,3,2,5,2
		c1.9,0,3.6-0.7,5-2c1.4-1.4,2-3,2-5c0-1.9-0.7-3.6-2-5C54.2,140.1,52.5,139.4,50.6,139.4z"/>
	<path d="M63.2,138c0-0.4,0.1-0.7,0.4-1c0.3-0.3,0.6-0.4,1-0.4c0.4,0,0.7,0.1,1,0.4c0.3,0.3,0.4,0.6,0.4,1v1.5c2-2,4.3-2.9,7-2.9
		c1.4,0,2.6,0.2,3.8,0.7c0.2,0.1,0.4,0.2,0.6,0.4c0.3,0.3,0.4,0.6,0.4,1c0,0.4-0.1,0.7-0.4,1c-0.3,0.3-0.6,0.4-1,0.4
		c-0.2,0-0.4,0-0.6-0.1c-0.8-0.4-1.7-0.5-2.7-0.5c-1.9,0-3.6,0.7-5,2c-1.4,1.4-2,3-2,5v8.4c0,0.4-0.1,0.7-0.4,1
		c-0.3,0.3-0.6,0.4-1,0.4c-0.4,0-0.7-0.1-1-0.4c-0.3-0.3-0.4-0.6-0.4-1V138z"/>
	<path d="M82.8,144.5l11.8-7.7c0.2-0.1,0.5-0.2,0.8-0.2c0.4,0,0.7,0.1,1,0.4c0.3,0.3,0.4,0.6,0.4,1c0,0.4-0.1,0.7-0.4,1
		c-0.1,0.1-0.1,0.1-0.2,0.2l-8.1,5.3l8.3,9.4c0.3,0.3,0.4,0.6,0.4,1c0,0.4-0.1,0.7-0.4,1c-0.3,0.3-0.6,0.4-1,0.4
		c-0.4,0-0.7-0.1-1-0.4l-8.7-9.8l-2.9,1.9v6.9c0,0.4-0.1,0.7-0.4,1c-0.3,0.3-0.6,0.4-1,0.4c-0.4,0-0.7-0.1-1-0.4
		c-0.3-0.3-0.4-0.6-0.4-1v-25.2c0-0.4,0.1-0.7,0.4-1s0.6-0.4,1-0.4c0.4,0,0.7,0.1,1,0.4c0.3,0.3,0.4,0.6,0.4,1V144.5z"/>
	<path class="st4" d="M102.4,154.8c0,0.4-0.1,0.7-0.4,1c-0.3,0.3-0.6,0.4-1,0.4c-0.4,0-0.7-0.1-1-0.4c-0.3-0.3-0.4-0.6-0.4-1V138
		c0-0.4,0.1-0.7,0.4-1c0.3-0.3,0.6-0.4,1-0.4c0.4,0,0.7,0.1,1,0.4c0.3,0.3,0.4,0.6,0.4,1v0.4c1.4-1.2,3-1.8,4.9-1.8
		c2.1,0,3.9,0.8,5.4,2.3c0.3,0.3,0.6,0.6,0.9,1c0.3-0.3,0.5-0.7,0.9-1c1.5-1.5,3.3-2.3,5.4-2.3c2.1,0,3.9,0.8,5.4,2.3
		c1.5,1.5,2.3,3.3,2.3,5.4v10.5c0,0.4-0.1,0.7-0.4,1c-0.3,0.3-0.6,0.4-1,0.4c-0.4,0-0.7-0.1-1-0.4c-0.3-0.3-0.4-0.6-0.4-1v-10.5
		c0-1.4-0.5-2.5-1.4-3.5c-1-1-2.1-1.4-3.5-1.4s-2.5,0.5-3.5,1.4c-1,1-1.4,2.1-1.4,3.5v10.5c0,0.4-0.1,0.7-0.4,1
		c-0.3,0.3-0.6,0.4-1,0.4c-0.4,0-0.7-0.1-1-0.4c-0.3-0.3-0.4-0.6-0.4-1v-10.5c0-1.4-0.5-2.5-1.4-3.5c-1-1-2.1-1.4-3.5-1.4
		c-1.4,0-2.5,0.5-3.5,1.4c-1,1-1.4,2.1-1.4,3.5V154.8z"/>
	<path class="st4" d="M134.9,132.4c0,0.5-0.2,0.9-0.5,1.2c-0.3,0.3-0.8,0.5-1.2,0.5s-0.9-0.2-1.2-0.5c-0.3-0.3-0.5-0.8-0.5-1.2
		c0-0.5,0.2-0.9,0.5-1.2c0.3-0.3,0.8-0.5,1.2-0.5s0.9,0.2,1.2,0.5C134.8,131.5,134.9,131.9,134.9,132.4z M131.8,138
		c0-0.4,0.1-0.7,0.4-1c0.3-0.3,0.6-0.4,1-0.4c0.4,0,0.7,0.1,1,0.4c0.3,0.3,0.4,0.6,0.4,1v16.8c0,0.4-0.1,0.7-0.4,1
		c-0.3,0.3-0.6,0.4-1,0.4c-0.4,0-0.7-0.1-1-0.4c-0.3-0.3-0.4-0.6-0.4-1V138z"/>
	<path class="st4" d="M138.8,138c0-0.4,0.1-0.7,0.4-1c0.3-0.3,0.6-0.4,1-0.4c0.4,0,0.7,0.1,1,0.4c0.3,0.3,0.4,0.6,0.4,1v1.5
		c2-2,4.3-2.9,7-2.9c1.4,0,2.6,0.2,3.8,0.7c0.2,0.1,0.4,0.2,0.6,0.4c0.3,0.3,0.4,0.6,0.4,1c0,0.4-0.1,0.7-0.4,1
		c-0.3,0.3-0.6,0.4-1,0.4c-0.2,0-0.4,0-0.6-0.1c-0.8-0.4-1.7-0.5-2.7-0.5c-1.9,0-3.6,0.7-5,2c-1.4,1.4-2,3-2,5v8.4
		c0,0.4-0.1,0.7-0.4,1c-0.3,0.3-0.6,0.4-1,0.4c-0.4,0-0.7-0.1-1-0.4c-0.3-0.3-0.4-0.6-0.4-1V138z"/>
	<path class="st4" d="M172.4,153.3c-2,2-4.3,2.9-7,2.9c-2.7,0-5-1-6.9-2.9c-1.9-1.9-2.9-4.2-2.9-6.9s1-5,2.9-6.9
		c1.9-1.9,4.2-2.9,6.9-2.9c2.7,0,5,1,6.9,2.9c1.9,1.9,2.9,4.2,2.9,6.9v8.4c0,0.4-0.1,0.7-0.4,1c-0.3,0.3-0.6,0.4-1,0.4
		c-0.4,0-0.7-0.1-1-0.4c-0.3-0.3-0.4-0.6-0.4-1V153.3z M165.4,139.4c-1.9,0-3.6,0.7-5,2c-1.4,1.4-2,3-2,5c0,1.9,0.7,3.6,2,5
		c1.4,1.4,3,2,5,2c1.9,0,3.6-0.7,5-2c1.4-1.4,2-3,2-5c0-1.9-0.7-3.6-2-5C169,140.1,167.3,139.4,165.4,139.4z"/>
</g>
</svg>
