<?xml version="1.0" encoding="UTF-8"?>
<svg width="136px" height="153px" viewBox="0 0 136 153" version="1.1" xmlns="http://www.w3.org/2000/svg" xmlns:xlink="http://www.w3.org/1999/xlink">
    <!-- Generator: Sketch 54.1 (76490) - https://sketchapp.com -->
    <title>IZIbyEDF_LogoVertical</title>
    <desc>Created with Sketch.</desc>
    <g id="Page-1" stroke="none" stroke-width="1" fill="none" fill-rule="evenodd">
        <g id="IZIbyEDF_LogoVertical" transform="translate(-1.000000, 0.000000)">
            <g id="Group" transform="translate(0.868597, 0.868597)" fill-rule="nonzero">
                <path d="M95.6485523,111.126949 L82.5514477,111.126949 C82.5955457,112.163252 82.5514477,113.596437 82.5514477,115.867483 L82.5514477,137.27706 C82.5514477,139.548107 82.5955457,141.334076 82.5514477,142.017595 L93.7082405,142.017595 C102.042762,142.017595 110.00245,138.401559 110.00245,126.230512 C110.00245,116.551002 104.225612,111.126949 95.6485523,111.126949 Z M93.1570156,136.152561 L90.6875278,136.152561 L90.6875278,116.749443 L93.1570156,116.749443 C97.8975501,116.749443 101.734076,119.108686 101.734076,126.230512 C101.734076,134.587082 97.8755011,136.152561 93.1570156,136.152561 Z M127.685746,116.991982 C129.185078,116.991982 133.572829,117.102227 133.572829,117.102227 L133.572829,111.126949 L113.993318,111.126949 C113.993318,111.126949 114.037416,113.596437 114.037416,115.867483 L114.037416,137.27706 C114.037416,139.526058 113.993318,142.017595 113.993318,142.017595 L122.283742,142.017595 C122.283742,142.017595 122.173497,139.526058 122.173497,137.27706 L122.173497,128.854343 L127.707795,128.810245 C129.14098,128.810245 132.316036,128.92049 132.316036,128.92049 L132.316036,123.231849 C132.316036,123.231849 128.744098,123.297996 127.707795,123.297996 L122.173497,123.231849 L122.173497,117.014031 L127.685746,117.014031 L127.685746,116.991982 Z M64.3610245,110.465479 C60.1276169,110.465479 50.2717149,112.053007 50.2717149,126.803786 C50.2717149,136.637639 55.2327394,142.502673 63.9200445,142.502673 C70.7111359,142.502673 74.9224944,140.760802 77.9432071,138.555902 C77.5904232,138.048775 75.0547884,133.484633 74.7240535,132.999555 C72.9160356,134.388641 69.8953229,135.777728 66.0367483,135.777728 C62.1340757,135.777728 59.135412,133.175947 59.135412,129.074833 L59.135412,128.722049 C59.135412,128.722049 66.3674833,128.545657 68.814922,128.545657 C72.9821826,128.545657 74.7240535,128.523608 78.0093541,128.457461 L78.0093541,126.120267 C78.0093541,115.580846 73.5334076,110.465479 64.3610245,110.465479 Z M69.277951,123.231849 C69.277951,123.231849 66.2131403,123.320045 64.3610245,123.320045 C62.5089087,123.320045 59.113363,123.231849 59.113363,123.231849 L59.157461,122.812918 C59.267706,121.0049 59.9071269,116.881737 64.4271715,116.881737 C69.035412,116.881737 69.3,120.78441 69.3,122.834967 L69.3,123.231849 L69.277951,123.231849 Z M15.2358575,118.689755 C10.8040089,118.689755 8.57706013,121.930958 8.18017817,123.033408 L8.09198218,123.033408 L8.09198218,108.569265 L5.29175947,108.569265 L5.29175947,141.841203 L8.09198218,141.841203 L8.09198218,138.247216 L8.18017817,138.247216 C9.67951002,141.135635 11.9946548,142.370379 15.2358575,142.370379 C21.4536748,142.370379 24.5625835,137.232962 24.5625835,130.530067 C24.5625835,123.65078 21.8946548,118.689755 15.2358575,118.689755 Z M14.7948775,139.967038 C9.83385301,139.967038 8.09198218,134.653229 8.09198218,130.508018 C8.09198218,126.362806 9.67951002,121.048998 14.7948775,121.048998 C20.108686,121.048998 21.4977728,126.098218 21.4977728,130.508018 C21.4977728,134.917817 20.108686,139.967038 14.7948775,139.967038 Z M34.3743875,138.070824 L34.3302895,138.070824 L27.9801782,119.218931 L24.9153675,119.218931 L32.9412027,142.105791 L32.3679287,144.112249 C31.4859688,147.044766 30.6922049,149.029176 28.2888641,149.029176 C27.2746102,149.029176 26.7454343,148.852784 26.1942094,148.676392 L25.9296214,151.079733 C26.8556793,151.300223 27.9360802,151.432517 28.9503341,151.432517 C32.1033408,151.432517 33.6908686,148.323608 34.7712695,145.214699 L43.8113586,119.218931 L40.8788419,119.218931 L34.3743875,138.070824 Z" id="Shape" fill="#001A70"></path>
                <path d="M135.050111,81.4269488 C135.050111,81.4269488 134.85167,78.2518931 133.33029,77.9873051 C132.977506,77.9211581 132.602673,77.8991091 132.316036,77.7006682 C132.161693,77.6124722 132.051448,77.4581292 131.941203,77.3258352 C131.522272,76.7525612 131.323831,76.0028953 131.434076,75.2973274 C130.926949,75.2091314 130.419822,75.1429844 129.912695,75.0547884 C130.419822,72.9380846 130.02294,68.7708241 128.766147,71.1080178 C127.509354,73.4452116 123.805122,79.464588 123.496437,77.0171492 C123.2098,74.9224944 124.334298,70.6670379 125.150111,65.2650334 C125.150111,65.2650334 126.847884,55.1224944 128.677951,42.7530067 C130.618263,29.810245 115.426503,31.7505568 106.47461,36.5572383 C106.03363,36.7777283 105.967483,37.7699332 105.967483,37.7699332 C105.482405,38.1006682 104.644543,38.7180401 104.313808,39.136971 C103.85078,39.732294 103.961024,41.0772829 103.961024,41.0772829 C103.872829,41.9151448 103.18931,42.3561247 103.18931,43.2380846 C103.18931,44.6271715 103.343653,45.9942094 104.04922,47.1187082 C104.26971,47.4494432 105.81314,46.5454343 105.967483,46.9643653 C106.011581,47.4273942 106.055679,47.6919822 107.599109,47.2069042 C109.539421,46.6115813 111.612027,46.3469933 111.193096,48.2432071 C110.22294,52.5648107 107.643207,64.4933185 106.210022,70.6670379 C104.953229,76.0910913 103.85078,82.1104677 103.85078,84.5358575 C103.85078,99.110245 123.518486,97.4786192 130.441871,92.3412027 C132.867261,90.5331849 135.579287,87.6227171 136.086414,84.6461024 C136.306904,83.2349666 134.432739,84.0287305 135.050111,81.4269488 Z M31.8828508,83.4113586 C31.6844098,82.0884187 30.8244989,80.6111359 29.766147,79.8614699 C28.7298441,79.089755 26.4367483,80.7875278 25.0035635,80.9418708 C23.3057906,81.1182628 22.8207127,80.6772829 22.6002227,79.7071269 C22.1812918,77.6786192 22.5340757,73.2908686 23.5703786,66.7202673 C24.1877506,62.8616927 25.6650334,53.5349666 27.0982183,43.2160356 C27.8258352,37.9683742 25.0476615,34.4846325 21.7623608,33.4703786 C18.7636971,32.5443207 15.7650334,32.6545657 11.6639198,33.9554566 C7.69510022,35.2342984 2.49153675,38.6077951 3.28530067,39.996882 C2.57973274,40.4599109 1.38908686,41.4521158 1.47728285,42.3781737 C0.881959911,43.3483296 0.551224944,42.7309577 0.242538976,44.2302895 C-0.132293987,46.0162584 0.749665924,46.7438753 0.705567929,48.8826281 C1.0142539,49.433853 2.35924276,49.367706 3.30734967,49.05902 C3.30734967,49.05902 6.23986637,48.0888641 6.15167038,49.036971 C6.15167038,49.036971 6.32806236,49.235412 6.41625835,49.257461 C7.36436526,49.544098 10.363029,47.4053452 9.78975501,49.389755 C9.21648107,51.3741648 5.75478842,63.0380846 4.07906459,72.6734967 C3.10890869,78.2739421 2.57973274,83.6097996 2.77817372,86.0351893 C3.28530067,92.1207127 7.14387528,96.5746102 14.8389755,96.5746102 C24.3200445,96.5746102 30.2512249,92.5175947 30.163029,90.6434298 C30.14098,90.0040089 31.8608018,88.636971 32.0812918,88.0195991 C32.2356347,87.5786192 31.9710468,86.3659243 31.9710468,86.3659243 C32.0592428,85.8808463 32.8530067,85.6603563 33.1837416,84.8665924 C33.4262806,84.1830735 32.1474388,85.1091314 31.8828508,83.4113586 Z M97.3904232,78.0093541 C96.9714922,77.9873051 96.5305122,77.9652561 96.4864143,77.6124722 C93.9066815,79.9496659 90.9080178,82.6837416 87.2037862,82.6837416 C83.3231626,82.6837416 79.618931,81.0521158 76.2895323,79.266147 C73.8641425,77.9652561 71.1080178,76.2013363 68.3518931,75.0106904 C67.6242762,74.7240535 66.9848552,74.4374165 66.3013363,74.1948775 C66.0587973,74.1066815 65.8162584,74.0184855 65.5737194,73.9523385 L88.0857461,53.3144766 C93.2231626,48.6180401 95.4942094,44.7594655 95.4942094,40.6142539 C95.4942094,35.8957684 92.6498886,31.8387528 85.5060134,32.8309577 C85.5060134,32.8309577 85.4839644,32.8089087 85.4839644,32.8089087 C85.3957684,32.8530067 85.2855234,32.8750557 85.1532294,32.8971047 C85.0870824,32.8971047 85.0209354,32.9191537 84.9547884,32.9412027 C84.2712695,33.0514477 83.2349666,33.0955457 82.7057906,33.2498886 C82.0443207,33.4703786 81.1403118,33.6467706 80.1260579,33.8011136 C78.0534521,34.0877506 66.0367483,33.7349666 61.5167038,32.9632517 C56.6879733,32.1253898 51.4182628,31.2434298 49.345657,30.8906459 L48.9267261,30.8685969 C47.6699332,30.6922049 46.2146993,30.6040089 44.7374165,30.7363029 C44.0097996,30.8024499 43.2160356,30.9347439 42.5104677,31.1111359 C41.7828508,31.2875278 41.0772829,31.5521158 40.4819599,31.8387528 C39.0928731,32.5222717 38.1668151,33.3160356 38.1888641,33.9554566 C38.2109131,34.4405345 38.6077951,34.7492205 38.2109131,34.9256125 C37.8801782,35.1240535 37.3510022,35.3886414 36.4249443,36.2044543 C35.4988864,37.0202673 35.4988864,37.7919822 35.9178174,38.1888641 C36.3367483,38.5636971 36.9982183,38.9164811 37.7919822,39.401559 C39.247216,40.2614699 38.2329621,41.2757238 37.7919822,41.4962138 C37.9242762,41.7608018 37.6376392,43.1278396 39.0487751,44.2302895 C39.996882,44.9799555 40.1071269,46.5895323 40.3276169,46.7659243 C40.6142539,46.9202673 41.8710468,47.5376392 42.0694878,47.7801782 C42.2679287,48.0447661 42.3781737,48.2211581 42.4222717,48.2432071 C42.6648107,48.3755011 43.2160356,48.3975501 44.1641425,48.4636971 C45.4870824,48.5739421 47.1187082,48.7723831 48.4416481,48.7723831 C48.9267261,48.7723831 48.6621381,49.27951 50.6024499,49.433853 C54.8138085,49.786637 59.686637,49.389755 62.7293987,48.9928731 C64.2507795,48.7944321 66.7643653,48.5518931 68.2636971,48.3314031 C68.947216,48.2432071 70.1158129,48.1991091 70.7993318,48.0888641 C71.1080178,48.0447661 72.7175947,48.0006682 72.8719376,47.7581292 C68.991314,53.5129176 63.2365256,57.4596882 58.1432071,62.0017817 C54.1523385,65.5737194 50.2937639,69.255902 46.2808463,72.8057906 C38.7180401,79.508686 37.4391982,81.9340757 37.4391982,86.2115813 C37.4391982,92.5616927 41.6285078,94.7224944 47.0966592,94.4799555 C48.2652561,94.7445434 51.3521158,93.2672606 56.3131403,90.6654788 C58.3636971,89.6071269 59.245657,90.3126949 61.3844098,90.9080178 C62.9278396,91.3269488 64.4492205,91.9002227 65.9485523,92.4293987 C69.52049,93.6641425 73.5334076,95.0532294 77.1935412,95.9792873 C81.8238307,97.1478842 85.2855234,97.1919822 88.65902,96.2218263 C92.3853007,95.1414254 95.5603563,92.1427617 95.7808463,91.1946548 C95.8910913,90.6654788 96.1115813,90.1363029 96.2438753,89.54098 C96.5525612,88.4164811 96.7069042,87.8873051 95.8249443,87.1596882 C96.2438753,86.9612472 96.7069042,86.6305122 97.0596882,86.2997773 C97.4124722,85.9690423 97.6109131,85.6383073 97.4565702,85.3957684 C96.9714922,84.6020045 96.5525612,83.9846325 96.3100223,82.9924276 C96.0895323,81.9781737 96.0674833,81.4489978 96.4423163,80.3465479 C96.8391982,79.530735 98.3164811,78.847216 98.2723831,78.3621381 C98.2944321,77.9873051 97.8093541,78.0534521 97.3904232,78.0093541 Z M36.5351893,0.220489978 C31.9930958,1.10244989 28.3329621,2.49153675 27.7817372,2.44743875 C27.2305122,2.40334076 25.9516704,0.815812918 25.4445434,0.837861915 C24.3200445,0.881959911 23.1955457,0.639420935 21.7403118,1.16859688 C19.491314,2.0064588 18.4991091,2.44743875 16.7792873,4.14521158 C14.7948775,6.12962138 13.0971047,9.39287305 12.7884187,12.3474388 L13.2514477,14.1113586 C13.2514477,14.1113586 13.2073497,17.1541203 13.8247216,18.0801782 C16.3824053,21.8726058 16.3383073,20.7040089 18.2786192,23.5483296 C21.6300668,24.4523385 22.6884187,24.0554566 23.4601336,24.0775056 C26.9218263,24.1216036 27.7376392,23.0412027 28.9062361,21.3434298 C29.369265,20.6819599 29.369265,20.6819599 29.369265,20.6819599 C31.0670379,19.954343 31.7505568,19.1385301 32.9412027,15.9634744 C33.5585746,14.3097996 33.8231626,13.0750557 34.1097996,11.2449889 C34.1097996,11.2449889 33.8672606,8.8857461 32.9412027,8.59910913 C33.1837416,7.36436526 32.8971047,4.34365256 34.7933185,3.70423163 C35.1461024,2.86636971 35.6973274,2.46948775 37.5714922,1.87416481 C38.9826281,1.43318486 38.6298441,-0.19844098 36.5351893,0.220489978 Z M114.632739,13.5601336 C113.662584,16.5587973 116.043875,22.1812918 118.425167,22.4679287 C118.425167,22.4679287 119.726058,22.8648107 120.674165,23.1073497 C121.622272,23.3498886 122.812918,24.1657016 123.43029,24.1877506 C126.208463,24.3641425 127.840089,23.7026726 129.251225,22.7104677 C130.265479,22.0048998 131.037194,20.218931 132.249889,20.263029 C134.432739,18.5652561 135.358797,15.3020045 135.204454,11.5095768 C135.182405,10.9142539 134.741425,8.55501114 134.741425,8.55501114 C133.506682,6.46035635 134.432739,4.16726058 132.845212,2.9986637 C132.845212,2.9986637 130.508018,4.03496659 131.081292,1.05835189 C131.412027,-0.59532294 129.824499,-0.132293987 127.884187,1.52138085 C126.958129,2.31514477 125.811581,0.970155902 125.260356,1.12449889 C116.969933,3.28530067 116.462806,8.64320713 114.081514,10.8040089 C114.059465,11.5757238 114.037416,12.4576837 114.412249,13.2073497 L114.632739,13.5601336 Z" id="Shape" fill="#FE5815"></path>
            </g>
            <g id="Group" transform="translate(0.000000, 151.000000)"></g>
        </g>
    </g>
</svg>