<?xml version="1.0" encoding="utf-8"?>
<svg version="1.1" xmlns="http://www.w3.org/2000/svg" xmlns:xlink="http://www.w3.org/1999/xlink" x="0px" y="0px"
    viewBox="0 0 1197.2 169.48" width="1197.2" height="169.48" style="enable-background:new 0 0 1197.2 169.48;" xml:space="preserve">
<style type="text/css">
    .lestilleuls-logo-st0{fill:#EC4D28;}
    .dark-theme .lestilleuls-logo-wordmark-dark { fill: #fff; }
</style>
<g>
    <g>
        <g>
            <path class="lestilleuls-logo-wordmark-dark" d="M385.53,96.15h40v15h-40V96.15z"/>
            <path class="lestilleuls-logo-wordmark-dark" d="M505.53,139.48h-20v-22.26c0-11.99,8.31-21.77,20-24.41L505.53,139.48z"/>
            <path class="lestilleuls-logo-wordmark-dark" d="M745.53,137.09c-3.41,0.99-7.79,1.92-13.17,2.77c-5.37,0.85-11.02,1.28-16.93,1.28c-6,0-10-0.81-13.98-2.44
                c-3.99-1.62-7.14-3.9-9.47-6.83c-2.33-2.93-3.99-6.43-4.97-10.49c-0.99-4.06-1.48-8.53-1.48-13.4V67.82h20v37.75
                c0,6.49,0.85,11.19,2.56,14.07c1.7,2.89,3.89,4.33,8.56,4.33c1.43,0,2.96-0.07,4.58-0.2c1.62-0.13,3.05-0.29,4.31-0.47V67.82h20
                V137.09z"/>
            <g>
                <path class="lestilleuls-logo-st0" d="M1054.11,136.58c-5.77-3.05-10.31-7.4-13.61-13.07c-3.3-5.66-4.96-12.28-4.96-19.86
                    c0-7.49,1.67-14.09,5.02-19.79c3.35-5.71,7.93-10.08,13.75-13.13c5.82-3.05,12.34-4.57,19.56-4.57c7.23,0,13.75,1.52,19.56,4.57
                    c5.82,3.05,10.4,7.43,13.75,13.13c3.35,5.71,5.02,12.3,5.02,19.79c0,7.49-1.7,14.09-5.09,19.79
                    c-3.39,5.71-8.02,10.08-13.88,13.13c-5.86,3.05-12.41,4.57-19.63,4.57C1066.38,141.15,1059.88,139.63,1054.11,136.58z
                     M1084.64,117.11c3.04-3.13,4.56-7.62,4.56-13.46c0-5.84-1.48-10.32-4.43-13.46c-2.95-3.13-6.59-4.7-10.91-4.7
                    c-4.41,0-8.06,1.55-10.97,4.64c-2.91,3.1-4.36,7.6-4.36,13.53c0,5.84,1.43,10.32,4.3,13.46c2.86,3.14,6.45,4.7,10.77,4.7
                    C1077.92,121.81,1081.6,120.25,1084.64,117.11z"/>
            </g>
            <g>
                <path class="lestilleuls-logo-st0" d="M969.11,136.58c-5.77-3.05-10.31-7.4-13.61-13.07c-3.3-5.66-4.96-12.28-4.96-19.86
                    c0-7.49,1.67-14.09,5.02-19.79c3.35-5.71,7.93-10.08,13.75-13.13c5.82-3.05,12.34-4.57,19.56-4.57s13.75,1.52,19.56,4.57
                    c5.82,3.05,10.4,7.43,13.75,13.13c3.35,5.71,5.02,12.3,5.02,19.79c0,7.49-1.7,14.09-5.09,19.79
                    c-3.39,5.71-8.02,10.08-13.88,13.13c-5.86,3.05-12.41,4.57-19.63,4.57C981.38,141.15,974.88,139.63,969.11,136.58z
                     M999.64,117.11c3.04-3.13,4.56-7.62,4.56-13.46c0-5.84-1.48-10.32-4.43-13.46c-2.95-3.13-6.59-4.7-10.91-4.7
                    c-4.41,0-8.06,1.55-10.97,4.64c-2.91,3.1-4.36,7.6-4.36,13.53c0,5.84,1.43,10.32,4.3,13.46c2.86,3.14,6.45,4.7,10.77,4.7
                    C992.92,121.81,996.6,120.25,999.64,117.11z"/>
            </g>
            <path class="lestilleuls-logo-st0" d="M945.13,129.56c-2.09-3.58-3.67-7.44-4.77-11.55c-2.85,2.53-6.21,3.81-10.09,3.81
                c-4.32,0-7.91-1.57-10.77-4.7c-2.86-3.13-4.3-7.62-4.3-13.46c0-5.92,1.45-10.43,4.36-13.53c2.91-3.09,6.56-4.64,10.97-4.64
                c3.84,0,7.13,1.24,9.89,3.72c1.11-4.05,2.7-7.87,4.79-11.43c1.48-2.52,3.16-4.84,5.02-6.98c-0.04-0.02-0.09-0.05-0.13-0.07
                c-5.82-3.05-12.34-4.57-19.56-4.57s-13.75,1.52-19.56,4.57c-5.82,3.05-10.4,7.43-13.75,13.13c-3.35,5.71-5.02,12.3-5.02,19.79
                c0,7.58,1.65,14.2,4.96,19.86c3.3,5.66,7.84,10.02,13.61,13.07c5.77,3.05,12.27,4.57,19.5,4.57c7.22,0,13.77-1.52,19.63-4.57
                c0.06-0.03,0.11-0.07,0.17-0.1C948.25,134.35,946.58,132.05,945.13,129.56z"/>
            <path class="lestilleuls-logo-wordmark-dark" d="M233.87,119.48h-35v-100c-12.51,4.03-20,16.13-20,29.33v90.67h55V119.48z"/>
            <path class="lestilleuls-logo-wordmark-dark" d="M410.53,19.48v20h35v100h20v-100l18.33,0c11.05,0,20-8.95,20-20v0L410.53,19.48z"/>
            <path class="lestilleuls-logo-wordmark-dark" d="M668.01,136.65c-1.08,0.54-2.53,1.08-4.33,1.62c-1.81,0.54-3.81,1.02-6.02,1.42c-2.21,0.41-4.58,0.74-7.1,1.02
                c-2.53,0.27-5.05,0.41-7.58,0.41c-6.41,0-11.98-0.95-16.71-2.84c-4.74-1.89-8.66-4.49-11.77-7.78c-3.11-3.29-5.41-7.19-6.9-11.7
                c-1.49-4.51-2.23-9.38-2.23-14.61c0-6.31,0.97-11.84,2.91-16.58c1.94-4.74,4.49-8.68,7.64-11.84c3.16-3.16,6.79-5.55,10.89-7.17
                c4.1-1.62,8.32-2.44,12.65-2.44c10.1,0,18.09,3.09,23.95,9.27c5.86,6.18,8.8,15.27,8.8,27.27c0,1.17-0.05,2.46-0.14,3.86
                c-0.09,1.4-0.18,2.64-0.27,3.72h-45.74c0.45,4.15,2.39,7.44,5.82,9.88c3.43,2.44,8.03,3.65,13.8,3.65c3.7,0,7.33-0.34,10.89-1.02
                c1.11-0.21,2.17-0.44,3.15-0.68L668.01,136.65z M652.72,96.26c-0.09-1.71-0.39-3.38-0.88-5.01c-0.5-1.63-1.26-3.07-2.3-4.33
                c-1.04-1.26-2.35-2.3-3.92-3.11c-1.58-0.81-3.54-1.22-5.89-1.22c-2.26,0-4.19,0.38-5.82,1.15c-1.62,0.77-2.98,1.78-4.06,3.04
                c-1.08,1.26-1.92,2.73-2.5,4.4c-0.59,1.67-1.02,3.36-1.29,5.07H652.72z"/>
            <path class="lestilleuls-logo-wordmark-dark" d="M371.13,105.81c-1.67-1.84-3.95-3.56-6.83-5.15c-2.89-1.59-6.54-3.21-10.96-4.85c-2.17-0.81-3.95-1.57-5.35-2.25
                c-1.4-0.68-2.5-1.31-3.32-1.9c-0.81-0.59-1.35-1.2-1.62-1.83c-0.27-0.63-0.41-1.35-0.41-2.16c0-3.52,3.16-5.28,9.47-5.28
                c3.43,0,6.52,0.32,9.27,0.95c2.56,0.59,4.93,1.26,7.15,2.01V68.54c-1.61-0.43-3.42-0.84-5.46-1.23
                c-3.97-0.77-8.12-1.15-12.45-1.15c-8.66,0-15.47,1.94-20.43,5.82c-4.96,3.88-7.44,9.16-7.44,15.83c0,3.43,0.49,6.36,1.49,8.79
                c0.99,2.44,2.39,4.53,4.2,6.29c1.8,1.76,3.99,3.27,6.56,4.53c2.57,1.26,5.43,2.48,8.59,3.65c4.06,1.54,7.08,2.91,9.07,4.13
                c1.98,1.22,2.98,2.64,2.98,4.26c0,2.07-0.77,3.47-2.3,4.19c-1.54,0.72-4.15,1.08-7.85,1.08c-3.52,0-7.08-0.38-10.69-1.15
                c-1.91-0.41-3.79-0.89-5.65-1.46l-8.29,14.65c1.62,0.72,4.53,1.62,8.73,2.71c4.19,1.08,9.45,1.62,15.76,1.62
                c9.65,0,17.12-1.8,22.39-5.4c5.28-3.6,7.92-8.91,7.92-15.93c0-2.97-0.34-5.58-1.02-7.83C373.97,109.7,372.8,107.65,371.13,105.81
                z"/>
            <path class="lestilleuls-logo-wordmark-dark" d="M852.67,105.84c-1.67-1.84-3.95-3.56-6.83-5.15c-2.89-1.59-6.54-3.21-10.96-4.85c-2.17-0.81-3.95-1.57-5.35-2.25
                c-1.4-0.68-2.5-1.31-3.32-1.9c-0.81-0.59-1.35-1.2-1.62-1.83c-0.27-0.63-0.41-1.35-0.41-2.16c0-3.52,3.16-5.28,9.47-5.28
                c3.43,0,6.52,0.32,9.27,0.95c2.56,0.59,4.93,1.26,7.15,2.01V68.57c-1.61-0.43-3.42-0.84-5.46-1.23
                c-3.97-0.77-8.12-1.15-12.45-1.15c-8.66,0-15.47,1.94-20.43,5.82c-4.96,3.88-7.44,9.16-7.44,15.83c0,3.43,0.49,6.36,1.49,8.79
                c0.99,2.44,2.39,4.53,4.2,6.29c1.8,1.76,3.99,3.27,6.56,4.53c2.57,1.26,5.43,2.48,8.59,3.65c4.06,1.54,7.08,2.91,9.07,4.13
                c1.98,1.22,2.98,2.64,2.98,4.26c0,2.07-0.77,3.47-2.3,4.19c-1.54,0.72-4.15,1.08-7.85,1.08c-3.52,0-7.08-0.38-10.69-1.15
                c-1.91-0.41-3.79-0.89-5.65-1.46l-8.29,14.65c1.62,0.72,4.53,1.62,8.73,2.71c4.19,1.08,9.45,1.62,15.76,1.62
                c9.65,0,17.12-1.8,22.39-5.4c5.28-3.6,7.92-8.91,7.92-15.93c0-2.97-0.34-5.58-1.02-7.83
                C855.51,109.74,854.34,107.69,852.67,105.84z"/>
            <path class="lestilleuls-logo-wordmark-dark" d="M553.72,141.15c-5.82-0.09-10.54-0.72-14.16-1.88c-3.62-1.16-6.49-2.79-8.59-4.9c-2.1-2.1-3.54-4.65-4.3-7.65
                c-0.76-3-1.14-6.38-1.14-10.13v-77.1h20v73.08c0,1.79,0.13,3.4,0.4,4.83c0.27,1.43,0.78,2.64,1.54,3.62
                c0.76,0.99,1.86,1.79,3.29,2.42c1.43,0.63,3.36,1.03,5.77,1.21L553.72,141.15z"/>
            <path class="lestilleuls-logo-wordmark-dark" d="M593.72,141.15c-5.82-0.09-10.54-0.72-14.16-1.88c-3.62-1.16-6.49-2.79-8.59-4.9c-2.1-2.1-3.54-4.65-4.3-7.65
                c-0.76-3-1.14-6.38-1.14-10.13v-77.1h20v73.08c0,1.79,0.13,3.4,0.4,4.83c0.27,1.43,0.78,2.64,1.54,3.62
                c0.76,0.99,1.86,1.79,3.29,2.42c1.43,0.63,3.36,1.03,5.77,1.21L593.72,141.15z"/>
            <path class="lestilleuls-logo-wordmark-dark" d="M793.72,141.15c-5.82-0.09-10.54-0.72-14.16-1.88c-3.62-1.16-6.49-2.79-8.59-4.9c-2.1-2.1-3.54-4.65-4.3-7.65
                c-0.76-3-1.14-6.38-1.14-10.13v-77.1h20v73.08c0,1.79,0.13,3.4,0.4,4.83c0.27,1.43,0.78,2.64,1.54,3.62
                c0.76,0.99,1.86,1.79,3.29,2.42c1.43,0.63,3.36,1.03,5.77,1.21L793.72,141.15z"/>
            <path class="lestilleuls-logo-st0" d="M507.2,72.82c0,3.8-1.19,6.7-3.58,8.69c-2.38,1.99-5.08,2.98-8.09,2.98s-5.71-0.99-8.09-2.98
                c-2.38-1.99-3.58-4.88-3.58-8.69s1.19-6.7,3.58-8.69c2.38-1.99,5.08-2.98,8.09-2.98s5.71,0.99,8.09,2.98
                C506.01,66.12,507.2,69.01,507.2,72.82z"/>
            <path class="lestilleuls-logo-st0" d="M887.2,129.48c0,3.8-1.19,6.7-3.58,8.69c-2.38,1.99-5.08,2.98-8.09,2.98c-3.01,0-5.71-0.99-8.09-2.98
                c-2.38-1.99-3.58-4.88-3.58-8.69c0-3.8,1.19-6.7,3.58-8.69c2.38-1.99,5.08-2.98,8.09-2.98c3.01,0,5.71,0.99,8.09,2.98
                C886.01,122.78,887.2,125.68,887.2,129.48z"/>
            <path class="lestilleuls-logo-st0" d="M1192.18,83.86c-3.35-5.71-7.93-10.08-13.75-13.13c-5.82-3.05-12.34-4.57-19.56-4.57s-13.75,1.52-19.56,4.57
                c-5.82,3.05-10.4,7.43-13.75,13.13c-3.22,5.49-4.88,11.81-5,18.96h-0.02v66.67h20v-32.21c5.41,2.57,11.43,3.87,18.07,3.87
                c7.22,0,13.77-1.52,19.63-4.57c5.86-3.05,10.49-7.43,13.88-13.13c3.39-5.7,5.09-12.3,5.09-19.79S1195.53,89.56,1192.18,83.86z
                 M1169.64,117.11c-3.04,3.14-6.72,4.7-11.04,4.7c-4.32,0-7.91-1.57-10.77-4.7c-2.86-3.13-4.3-7.62-4.3-13.46
                c0-5.92,1.45-10.43,4.36-13.53c2.91-3.09,6.56-4.64,10.97-4.64c4.32,0,7.95,1.57,10.91,4.7c2.95,3.14,4.43,7.62,4.43,13.46
                C1174.2,109.49,1172.68,113.98,1169.64,117.11z"/>
            <path class="lestilleuls-logo-wordmark-dark" d="M307.26,136.87c-1.08,0.54-2.53,1.08-4.33,1.62c-1.81,0.54-3.81,1.02-6.02,1.42c-2.21,0.41-4.58,0.74-7.1,1.02
                c-2.53,0.27-5.05,0.41-7.58,0.41c-6.41,0-11.98-0.95-16.71-2.84c-4.74-1.89-8.66-4.49-11.77-7.78c-3.11-3.29-5.41-7.19-6.9-11.7
                c-1.49-4.51-2.23-9.38-2.23-14.61c0-6.31,0.97-11.84,2.91-16.58c1.94-4.74,4.49-8.68,7.64-11.84c3.16-3.16,6.79-5.55,10.89-7.17
                c4.1-1.62,8.32-2.44,12.65-2.44c10.1,0,18.09,3.09,23.95,9.27c5.86,6.18,8.8,15.27,8.8,27.27c0,1.17-0.05,2.46-0.14,3.86
                c-0.09,1.4-0.18,2.64-0.27,3.72h-45.74c0.45,4.15,2.39,7.44,5.82,9.88c3.43,2.44,8.03,3.65,13.8,3.65c3.7,0,7.33-0.34,10.89-1.02
                c1.11-0.21,2.17-0.44,3.15-0.68L307.26,136.87z M291.97,96.48c-0.09-1.71-0.39-3.38-0.88-5.01c-0.5-1.63-1.26-3.07-2.3-4.33
                c-1.04-1.26-2.35-2.3-3.92-3.11c-1.58-0.81-3.54-1.22-5.89-1.22c-2.26,0-4.19,0.38-5.82,1.15c-1.62,0.77-2.98,1.78-4.06,3.04
                c-1.08,1.26-1.92,2.73-2.5,4.4c-0.59,1.67-1.02,3.36-1.29,5.07H291.97z"/>
        </g>
        <g>
            <path class="lestilleuls-logo-st0" d="M84.52,75.41C70.6,75.05,59.04,65.02,56.34,51.8c-0.93-0.26-1.82-0.61-2.66-1.06
                c-2.08-1.1-3.71-2.66-4.9-4.7c-1.19-2.04-1.78-4.42-1.78-7.14c0-2.7,0.6-5.07,1.81-7.12c1.2-2.05,2.85-3.63,4.94-4.72
                c2.09-1.1,4.44-1.65,7.04-1.65c2.6,0,4.94,0.55,7.04,1.65c2.09,1.1,3.74,2.67,4.94,4.72c1.2,2.05,1.81,4.42,1.81,7.12
                c0,2.69-0.61,5.07-1.83,7.12c-1.22,2.05-2.88,3.63-4.99,4.72c-0.97,0.5-1.99,0.89-3.07,1.16c2.54,8.68,10.43,15.1,19.84,15.44
                l0-30.84c-0.36-0.15-0.71-0.31-1.05-0.49c-2.08-1.1-3.71-2.66-4.9-4.7c-1.19-2.04-1.78-4.42-1.78-7.14c0-2.69,0.6-5.07,1.81-7.12
                c1.2-2.05,2.85-3.63,4.94-4.72c2.09-1.1,4.44-1.65,7.04-1.65c2.6,0,4.94,0.55,7.04,1.65c2.09,1.1,3.74,2.67,4.94,4.72
                c1.2,2.05,1.81,4.42,1.81,7.12c0,2.7-0.61,5.07-1.83,7.12c-1.22,2.05-2.88,3.63-4.99,4.72c-0.3,0.16-0.6,0.3-0.91,0.43v45
                c9.96-3.92,17.42-12.85,19.24-23.68c-0.8-0.25-1.58-0.57-2.31-0.96c-2.08-1.1-3.71-2.66-4.9-4.7c-1.19-2.04-1.78-4.42-1.78-7.14
                c0-2.7,0.6-5.07,1.81-7.12c1.2-2.05,2.85-3.63,4.94-4.72c2.09-1.1,4.44-1.65,7.04-1.65c2.6,0,4.94,0.55,7.04,1.65
                c2.09,1.1,3.74,2.67,4.94,4.72c1.2,2.05,1.81,4.42,1.81,7.12c0,2.69-0.61,5.07-1.83,7.12c-1.22,2.05-2.88,3.63-4.99,4.72
                c-1.14,0.59-2.35,1.02-3.64,1.29c-2.14,15.16-13.02,27.55-27.36,31.89v11.73c19.05-2.1,35.19-13.96,43.32-30.45V33.7
                c0-18.61-15.09-33.7-33.7-33.7h-44.2C46.19,9.66,35.57,27.13,35.57,47.03c0,24.03,15.48,44.5,36.99,51.98v13.52
                c-28.74-7.92-49.91-34.28-49.91-65.5c0-18.24,7.24-34.81,18.98-47.03H33.7C15.09,0,0,15.09,0,33.7v72.56
                c0,18.61,15.09,33.7,33.7,33.7h50.83V75.41z"/>
            <path class="lestilleuls-logo-st0" d="M126.19,44.95c0-2.1-0.53-3.71-1.59-4.84c-1.06-1.13-2.37-1.69-3.92-1.69c-1.59,0-2.9,0.56-3.95,1.67
                c-1.05,1.11-1.57,2.74-1.57,4.87c0,2.1,0.51,3.71,1.55,4.84c1.03,1.13,2.32,1.69,3.88,1.69c1.55,0,2.88-0.56,3.97-1.69
                C125.64,48.66,126.19,47.05,126.19,44.95z"/>
            <path class="lestilleuls-logo-st0" d="M96.63,114.69l0,25.27h9.63c18.61,0,33.7-15.09,33.7-33.7V93.61C128.86,105.36,113.64,113.18,96.63,114.69z"
                />
            <path class="lestilleuls-logo-st0" d="M60.78,32.36c-1.59,0-2.9,0.56-3.95,1.67c-1.05,1.11-1.57,2.73-1.57,4.87c0,2.1,0.51,3.71,1.55,4.84
                c1.03,1.13,2.32,1.69,3.88,1.69c1.55,0,2.88-0.56,3.97-1.69c1.09-1.13,1.64-2.74,1.64-4.84c0-2.1-0.53-3.71-1.59-4.84
                C63.64,32.92,62.34,32.36,60.78,32.36z"/>
            <path class="lestilleuls-logo-st0" d="M90.58,17.62c-1.59,0-2.9,0.56-3.95,1.67c-1.05,1.11-1.57,2.73-1.57,4.86c0,2.1,0.51,3.71,1.55,4.84
                c1.03,1.13,2.32,1.69,3.88,1.69c1.55,0,2.88-0.56,3.97-1.69c1.09-1.13,1.64-2.74,1.64-4.84c0-2.1-0.53-3.71-1.59-4.84
                C93.44,18.19,92.13,17.62,90.58,17.62z"/>
        </g>
    </g>
</g>
</svg>
