<?xml version="1.0" encoding="utf-8"?>
<!-- Generator: Adobe Illustrator 21.0.2, SVG Export Plug-In . SVG Version: 6.00 Build 0)  -->
<svg version="1.1" id="Layer_1" xmlns="http://www.w3.org/2000/svg" xmlns:xlink="http://www.w3.org/1999/xlink" x="0px" y="0px"
	 viewBox="0 0 641 641" xml:space="preserve">
<style type="text/css">
	.st0{fill:#E0743F;stroke:#E0743F;stroke-width:2.9345;stroke-linecap:round;stroke-linejoin:round;stroke-miterlimit:10;}
	.st1{fill:#C15934;stroke:#C15934;stroke-width:2.9345;stroke-linecap:round;stroke-linejoin:round;stroke-miterlimit:10;}
	.st2{fill:#C15934;}
	.st3{fill:#E58B59;stroke:#E58B59;stroke-width:2.9345;stroke-linecap:round;stroke-linejoin:round;stroke-miterlimit:10;}
</style>
<g>
	<path class="st0" d="M494.4,266.6V310c0,2.2,2.3,3.6,4.3,2.6l40.8-21.7c2.1-1.1,2.1-4,0-5.1l-40.8-21.7
		C496.8,263,494.4,264.4,494.4,266.6z"/>
	<path class="st1" d="M233.8,418.1V265.2l3.4-0.8l27.7,12.8V423h-26.2C235.9,423,233.8,420.8,233.8,418.1z"/>
	<path class="st0" d="M60.7,250.5C60.5,251,81.5,212,81.5,212l28.7,32.7L60.7,250.5z"/>
	<path class="st1" d="M383.6,106.5h24.1c1.4,0,2.9,0.4,4.1,1.2l83.2,54.6c2.1,1.4,3.3,3.7,3.3,6.2v261.2c0,4.1-3.3,7.4-7.4,7.4
		h-49.6c-2,0-3.9-0.8-5.2-2.2l-51.5-51.5l103.2-155.6c2.4-3.6,1.2-8.5-2.6-10.6l-64.1-35.8c-2.3-1.3-3.8-3.8-3.8-6.5v-28.5
		c0-1.8-0.7-3.6-1.9-5L383.6,106.5z"/>
	<path class="st0" d="M269.3,437.2h72c1.6,0,3.1-0.8,4-2.1l143.9-209.4c1.6-2.4,0.9-5.6-1.6-7l-70.2-39.2v92.3
		c0,2.7-2.2,4.9-4.8,4.9l-147.7,0.7v155.4C264.8,435.2,266.8,437.2,269.3,437.2z"/>
	<g>
		<path class="st2" d="M246.8,89.9c-0.7,0-1.3-0.5-1.4-1.1c-0.2-0.7,0.1-1.3,0.7-1.7l83-44.5c0.2-0.1,0.5-0.2,0.7-0.2
			c0.3,0,0.5,0.1,0.8,0.2c0.4,0.3,0.7,0.7,0.7,1.3v44.5c0,0.8-0.7,1.5-1.5,1.5H246.8z"/>
		<path class="st2" d="M329.8,43.9v44.5h-83L329.8,43.9 M329.8,40.9c-0.5,0-1,0.1-1.4,0.3l-83,44.5c-1.2,0.6-1.8,2-1.5,3.3
			c0.3,1.3,1.5,2.2,2.8,2.2h83c1.6,0,2.9-1.3,2.9-2.9V43.9c0-1-0.5-2-1.4-2.5C330.9,41.1,330.4,40.9,329.8,40.9L329.8,40.9z"/>
	</g>
	<polygon class="st1" points="81.4,211.9 143,204.2 174.4,234.1 173,242.2 145.5,285.1 	"/>
	<path class="st0" d="M146,285.4l27-43.2l19-110c0.4-2.2,1.5-4.1,3.3-5.5l49.3-39h94.8c1.1,0,2.3,0.2,3.3,0.7l40.9,18.2L264.8,277.3
		l-27.7-12.8L146,285.4z"/>
	<path class="st3" d="M417.3,271.7V146.8c0-2-0.8-4-2.1-5.5l-31.6-34.8L264.8,277.3l147.7-0.7C415.1,276.6,417.3,274.4,417.3,271.7z
		"/>
</g>
<g>
	<path class="st2" d="M205.1,481.9c1,0,2,0,3.1,0.1c3.9,0.2,7.4,1.1,9.8,4.5c0.8,1.1,2,3.3,2,6.8c0,1.7-0.3,5.4-3.4,8.4
		c-2.9,2.9-6.9,2.9-10.8,2.9h-2.6v13.9h-7.9v-36.5H205.1z M203.3,497.9h3.2c1,0,1.8,0,2.6-0.3c2.9-0.8,3.2-3.4,3.2-4.3
		c0-3.1-2-4.2-3.2-4.5c-0.6-0.1-1.2-0.2-2.5-0.2h-3.3V497.9z"/>
	<path class="st2" d="M250,481.9c1,0,1.9,0,2.9,0.1c3.9,0.2,7.8,1,10.1,4.7c1.6,2.4,1.7,5.1,1.7,6.1c0,3.3-1.3,6.9-4.2,8.7
		c-1,0.7-1.8,0.9-4,1.4l10.6,15.5h-9.4l-9.7-15.4v15.4h-7.7v-36.5H250z M247.9,497.9h2.8c2.1-0.1,4.2-0.2,5.4-2.3
		c0.3-0.5,0.7-1.3,0.7-2.6c0-0.5-0.1-1.9-1-3c-1.3-1.6-3.3-1.7-5.2-1.8h-2.7V497.9z"/>
	<path class="st2" d="M295.2,518.5h-8v-36.5h8V518.5z"/>
	<path class="st2" d="M323.9,481.9l7.1,21c0.5,1.6,1,3.2,1.4,4.8c0.3,0.9,0.4,1.9,0.6,2.8c0.6-2.1,1.1-4.2,1.8-6.3
		c0.5-1.4,0.9-2.8,1.4-4.2l6.1-18.2h8.6l-14.3,36.5h-7.7l-13.7-36.5H323.9z"/>
	<path class="st2" d="M386.1,481.9l15,36.5h-8.6l-2.8-7.4h-15.2l-2.7,7.4h-8.5l14.3-36.5H386.1z M387,504.2c-0.9-2.5-1.8-5-2.7-7.4
		c-1.7-4.7-2-5.9-2.4-8.4c-0.1,0.7-0.2,1.5-0.4,2.2c-0.4,1.8-1.4,4.7-2.1,6.5c-0.8,2.4-1.7,4.8-2.5,7.1H387z"/>
	<path class="st2" d="M437.9,481.9v7H430v29.5h-7.9v-29.4h-7.8v-7.1H437.9z"/>
	<path class="st2" d="M479.2,481.9v7.1h-12.8v7.2h12.5v7.1h-12.5v7.8h12.8v7.3h-20.7v-36.5H479.2z"/>
	<path class="st2" d="M148.4,544c1,0,2,0,3.1,0.1c3.9,0.2,7.4,1.1,9.8,4.5c0.8,1.1,2,3.3,2,6.8c0,1.7-0.3,5.4-3.4,8.4
		c-2.9,2.9-6.9,2.9-10.8,2.9h-2.6v13.9h-7.9V544H148.4z M146.5,560h3.2c1,0,1.8,0,2.6-0.3c2.9-0.8,3.2-3.4,3.2-4.3
		c0-3.1-2-4.2-3.2-4.5c-0.6-0.1-1.2-0.2-2.5-0.2h-3.3V560z"/>
	<path class="st2" d="M199.8,544l15,36.5h-8.6l-2.8-7.4h-15.2l-2.7,7.4h-8.5l14.3-36.5H199.8z M200.8,566.3c-0.9-2.5-1.8-5-2.7-7.4
		c-1.7-4.7-2-5.9-2.4-8.4c-0.1,0.7-0.2,1.5-0.4,2.2c-0.4,1.8-1.4,4.7-2.1,6.5c-0.8,2.4-1.7,4.8-2.5,7.1H200.8z"/>
	<path class="st2" d="M260.3,554.6c-1.3-1.1-4.7-4.1-9.8-4.1c-0.9,0-3.1,0.1-5.2,1.2c-2.2,1.2-5.6,4.5-5.6,10.8
		c0,0.8,0.1,2.5,0.7,4.6c0.8,2.4,3.3,7.1,10.2,7.1c0.5,0,1.4,0,2.7-0.3c0.9-0.2,3.3-0.9,5.1-2.2c0.6-0.4,1.2-0.9,1.8-1.3l-0.1,8.5
		c-1.7,0.7-5.4,2.4-10.5,2.4c-1.8,0-7.1-0.2-11.5-3.9c-2.4-2-6.6-6.9-6.6-15.2c0-3.3,0.7-7,2.2-10c0.4-0.8,1.1-2.1,2.6-3.6
		c1.7-1.9,3.7-3.4,6.1-4.3c2.9-1.1,5.9-1.2,6.9-1.2c1.2,0,4.5,0.2,7.9,1.3c1,0.4,2,0.8,2.9,1.2V554.6z"/>
	<path class="st2" d="M292.1,560.5l12.3-16.5h9.5l-13.8,17.4l14.3,19.1h-10l-12.3-17v17h-8V544h8V560.5z"/>
	<path class="st2" d="M354,544l15,36.5h-8.6l-2.8-7.4h-15.2l-2.7,7.4h-8.5l14.3-36.5H354z M355,566.3c-0.9-2.5-1.8-5-2.7-7.4
		c-1.7-4.7-2-5.9-2.4-8.4c-0.1,0.7-0.2,1.5-0.4,2.2c-0.4,1.8-1.4,4.7-2.1,6.5c-0.8,2.4-1.7,4.8-2.5,7.1H355z"/>
	<path class="st2" d="M414.2,555.1c-0.3-0.4-0.6-0.9-1.3-1.6c-1.2-1.1-3.9-3.2-8.3-3.2c-2.6,0-4.9,0.8-7,2.5
		c-3.8,3.2-3.9,7.6-3.9,9.2c0,1.2,0,4.4,2,7.5c1.1,1.6,3.8,4.8,9.1,4.8c4.5,0,7-2.3,8.1-3.6c0.7-0.9,1.1-1.8,1.6-2.7h-9.7V561
		l18.3,0.1c0,2.1,0.2,7.9-3.6,13c-4.9,6.7-12.2,7.2-15,7.2c-1.4,0-3.1-0.2-4.5-0.5c-2.4-0.5-7.2-1.9-10.9-7.2
		c-1.4-2-3.3-5.5-3.3-11.4c0-2.4,0.3-4,0.5-5c0.3-1.4,1.4-5.1,4.2-8.3c0.4-0.4,1.4-1.4,2.7-2.4c3.4-2.5,7.2-3.5,11.4-3.5
		c5.6,0,9.1,1.9,11,3.2c1.7,1.1,2.8,2.3,3.3,2.8c0.8,0.9,1.1,1.3,1.7,2.3L414.2,555.1z"/>
	<path class="st2" d="M452.7,580.5h-8V544h8V580.5z"/>
	<path class="st2" d="M492.2,553.6c-0.4-0.6-2.3-3.5-5.4-3.5c-2,0-3.8,1.3-3.8,3.4c0.1,2.8,3.5,4.1,5.2,5c3.5,1.5,4.5,2.1,6,3.3
		c1.4,1.2,3.5,3.4,3.5,7.8c0,4.6-2.2,7.1-3.5,8.3c-0.4,0.4-1.3,1.2-2.6,1.9c-2.7,1.4-5.7,1.6-6.7,1.6c-0.8,0-3.7-0.1-6.2-1
		c-2.9-1.1-5.2-3.5-5.8-4.1l5.3-5.8c1.7,1.9,3.8,4.2,6.8,4.2c2.4,0,4.5-1.8,4.5-4.2c0-0.8-0.2-1.4-0.6-2.1c-1-1.5-3.4-2.5-4.8-3.1
		c-1.9-0.9-3.7-1.9-5.3-3.2c-1.3-1-4-3.6-4-8.2c0-3.1,1.2-5.1,1.9-6c3.2-4.6,8.3-4.9,10.1-4.9c0.8,0,3.5,0.2,6,1.3
		c2.4,1.1,4,3,4.6,3.6L492.2,553.6z"/>
	<path class="st2" d="M537.4,544v7h-7.8v29.5h-7.9v-29.4h-7.8V544H537.4z"/>
</g>
</svg>
