<?xml version="1.0" encoding="UTF-8" standalone="no"?>
<!DOCTYPE svg PUBLIC "-//W3C//DTD SVG 1.1//EN" "http://www.w3.org/Graphics/SVG/1.1/DTD/svg11.dtd">
<svg width="100%" height="100%" viewBox="0 0 268 214" version="1.1" xmlns="http://www.w3.org/2000/svg" xmlns:xlink="http://www.w3.org/1999/xlink" xml:space="preserve" xmlns:serif="http://www.serif.com/" style="fill-rule:evenodd;clip-rule:evenodd;stroke-linejoin:round;stroke-miterlimit:1.41421;">
    <g id="Calque-6" serif:id="Calque 6">
        <g transform="matrix(1,0,0,1,155.143,37.4175)">
            <path d="M0,151.123C-0.025,151.149 -0.077,151.181 -0.072,151.201C-0.061,151.256 -0.025,151.306 0,151.358C0.026,151.332 0.077,151.3 0.072,151.281C0.061,151.226 0.026,151.175 0,151.123M3.318,158.072C3.47,157.908 3.602,157.811 3.587,157.771C3.546,157.66 3.454,157.558 3.356,157.487C3.334,157.471 3.148,157.597 3.149,157.657C3.15,157.768 3.232,157.877 3.318,158.072M-3.367,153.005C-3.172,152.925 -2.938,152.891 -2.799,152.755C-2.693,152.652 -2.688,152.422 -2.683,152.248C-2.682,152.188 -2.863,152.06 -2.888,152.076C-2.985,152.142 -3.056,152.251 -3.135,152.346C-3.252,152.486 -3.369,152.626 -3.48,152.77C-3.517,152.816 -3.532,152.876 -3.558,152.93C-3.493,152.956 -3.429,152.981 -3.367,153.005M-13.617,94.598C-14.379,94.552 -15.036,94.73 -15.541,95.339C-16.048,95.951 -16.25,96.695 -16.364,97.453C-16.532,98.567 -16.056,99.557 -15.676,100.559C-15.556,100.874 -15.343,100.999 -14.988,101.018C-14.15,101.06 -13.401,100.818 -12.674,100.437C-11.994,100.081 -11.46,99.577 -11.14,98.873C-10.809,98.144 -10.735,97.269 -11.047,96.541C-11.342,95.852 -11.543,95.029 -12.409,94.795C-12.801,94.689 -13.214,94.662 -13.617,94.598M-21.947,94.65C-21.947,94.152 -21.931,93.759 -21.95,93.368C-22.001,92.378 -22.416,91.565 -23.177,90.947C-23.334,90.82 -23.558,90.82 -23.569,91.116C-23.592,91.694 -23.867,92.202 -24.32,92.427C-24.956,92.744 -25.528,93.212 -26.306,93.268C-26.784,93.302 -27.283,93.538 -27.702,93.8C-28.409,94.243 -28.381,94.544 -27.686,95.123C-27.631,95.168 -27.556,95.203 -27.524,95.261C-26.958,96.291 -26.207,97.193 -25.636,98.228C-24.95,99.471 -24.105,100.641 -22.84,101.389C-22.75,101.442 -22.608,101.498 -22.535,101.461C-22.464,101.426 -22.425,101.275 -22.416,101.171C-22.325,100.146 -22.616,99.091 -22.18,98.093C-22.329,96.894 -21.785,95.743 -21.947,94.65M-81.867,31.593L-81.867,31.357C-80.999,30.677 -80.085,30.061 -79.082,29.613C-78.491,29.349 -77.904,29.083 -77.322,28.802C-76.9,28.599 -76.748,28.406 -76.751,27.974C-76.753,27.65 -76.769,27.377 -77.061,27.154C-77.336,26.943 -77.563,26.666 -77.805,26.413C-78.244,25.952 -78.251,24.991 -77.932,24.414C-77.194,23.085 -76.078,22.102 -75.049,21.037C-74.499,20.467 -73.835,20.051 -73.208,19.582C-72.094,18.749 -70.875,18.101 -69.644,17.495C-68.199,16.783 -66.765,16.047 -65.229,15.509C-64.159,15.134 -63.091,14.687 -62.06,14.181C-61.654,13.982 -61.305,13.787 -61.419,13.199C-61.581,12.359 -61.393,11.51 -61.134,10.735C-60.545,8.976 -59.617,7.384 -58.36,6.022C-56.313,3.805 -53.997,1.847 -52.128,-0.543C-51.452,-1.408 -50.84,-2.326 -50.528,-3.398C-50.458,-3.635 -50.396,-3.683 -50.17,-3.71C-49.052,-3.847 -47.986,-4.109 -46.924,-4.569C-45.85,-5.034 -44.628,-5.199 -43.492,-4.489C-43.274,-4.354 -42.885,-4.17 -42.85,-4.731C-42.13,-5.507 -41.399,-6.244 -40.454,-6.776C-38.592,-7.826 -36.585,-8.244 -34.5,-8.404C-34.192,-8.428 -33.82,-8.297 -33.583,-8.43C-33.075,-8.716 -32.555,-8.667 -32.043,-8.628C-31.5,-8.587 -31.021,-8.797 -30.512,-8.873C-29.777,-8.982 -28.994,-8.938 -28.316,-9.191C-27.891,-9.351 -27.814,-9.095 -27.773,-8.95C-27.643,-8.488 -27.639,-7.99 -27.512,-7.526C-27.304,-6.767 -27.031,-6.062 -26.185,-5.74C-25.45,-5.461 -24.781,-5.531 -24.362,-6.079C-23.637,-7.026 -22.556,-9.432 -22.442,-10.675C-22.401,-11.123 -22.197,-11.249 -21.91,-11.379C-20.987,-11.798 -19.643,-11.756 -18.535,-11.485C-17.412,-11.21 -16.65,-10.484 -15.909,-9.686C-15.968,-9.307 -15.706,-9.32 -15.478,-9.354C-15.081,-9.413 -14.692,-9.526 -14.295,-9.58C-13.594,-9.674 -12.804,-9.566 -12.208,-9.865C-11.527,-10.207 -10.837,-9.943 -10.147,-10.23C-9.486,-10.506 -8.624,-10.29 -7.85,-10.29C-7.076,-10.29 -6.302,-10.285 -5.527,-10.291C-4.482,-10.299 -3.478,-10.088 -2.466,-9.832C-0.163,-9.25 0.951,-8.835 3.06,-7.717C3.397,-7.538 3.521,-7.37 3.636,-7.003C3.75,-6.635 3.858,-6.289 3.828,-5.913C3.773,-5.251 4.075,-4.686 4.311,-4.113C4.435,-3.814 4.64,-3.487 5.084,-3.873C5.234,-4.003 5.61,-3.967 5.841,-3.884C6.7,-3.578 7.606,-3.487 8.482,-3.254C8.912,-3.14 9.081,-3.021 9.196,-2.561C9.507,-1.325 10.397,-0.496 11.474,0.039C12.269,0.434 13.143,0.687 13.985,0.989C14.771,1.271 14.793,1.106 14.738,1.962C14.67,3.046 14.797,4.062 15.443,4.965C15.768,5.416 16.026,5.93 16.412,6.316C17.443,7.347 18.541,8.309 19.586,9.326C20.428,10.147 21.221,11.405 21.449,12.534C21.539,12.982 21.654,13.016 22.009,13.01C23.093,12.994 24.176,13.011 25.26,12.999C25.531,12.997 25.576,13.104 25.696,13.355C26.294,14.602 27.229,15.544 28.351,16.358C29.091,16.895 29.769,17.599 30.28,18.361C30.859,19.224 31.151,20.254 31.004,21.343C30.934,21.862 31.077,22.333 31.413,22.697C32.1,23.442 32.756,24.248 33.562,24.838C34.346,25.413 34.943,26.156 35.665,26.775C35.915,26.989 35.966,27.26 35.847,27.495C35.431,28.311 35.539,29.222 35.704,29.99C35.944,31.108 35.92,32.148 35.646,33.218C35.505,33.774 35.516,34.158 35.835,34.471C36.124,34.756 36.446,35.039 36.806,35.213C37.34,35.471 37.688,35.92 38.098,36.309C38.279,36.481 38.191,36.615 38.073,36.798C37.696,37.38 37.372,37.998 36.994,38.578C36.292,39.653 36.033,40.875 35.907,42.115C35.853,42.648 35.949,43.275 36.193,43.743C36.491,44.313 36.183,44.365 35.825,44.539C34.639,45.117 33.624,45.933 32.728,46.905C32.23,47.444 32.24,47.901 32.813,48.354C33.036,48.53 33.317,48.629 33.569,48.77C33.941,48.978 34.181,49.364 34.014,49.565C33.774,49.853 33.534,49.657 33.235,49.532C32.328,49.154 31.394,49.043 30.527,49.709C29.568,50.446 28.659,51.258 27.522,51.731C27.4,51.782 27.261,52.086 27.306,52.202C27.604,52.96 27.604,53.932 28.608,54.223C29.009,54.759 29.728,54.489 30.208,54.87C30.353,54.983 30.66,54.875 30.892,54.889C32.137,54.963 33.382,55.044 34.627,55.122C34.666,55.124 34.709,55.11 34.742,55.124C34.94,55.209 35.182,55.255 35.316,55.402C35.42,55.515 35.418,55.757 35.412,55.939C35.393,56.556 35.599,57.094 35.873,57.632C36.089,58.056 36.34,58.284 36.821,58.459C37.353,58.653 37.851,58.633 38.366,58.643C38.761,58.649 38.691,58.911 38.66,59.118C38.622,59.366 38.376,59.686 38.461,59.831C38.828,60.455 38.59,61.114 38.672,61.747C38.749,62.338 38.697,63.021 38.98,63.491C39.32,64.053 38.926,64.021 38.681,64.163C38.559,64.232 38.403,64.241 38.274,64.301C37.634,64.601 36.907,64.522 36.262,64.776C35.796,64.959 35.331,65.165 34.904,65.427C34.618,65.602 34.631,66.015 34.891,66.178C36.196,66.994 37.192,68.161 38.302,69.204C39.281,70.126 39.702,71.721 39.043,73.215C38.722,73.941 38.454,74.183 37.748,73.915C36.99,73.626 36.248,73.814 35.512,73.701C34.899,73.607 34.473,74.013 33.965,74.194C33.877,74.226 33.817,74.422 33.798,74.551C33.711,75.114 34.043,75.614 34.327,75.959C35.009,76.788 34.968,77.709 34.944,78.65C34.934,79.058 34.553,79.407 34.172,79.347C33.247,79.199 32.366,79.496 31.486,79.639C30.982,79.721 30.408,79.786 29.933,80.068C29.68,80.218 29.431,80.389 29.229,80.6C29.181,80.651 29.388,80.901 29.369,81.045C29.244,82.003 29.996,82.956 29.38,83.911C29.365,85.28 28.66,86.304 27.762,87.231C27.572,87.427 27.359,87.604 27.191,87.817C26.651,88.497 26.683,88.967 27.283,89.587C27.474,89.783 27.67,89.972 27.857,90.17C28.475,90.821 28.369,91.323 27.524,91.705C27.16,91.869 26.781,91.935 26.467,92.27C26.086,92.676 25.999,92.864 26.415,93.173C26.589,93.302 26.825,93.361 26.967,93.515C27.684,94.297 28.568,94.832 29.465,95.365C29.999,95.682 30.51,96.046 31.002,96.428C31.265,96.631 31.642,96.895 31.454,97.277C31.054,98.097 31.214,98.956 31.28,99.772C31.319,100.258 31.317,100.375 30.861,100.598C29.343,101.34 28.001,102.357 26.886,103.654C26.769,103.791 26.613,103.959 26.605,104.119C26.571,104.837 26.55,105.528 27.104,106.149C27.529,106.627 27.837,107.242 28.087,107.844C28.239,108.211 28.31,108.715 28.18,109.068C28.063,109.386 28.018,109.939 27.453,109.946C26.582,110.656 25.699,111.351 24.844,112.079C24.035,112.766 23.389,113.582 23.03,114.609C22.899,114.985 22.658,115.185 22.217,115.133C21.797,115.085 21.278,114.97 20.961,115.158C20.469,115.45 19.999,115.284 19.527,115.359C19.056,115.434 18.587,115.531 18.113,115.59C17.373,115.682 16.579,115.615 15.905,115.875C15.435,116.057 14.962,115.963 14.515,116.164C14.006,116.391 13.976,116.353 13.73,115.852C13.441,115.263 13.004,114.723 13.117,113.99C13.16,113.714 12.93,113.62 12.765,113.739C12.075,114.238 11.231,114.157 10.474,114.383C9.904,114.554 9.243,114.386 8.626,114.426C8.036,114.463 7.453,114.608 6.863,114.643C6.208,114.683 5.547,114.629 4.891,114.661C4.492,114.68 4.118,114.631 3.689,114.848C3.077,115.158 2.609,114.867 2.301,114.143C1.989,113.412 1.742,112.649 1.521,111.884C1.386,111.421 1.196,111.171 0.815,111.381C0.225,111.708 -0.378,111.624 -0.957,111.571C-1.817,111.492 -2.714,111.26 -3.376,110.714C-4.265,109.981 -5.09,109.158 -5.492,107.971C-5.655,107.491 -5.701,107.195 -5.48,106.73C-5.141,106.014 -4.703,105.302 -4.761,104.446C-4.318,104.029 -4.731,103.413 -4.495,103.036C-4.253,102.648 -4.359,102.298 -4.295,101.935C-4.225,101.535 -4.075,101.137 -4.079,100.739C-4.086,100.086 -3.849,99.498 -3.704,98.888C-3.562,98.286 -3.856,97.801 -4.445,97.979C-5.044,98.16 -5.655,98.047 -6.21,98.206C-7.577,98.598 -8.838,99.252 -9.909,100.224C-11.561,101.722 -12.354,103.109 -13.273,105.046C-13.63,105.797 -13.984,106.553 -14.273,107.332C-14.577,108.151 -14.673,109.032 -14.953,109.869C-15.175,110.53 -15.014,111.339 -15.286,111.965C-15.587,112.655 -15.318,113.364 -15.631,114.059C-15.864,114.578 -15.646,115.294 -15.686,115.919C-15.723,116.516 -15.847,117.108 -15.902,117.705C-15.936,118.055 -15.939,118.414 -15.9,118.762C-15.86,119.126 -15.701,119.48 -15.686,119.842C-15.593,121.887 -15.696,123.929 -15.486,125.984C-15.203,128.756 -15.556,131.557 -15.252,134.356C-14.956,137.087 -15.412,139.86 -15,142.61C-14.802,143.932 -15.05,145.281 -14.789,146.635C-14.561,147.821 -14.837,149.08 -14.532,150.298C-14.388,150.873 -14.671,151.525 -14.283,152.079C-14.343,153.259 -13.993,154.384 -13.809,155.529C-13.676,156.356 -13.47,157.174 -13.119,157.942C-13.086,158.016 -13.014,158.072 -12.96,158.135C-12.937,158.067 -12.9,157.999 -12.892,157.929C-12.824,157.353 -13.002,156.814 -13.11,156.26C-13.181,155.897 -13.104,155.536 -13.33,155.168C-13.509,154.878 -13.352,154.469 -13.521,154.076C-13.777,153.484 -13.434,152.748 -13.75,152.113C-13.389,151.578 -13.614,150.98 -13.603,150.417C-13.59,149.805 -13.324,149.259 -13.325,148.632C-13.328,147.576 -13.079,146.571 -12.2,145.815C-11.523,145.234 -10.92,144.562 -10.308,143.908C-10.056,143.64 -9.832,143.331 -9.654,143.007C-9.49,142.707 -9.721,142.493 -10.109,142.539C-10.189,142.548 -10.327,142.55 -10.348,142.51C-10.661,141.876 -11.261,141.486 -11.649,140.933C-11.955,140.497 -12.1,139.992 -11.757,139.386C-11.463,138.865 -11.367,138.207 -11.277,137.596C-11.167,136.847 -10.892,136.581 -10.116,136.52C-9.775,136.494 -9.242,136.847 -9.121,136.144C-9.114,136.103 -8.852,136.045 -8.831,136.077C-8.45,136.666 -8.097,135.841 -7.732,136.064C-7.671,135.947 -7.587,135.836 -7.552,135.711C-7.436,135.3 -7.323,135.235 -7.075,135.495C-6.898,135.68 -6.775,135.918 -6.615,136.121C-6.556,136.197 -6.415,136.31 -6.382,136.29C-5.827,135.941 -5.329,135.919 -4.907,136.5C-4.9,136.51 -4.854,136.485 -4.827,136.485C-4.313,136.493 -4.327,136.494 -4.286,136.95C-4.276,137.053 -4.148,137.2 -4.047,137.23C-3.7,137.335 -3.339,137.467 -2.985,137.457C-2.618,137.447 -2.542,137.64 -2.344,137.883C-1.866,138.467 -1.822,138.434 -2.456,138.79C-3.185,139.199 -4.088,139.478 -3.832,140.641C-4.103,140.818 -3.971,141.167 -4.093,141.349C-4.318,141.685 -4.395,141.919 -4.12,142.258C-3.913,142.514 -4.189,142.77 -4.349,142.798C-4.894,142.893 -4.955,143.4 -5.221,143.727C-5.309,143.835 -5.321,144.002 -5.402,144.118C-5.519,144.285 -5.655,144.368 -5.88,144.234C-6.495,143.866 -7.024,143.998 -7.465,144.563C-7.584,144.717 -7.767,144.824 -7.863,144.987C-7.953,145.138 -8.039,145.354 -7.999,145.508C-7.861,146.033 -7.66,146.541 -7.497,147.06C-7.318,147.626 -6.959,148.09 -6.684,148.602C-6.532,148.884 -6.469,149.219 -6.39,149.536C-6.204,150.274 -6.699,150.797 -7.111,151.214C-7.567,151.677 -7.096,151.909 -7.028,152.206C-6.953,152.534 -6.536,152.679 -6.272,152.509C-5.566,152.053 -4.735,151.935 -4.009,151.483C-3.071,150.901 -2.091,150.201 -0.853,150.412C-0.712,150.436 -0.554,150.399 -0.411,150.36C0.452,150.123 0.728,150.21 1.413,150.895C1.532,151.014 1.743,151.126 1.896,151.108C2.289,151.061 2.686,150.974 3.058,150.835C3.401,150.707 3.272,150.288 3.408,150.054C3.941,149.135 4.261,148.135 4.624,147.149C4.887,146.435 5.466,146.036 6.106,145.717C6.157,145.691 6.251,145.732 6.313,145.765C6.329,145.774 6.312,145.873 6.291,145.924C6.074,146.46 5.864,147 5.634,147.53C5.244,148.426 4.815,149.3 4.518,150.239C4.123,151.487 3.966,151.567 2.6,151.591C2.289,151.596 1.933,151.543 1.819,151.903C1.784,152.016 2.13,152.211 2.168,152.397C2.265,152.866 2.63,153.103 2.932,153.367C3.576,153.929 4.273,154.43 4.946,154.958C5.65,155.511 6.332,156.095 7.06,156.612C7.559,156.967 8.107,157.257 8.656,157.531C9.434,157.918 10.009,157.8 10.562,157.158C10.727,156.967 10.83,156.982 11.023,157.1C11.171,157.19 11.383,157.262 11.542,157.228C11.926,157.145 12.289,156.957 12.674,156.885C13.028,156.818 13.4,156.847 13.765,156.833C13.746,157.202 13.799,157.595 13.691,157.935C13.54,158.414 13.486,158.962 13.052,159.311C12.509,159.748 11.898,160.067 11.3,160.415C10.853,160.674 10.29,160.288 9.922,160.762C9.903,160.786 9.72,160.708 9.637,160.645C9.28,160.375 8.922,160.105 8.585,159.811C8.433,159.678 8.341,159.55 8.165,159.783C8.025,159.969 7.865,160.157 7.674,160.279C7.035,160.689 6.417,161.197 5.629,161.229C4.509,161.275 3.385,161.231 2.263,161.248C1.97,161.252 1.789,161.114 1.56,160.962C0.905,160.531 0.861,159.795 1.096,159.311C1.373,158.741 1.074,158.473 0.872,158.144C0.504,157.545 -0.019,157.031 -0.315,156.403C-0.484,156.046 -0.511,155.967 -0.828,156.192C-1.546,156.702 -2.274,157.196 -3.001,157.692C-3.454,158.001 -3.931,158.278 -4.363,158.614C-4.901,159.031 -4.866,159.079 -4.207,159.367C-3.812,159.539 -3.475,159.884 -3.07,159.986C-2.413,160.153 -2.416,160.855 -1.981,161.183C-1.959,161.2 -2.04,161.455 -2.092,161.462C-2.32,161.495 -2.555,161.476 -2.787,161.476C-4.103,161.476 -5.42,161.45 -6.734,161.483C-8.021,161.516 -9.298,161.42 -10.594,161.674C-11.807,161.911 -13.075,161.638 -14.329,161.915C-15.348,162.139 -16.419,161.918 -17.486,162.139C-18.579,162.364 -19.733,162.171 -20.87,162.384C-22.051,162.605 -23.279,162.305 -24.492,162.623C-25.273,162.828 -26.152,162.5 -26.942,162.888L-31.819,162.888C-31.896,162.888 -32.01,162.921 -32.045,162.882C-32.462,162.417 -32.995,162.742 -33.465,162.654C-33.935,162.568 -34.407,162.434 -34.878,162.43C-36.012,162.421 -37.05,162.183 -37.982,161.484C-38.587,161.031 -38.617,160.981 -37.973,160.66C-37.686,160.516 -37.375,160.418 -37.075,160.3C-35.861,159.819 -34.57,159.761 -33.299,159.601C-32.918,159.553 -32.458,159.726 -32.154,159.564C-31.635,159.288 -31.116,159.33 -30.611,159.379C-30.059,159.434 -29.597,159.151 -29.08,159.125C-27.864,159.063 -26.69,158.813 -25.531,158.435C-25.241,158.341 -25.058,158.228 -24.969,157.964C-24.729,157.241 -24.418,156.528 -24.288,155.784C-24.058,154.469 -23.538,153.207 -23.573,151.844C-23.201,151.331 -23.511,150.681 -23.306,150.192C-23.065,149.617 -23.156,149.07 -23.109,148.51C-23.103,148.432 -23.141,148.327 -23.104,148.279C-22.734,147.802 -22.849,147.239 -22.896,146.727C-22.948,146.168 -22.67,145.699 -22.646,145.175C-22.592,143.913 -22.635,142.657 -22.452,141.385C-22.206,139.677 -22.466,137.932 -22.226,136.188C-22.008,134.611 -22.11,132.975 -22.199,131.373C-22.287,129.779 -21.912,128.228 -21.94,126.645C-21.971,124.881 -21.918,123.116 -21.955,121.352C-21.992,119.619 -21.785,117.879 -22.163,116.152C-22.323,115.42 -22.216,114.658 -22.361,113.89C-22.554,112.871 -22.659,111.827 -22.849,110.796C-22.922,110.394 -23.11,109.984 -23.078,109.607C-23.036,109.114 -23.337,108.748 -23.354,108.29C-23.369,107.89 -23.443,107.473 -23.582,107.097C-24.308,105.128 -24.894,103.103 -25.813,101.211C-26.13,100.558 -26.448,99.9 -26.832,99.287C-27.726,97.863 -28.653,96.461 -29.826,95.244C-30.093,94.966 -30.365,94.889 -30.729,94.877C-31.628,94.848 -32.546,95.05 -33.424,94.663C-33.587,94.59 -33.814,94.621 -33.998,94.665C-34.099,94.689 -34.251,94.847 -34.244,94.931C-34.176,95.665 -34.444,96.332 -34.618,97.016C-35,98.52 -35.919,99.724 -36.844,100.9C-37.956,102.313 -39.471,103.267 -40.917,104.28C-41.145,104.439 -41.526,104.744 -41.825,104.483C-42.149,104.201 -42.478,104.33 -42.803,104.307C-43.227,104.276 -43.717,104.437 -44.068,104.274C-45.196,103.747 -46.283,104.165 -47.368,104.32C-48.233,104.444 -49.061,105.352 -49.353,106.246C-49.544,106.833 -49.787,106.937 -50.334,106.647C-50.413,106.605 -50.463,106.496 -50.512,106.409C-50.671,106.123 -50.826,105.835 -50.978,105.545C-51.181,105.157 -51.353,105.123 -51.565,105.493C-51.958,106.181 -52.498,106.755 -52.939,107.394C-53.698,108.491 -54.739,109.286 -55.602,110.265C-55.681,110.354 -55.957,110.418 -55.977,110.387C-56.24,109.972 -56.683,110.264 -57.026,110.082C-58.081,109.526 -59.143,108.978 -60.128,108.308C-61.493,107.381 -63.534,106.653 -65.027,106.652C-65.375,106.652 -65.725,106.634 -66.072,106.657C-66.488,106.685 -66.649,106.475 -66.786,106.1C-66.935,105.693 -67.007,105.265 -67.198,104.86C-67.331,104.58 -67.43,104.496 -67.66,104.541C-68.049,104.618 -68.438,104.715 -68.813,104.844C-69.988,105.247 -70.417,104.959 -70.228,103.743C-70.147,103.226 -70.013,102.721 -70.02,102.189C-70.031,101.306 -70.008,101.231 -70.814,101.049C-71.824,100.822 -72.701,100.3 -73.552,99.798C-74.886,99.01 -75.976,97.895 -76.757,96.512C-77.678,94.882 -78.225,93.116 -78.618,91.292C-78.679,91.008 -78.79,90.733 -78.842,90.447C-78.895,90.157 -78.855,89.887 -79.043,89.583C-79.283,89.196 -78.921,88.726 -78.425,88.79C-77.797,88.871 -77.253,88.586 -76.662,88.527C-76.242,88.485 -75.732,87.988 -75.841,87.745C-75.974,87.446 -76.16,87.147 -76.395,86.925C-76.625,86.706 -76.95,86.591 -77.224,86.415C-77.83,86.026 -77.875,85.733 -77.373,85.282C-76.835,84.798 -76.177,84.589 -75.473,84.542C-75.242,84.526 -75.115,84.489 -75.128,84.224C-75.143,83.95 -75.132,83.675 -75.132,83.4C-75.132,83.008 -75.162,82.613 -75.124,82.225C-75.083,81.822 -75.013,81.415 -74.892,81.03C-74.615,80.15 -74.243,79.315 -73.604,78.629C-73.455,78.469 -73.271,78.358 -73.26,78.063C-73.231,77.348 -73.603,76.769 -74.332,76.534C-74.716,76.41 -75.082,76.228 -75.514,76.29C-75.824,76.335 -76.006,76.11 -76.056,75.823C-76.151,75.27 -76.197,74.709 -76.299,74.158C-76.386,73.691 -76.459,73.205 -76.65,72.778C-77.212,71.526 -77.819,70.307 -79.081,69.574C-79.704,69.212 -79.707,69.05 -79.271,68.623C-79.008,68.365 -78.688,68.167 -78.386,67.952C-78.179,67.804 -77.93,67.704 -77.752,67.527C-77.545,67.32 -77.396,67.053 -77.222,66.813C-77.515,66.602 -77.795,66.371 -78.106,66.192C-78.224,66.125 -78.41,66.181 -78.564,66.181C-78.913,66.181 -79.261,66.183 -79.61,66.181C-80.527,66.178 -80.51,66.178 -80.484,65.223C-80.477,64.959 -80.305,64.815 -80.235,64.618C-80.068,64.147 -79.636,64.006 -79.319,63.733C-78.634,63.141 -78.537,62.377 -78.62,61.553C-78.681,60.944 -78.846,60.402 -79.528,60.178C-79.725,60.113 -79.869,59.868 -80.024,59.693C-80.391,59.278 -80.273,58.722 -79.762,58.416C-79.505,58.263 -79.253,58.157 -78.929,58.17C-78.079,58.204 -77.226,58.185 -76.375,58.18C-75.477,58.176 -75.478,58.173 -75.594,57.213C-75.608,57.098 -75.605,56.977 -75.595,56.861C-75.535,56.171 -75.64,55.501 -75.829,54.84C-76.146,53.723 -76.42,52.601 -76.912,51.53C-78.303,48.503 -79.978,45.619 -81.224,42.517C-81.644,41.472 -81.775,40.578 -81.184,39.582C-80.836,38.998 -80.617,38.333 -80.349,37.7C-80.008,36.896 -79.833,36.036 -79.574,35.205C-79.419,34.71 -79.459,34.094 -79.598,33.585C-79.685,33.263 -80.075,32.901 -80.403,32.798C-81.079,32.586 -81.478,32.116 -81.867,31.593" style="fill:rgb(82,73,74);fill-rule:nonzero;"/>
        </g>
        <g transform="matrix(1,0,0,1,132.86,15.5157)">
            <path d="M0,181.6C-49.419,181.6 -89.624,140.868 -89.624,90.8C-89.624,40.733 -49.419,0 0,0C49.418,0 89.623,40.733 89.623,90.8C89.623,140.868 49.418,181.6 0,181.6M0,-13.726C-56.889,-13.726 -103.171,33.165 -103.171,90.8C-103.171,148.435 -56.889,195.326 0,195.326C56.889,195.326 103.171,148.435 103.171,90.8C103.171,33.165 56.889,-13.726 0,-13.726" style="fill:rgb(82,73,74);fill-rule:nonzero;"/>
        </g>
        <g transform="matrix(1,0,0,1,28.4112,150.535)">
            <path d="M0,-56.234L0.232,-56.234C0.347,-55.888 0.561,-55.543 0.562,-55.197C0.579,-43.016 0.584,-30.835 0.545,-18.654C0.543,-18.174 0.202,-17.55 -0.178,-17.243C-1.413,-16.243 -2.74,-15.361 -4.03,-14.431C-10.575,-9.712 -17.117,-4.989 -23.673,-0.286C-23.943,-0.093 -24.345,-0.09 -24.686,0C-20.524,-9.265 -16.362,-18.53 -12.19,-27.818C-16.473,-31.222 -20.662,-34.551 -24.851,-37.88L-24.851,-38.116C-24.679,-38.188 -24.487,-38.23 -24.34,-38.337C-16.387,-44.066 -8.437,-49.798 -0.496,-55.544C-0.279,-55.7 -0.163,-56.001 0,-56.234" style="fill:rgb(149,44,35);fill-rule:nonzero;"/>
        </g>
        <g transform="matrix(1,0,0,1,237.202,151.262)">
            <path d="M0,-56.49C3.312,-54.061 6.613,-51.618 9.938,-49.207C14.748,-45.72 19.576,-42.258 24.395,-38.782C24.637,-38.608 24.865,-38.415 25.201,-38.15C20.961,-34.786 16.8,-31.485 12.521,-28.092C16.672,-18.806 20.828,-9.509 24.984,-0.211C24.91,-0.14 24.835,-0.07 24.76,0C24.438,-0.222 24.114,-0.439 23.798,-0.667C16.049,-6.252 8.303,-11.839 0.553,-17.422C0.305,-17.601 0.03,-17.742 -0.232,-17.901C-0.232,-30.451 -0.234,-43.002 -0.223,-55.552C-0.223,-55.865 -0.077,-56.178 0,-56.49" style="fill:rgb(149,44,35);fill-rule:nonzero;"/>
        </g>
        <g transform="matrix(1,0,0,1,13.5474,93.4817)">
            <path d="M0,26.467C0,13.76 -0.001,1.052 0.01,-11.655C0.01,-11.967 0.155,-12.28 0.232,-12.592C0.469,-12.349 0.687,-12.082 0.945,-11.866C5.516,-8.058 10.082,-4.243 14.679,-0.468C15.258,0.008 15.453,0.49 15.451,1.22C15.432,13.455 15.438,25.69 15.434,37.925C15.434,38.248 15.381,38.57 15.338,39.059C12.687,36.858 10.19,34.766 7.673,32.7C5.125,30.61 2.559,28.544 0,26.467" style="fill:rgb(104,20,16);fill-rule:nonzero;"/>
        </g>
        <g transform="matrix(1,0,0,1,236.969,81.7545)">
            <path d="M0,51.371L0,12.547C5.031,8.365 10.062,4.183 15.093,0C15.207,0.326 15.42,0.651 15.421,0.976C15.438,13.267 15.442,25.556 15.406,37.846C15.404,38.341 15.107,38.99 14.732,39.306C10.729,42.685 6.686,46.018 2.642,49.349C1.786,50.054 0.882,50.698 0,51.371" style="fill:rgb(104,20,16);fill-rule:nonzero;"/>
        </g>
        <g transform="matrix(-1,-0,-0,1,265.458,-14.141)">
            <rect x="13.238" y="94.156" width="238.982" height="39.059" style="fill:rgb(210,56,43);"/>
        </g>
        <g transform="matrix(1,0,0,1,57.7315,95.96)">
            <path d="M0,5.354C0.385,4.948 0.788,4.506 1.208,4.027C1.627,3.548 2.043,3.047 2.455,2.522C2.867,1.998 3.264,1.461 3.646,0.914C4.027,0.366 4.372,-0.18 4.678,-0.724C4.984,-1.267 5.241,-1.796 5.449,-2.309C5.657,-2.822 5.791,-3.309 5.852,-3.768C5.874,-3.921 5.889,-4.069 5.897,-4.21C5.904,-4.352 5.908,-4.484 5.908,-4.607C5.908,-5.043 5.85,-5.361 5.732,-5.561C5.615,-5.759 5.455,-5.859 5.25,-5.859C5.008,-5.859 4.725,-5.731 4.4,-5.474C4.075,-5.218 3.734,-4.852 3.379,-4.377C3.024,-3.902 2.665,-3.328 2.302,-2.654C1.939,-1.979 1.603,-1.229 1.292,-0.402C0.983,0.425 0.712,1.325 0.482,2.298C0.251,3.271 0.091,4.29 0,5.354M-6.441,9.387C-6.343,9.318 -6.177,9.205 -5.942,9.048C-5.708,8.891 -5.432,8.705 -5.115,8.491C-4.797,8.276 -4.455,8.041 -4.088,7.784C-3.722,7.527 -3.361,7.269 -3.005,7.009L-2.915,6.228C-2.748,4.619 -2.48,3.143 -2.109,1.798C-1.739,0.454 -1.302,-0.76 -0.8,-1.844C-0.297,-2.928 0.251,-3.875 0.845,-4.687C1.438,-5.499 2.043,-6.179 2.659,-6.727C3.275,-7.274 3.884,-7.684 4.485,-7.956C5.086,-8.228 5.647,-8.364 6.169,-8.364C6.547,-8.364 6.895,-8.291 7.212,-8.146C7.53,-8 7.802,-7.782 8.029,-7.491C8.255,-7.2 8.433,-6.835 8.562,-6.399C8.69,-5.962 8.754,-5.453 8.754,-4.871C8.754,-4.159 8.648,-3.412 8.437,-2.631C8.225,-1.85 7.925,-1.061 7.536,-0.264C7.146,0.533 6.679,1.327 6.135,2.12C5.591,2.913 4.988,3.677 4.326,4.412C3.665,5.147 2.95,5.842 2.183,6.498C1.416,7.152 0.62,7.736 -0.204,8.25C-0.219,8.717 -0.232,9.086 -0.244,9.358C-0.255,9.63 -0.263,9.837 -0.267,9.979C-0.271,10.12 -0.272,10.218 -0.272,10.271L-0.272,10.398C-0.272,10.467 -0.259,10.53 -0.232,10.587C-0.206,10.645 -0.153,10.691 -0.074,10.725C0.005,10.76 0.113,10.787 0.25,10.806C0.385,10.825 0.567,10.834 0.794,10.834C1.134,10.834 1.591,10.75 2.166,10.582L5.965,9.479C6.025,9.463 6.086,9.452 6.146,9.444C6.207,9.437 6.264,9.433 6.316,9.433C6.505,9.433 6.668,9.469 6.804,9.542C6.94,9.615 7.053,9.712 7.144,9.835C7.235,9.958 7.303,10.099 7.348,10.26C7.394,10.421 7.417,10.585 7.417,10.754C7.417,10.907 7.394,11.057 7.348,11.202C7.303,11.348 7.235,11.483 7.144,11.61C7.053,11.736 6.94,11.846 6.804,11.937C6.668,12.029 6.509,12.091 6.328,12.121C5.587,12.42 4.831,12.688 4.06,12.925C3.727,13.025 3.377,13.123 3.011,13.218C2.644,13.314 2.27,13.398 1.888,13.471C1.506,13.544 1.121,13.604 0.731,13.649C0.342,13.695 -0.034,13.718 -0.397,13.718C-0.957,13.718 -1.416,13.621 -1.775,13.425C-2.134,13.23 -2.417,12.966 -2.625,12.632C-2.833,12.299 -2.979,11.915 -3.062,11.478C-3.145,11.041 -3.187,10.578 -3.187,10.088C-3.837,10.57 -4.389,10.953 -4.842,11.237C-5.296,11.52 -5.587,11.662 -5.716,11.662C-5.844,11.662 -5.967,11.618 -6.084,11.53C-6.201,11.441 -6.309,11.325 -6.407,11.179C-6.506,11.034 -6.583,10.871 -6.64,10.691C-6.697,10.511 -6.725,10.333 -6.725,10.157C-6.725,10.011 -6.708,9.868 -6.674,9.726C-6.64,9.584 -6.562,9.471 -6.441,9.387" style="fill:white;fill-rule:nonzero;"/>
        </g>
        <g transform="matrix(1,0,0,1,68.3174,103.485)">
            <path d="M0,0.219C0.272,0.219 0.569,0.148 0.89,0.006C1.211,-0.135 1.51,-0.318 1.786,-0.539C2.062,-0.761 2.294,-1.003 2.483,-1.263C2.672,-1.524 2.767,-1.777 2.767,-2.022C2.767,-2.366 2.705,-2.65 2.58,-2.872C2.455,-3.094 2.302,-3.205 2.121,-3.205C1.795,-3.205 1.518,-3.144 1.287,-3.021C1.057,-2.899 0.864,-2.739 0.709,-2.544C0.554,-2.349 0.429,-2.127 0.334,-1.878C0.24,-1.629 0.168,-1.378 0.119,-1.125C0.07,-0.873 0.038,-0.628 0.022,-0.39C0.007,-0.153 0,0.05 0,0.219M1.508,5.618C0.797,5.618 0.176,5.489 -0.357,5.228C-0.89,4.968 -1.334,4.617 -1.689,4.177C-2.045,3.737 -2.312,3.227 -2.489,2.649C-2.667,2.071 -2.756,1.464 -2.756,0.828C-2.756,0.399 -2.714,-0.055 -2.631,-0.534C-2.548,-1.012 -2.421,-1.482 -2.251,-1.941C-2.081,-2.401 -1.867,-2.839 -1.61,-3.257C-1.353,-3.674 -1.053,-4.042 -0.709,-4.36C-0.365,-4.677 0.021,-4.93 0.448,-5.118C0.875,-5.305 1.35,-5.399 1.871,-5.399C2.294,-5.399 2.688,-5.33 3.05,-5.193C3.414,-5.054 3.729,-4.862 3.998,-4.613C4.266,-4.364 4.476,-4.063 4.627,-3.711C4.778,-3.358 4.854,-2.964 4.854,-2.527C4.854,-2.052 4.738,-1.577 4.508,-1.102C4.277,-0.628 3.958,-0.179 3.549,0.242C3.141,0.663 2.655,1.038 2.092,1.368C1.529,1.697 0.918,1.953 0.261,2.137C0.374,2.344 0.486,2.516 0.595,2.655C0.705,2.792 0.816,2.9 0.93,2.976C1.043,3.053 1.163,3.106 1.287,3.137C1.412,3.168 1.546,3.183 1.689,3.183C2.143,3.183 2.622,3.091 3.124,2.907C3.627,2.723 4.117,2.493 4.593,2.218C5.069,1.942 5.519,1.641 5.942,1.316C6.366,0.99 6.725,0.682 7.02,0.391L8.482,1.931C7.817,2.628 7.11,3.244 6.362,3.781C6.037,4.01 5.687,4.236 5.313,4.458C4.938,4.68 4.545,4.878 4.133,5.05C3.722,5.222 3.294,5.36 2.852,5.464C2.41,5.567 1.962,5.618 1.508,5.618" style="fill:white;fill-rule:nonzero;"/>
        </g>
        <g transform="matrix(1,0,0,1,76.2383,101.119)">
            <path d="M0,5.044C0.09,5.044 0.19,5.102 0.3,5.216C0.41,5.331 0.537,5.458 0.68,5.595C0.824,5.733 0.99,5.859 1.179,5.975C1.368,6.089 1.583,6.147 1.826,6.147C2.121,6.147 2.364,6.097 2.557,5.998C2.75,5.898 2.903,5.766 3.016,5.601C3.129,5.437 3.209,5.245 3.254,5.027C3.3,4.809 3.322,4.581 3.322,4.343C3.322,4.136 3.309,3.926 3.283,3.711C3.256,3.497 3.222,3.292 3.181,3.097C3.139,2.901 3.094,2.717 3.044,2.545C2.996,2.373 2.952,2.225 2.914,2.103L0,5.044ZM-1.452,3.573C-1.028,3.206 -0.685,2.899 -0.42,2.654C-0.155,2.409 0.072,2.185 0.261,1.982C0.45,1.779 0.622,1.574 0.776,1.367C0.932,1.161 1.115,0.916 1.327,0.632C1.538,0.349 1.795,0.002 2.098,-0.408C2.4,-0.817 2.793,-1.329 3.277,-1.941C3.375,-2.079 3.485,-2.213 3.606,-2.344C3.727,-2.474 3.861,-2.59 4.008,-2.694C4.156,-2.797 4.318,-2.882 4.496,-2.947C4.674,-3.012 4.872,-3.044 5.091,-3.044C5.455,-3.044 5.734,-3.004 5.931,-2.924C6.127,-2.843 6.271,-2.746 6.362,-2.631C6.452,-2.516 6.505,-2.395 6.521,-2.269C6.536,-2.143 6.543,-2.033 6.543,-1.941C6.543,-1.758 6.471,-1.555 6.328,-1.332C6.184,-1.11 6.025,-0.896 5.851,-0.689C5.677,-0.482 5.513,-0.293 5.358,-0.121C5.203,0.052 5.114,0.18 5.091,0.265C5.091,0.502 5.108,0.718 5.143,0.914C5.177,1.109 5.222,1.3 5.279,1.488C5.335,1.676 5.394,1.875 5.455,2.086C5.515,2.296 5.573,2.539 5.63,2.815C5.687,3.091 5.732,3.409 5.766,3.769C5.8,4.128 5.817,4.554 5.817,5.044C6.089,4.86 6.382,4.693 6.696,4.544C7.01,4.395 7.337,4.24 7.677,4.079C8.017,3.918 8.367,3.74 8.726,3.544C9.085,3.349 9.446,3.114 9.809,2.838L9.82,5.412C9.352,5.779 8.809,6.124 8.193,6.446C7.577,6.767 6.931,7.051 6.254,7.296C5.577,7.541 4.893,7.734 4.201,7.876C3.51,8.018 2.854,8.088 2.234,8.088C1.788,8.088 1.372,8.046 0.986,7.962C0.601,7.878 0.262,7.746 -0.028,7.566C-0.32,7.386 -0.556,7.15 -0.737,6.859C-0.919,6.568 -1.028,6.216 -1.066,5.802C-1.172,5.825 -1.276,5.84 -1.378,5.848C-1.48,5.856 -1.581,5.859 -1.679,5.859C-1.799,5.859 -1.913,5.856 -2.019,5.848C-2.125,5.84 -2.215,5.812 -2.291,5.762C-2.367,5.712 -2.427,5.632 -2.472,5.521C-2.518,5.41 -2.541,5.251 -2.541,5.044C-2.541,4.86 -2.495,4.69 -2.404,4.533C-2.313,4.376 -2.208,4.236 -2.087,4.113C-1.966,3.991 -1.845,3.883 -1.724,3.792C-1.603,3.7 -1.512,3.627 -1.452,3.573" style="fill:white;fill-rule:nonzero;"/>
        </g>
        <g transform="matrix(1,0,0,1,92.4087,105.266)">
            <path d="M0,-11.443C0,-12.087 0.13,-12.648 0.391,-13.126C0.652,-13.605 1.019,-14.013 1.491,-14.35C1.964,-14.687 2.531,-14.964 3.192,-15.183C3.854,-15.401 4.582,-15.571 5.375,-15.694C6.169,-15.817 7.02,-15.901 7.927,-15.947C8.834,-15.993 9.771,-16.016 10.739,-16.016C12.055,-16.016 13.433,-15.962 14.873,-15.855C16.313,-15.748 17.815,-15.552 19.38,-15.269C19.743,-15.192 19.999,-15.054 20.146,-14.855C20.293,-14.656 20.367,-14.434 20.367,-14.189C20.367,-14.036 20.333,-13.886 20.265,-13.741C20.197,-13.595 20.106,-13.461 19.993,-13.339C19.879,-13.216 19.747,-13.118 19.596,-13.046C19.445,-12.973 19.286,-12.937 19.12,-12.937C18.538,-12.937 17.931,-12.967 17.299,-13.028C16.668,-13.089 16.01,-13.159 15.326,-13.235C14.642,-13.312 13.937,-13.388 13.211,-13.465C12.486,-13.542 11.737,-13.599 10.966,-13.637C10.83,-12.779 10.656,-11.857 10.444,-10.868C10.232,-9.881 10,-8.871 9.747,-7.841C9.494,-6.811 9.229,-5.785 8.953,-4.762C8.677,-3.739 8.411,-2.763 8.154,-1.832C7.896,-0.902 7.657,-0.042 7.434,0.747C7.21,1.536 7.027,2.214 6.883,2.781C6.823,3.041 6.73,3.28 6.605,3.498C6.481,3.717 6.341,3.907 6.186,4.067C6.031,4.228 5.871,4.352 5.704,4.441C5.538,4.529 5.383,4.573 5.239,4.573C4.808,4.573 4.453,4.47 4.173,4.263C3.894,4.056 3.753,3.723 3.753,3.263C3.753,3.118 3.776,2.957 3.822,2.781C3.92,2.083 4.05,1.398 4.213,0.724C4.375,0.05 4.566,-0.653 4.786,-1.384C5.005,-2.116 5.254,-2.891 5.534,-3.711C5.814,-4.53 6.124,-5.432 6.464,-6.417C6.804,-7.401 7.173,-8.486 7.57,-9.673C7.966,-10.861 8.396,-12.182 8.857,-13.637C8.456,-13.607 8.05,-13.572 7.638,-13.534C7.226,-13.496 6.825,-13.444 6.436,-13.379C6.046,-13.314 5.684,-13.232 5.347,-13.132C5.01,-13.032 4.716,-12.906 4.462,-12.753C4.209,-12.599 4.009,-12.416 3.861,-12.201C3.714,-11.987 3.64,-11.734 3.64,-11.443C3.64,-11.427 3.631,-11.343 3.612,-11.19C3.593,-11.037 3.527,-10.87 3.414,-10.691C3.3,-10.51 3.121,-10.346 2.875,-10.196C2.629,-10.047 2.279,-9.972 1.826,-9.972C1.372,-9.972 1.021,-10.049 0.771,-10.202C0.521,-10.355 0.34,-10.524 0.227,-10.708C0.091,-10.922 0.015,-11.167 0,-11.443" style="fill:white;fill-rule:nonzero;"/>
        </g>
        <g transform="matrix(1,0,0,1,111.08,107.186)">
            <path d="M0,-12.34C0,-12.516 0.038,-12.715 0.114,-12.937C0.189,-13.159 0.312,-13.368 0.482,-13.564C0.652,-13.759 0.879,-13.923 1.163,-14.057C1.446,-14.192 1.799,-14.258 2.223,-14.258C2.487,-14.258 2.737,-14.228 2.971,-14.167C3.206,-14.105 3.41,-14.011 3.584,-13.885C3.758,-13.759 3.896,-13.592 3.998,-13.385C4.1,-13.178 4.151,-12.933 4.151,-12.65C4.151,-12.39 4.109,-12.137 4.026,-11.892C3.943,-11.647 3.811,-11.428 3.629,-11.237C3.448,-11.046 3.219,-10.89 2.943,-10.772C2.667,-10.653 2.336,-10.593 1.951,-10.593C1.286,-10.593 0.794,-10.753 0.477,-11.07C0.159,-11.388 0,-11.811 0,-12.34M5.069,-0.529C4.797,-0.277 4.459,-0.007 4.054,0.281C3.65,0.568 3.213,0.832 2.745,1.074C2.276,1.315 1.798,1.516 1.31,1.677C0.822,1.838 0.359,1.918 -0.079,1.918C-0.472,1.918 -0.803,1.863 -1.071,1.751C-1.34,1.64 -1.557,1.485 -1.724,1.286C-1.89,1.087 -2.009,0.844 -2.081,0.556C-2.152,0.269 -2.188,-0.047 -2.188,-0.391C-2.188,-0.874 -2.134,-1.435 -2.024,-2.074C-1.915,-2.714 -1.78,-3.377 -1.622,-4.062C-1.462,-4.748 -1.294,-5.431 -1.117,-6.113C-0.939,-6.795 -0.782,-7.423 -0.646,-7.997C-0.593,-8.196 -0.487,-8.366 -0.329,-8.508C-0.17,-8.65 0.01,-8.765 0.21,-8.853C0.411,-8.941 0.618,-9.006 0.834,-9.048C1.049,-9.09 1.244,-9.111 1.418,-9.111C1.735,-9.111 1.951,-9.052 2.064,-8.933C2.178,-8.815 2.234,-8.656 2.234,-8.457C2.234,-8.288 2.196,-8.045 2.121,-7.727C2.045,-7.409 1.951,-7.049 1.837,-6.647C1.724,-6.245 1.603,-5.812 1.475,-5.349C1.346,-4.885 1.225,-4.422 1.112,-3.959C0.998,-3.495 0.904,-3.043 0.828,-2.603C0.752,-2.162 0.715,-1.766 0.715,-1.414C0.715,-1.069 0.752,-0.795 0.828,-0.592C0.904,-0.389 1.059,-0.288 1.293,-0.288C1.565,-0.288 1.868,-0.383 2.2,-0.575C2.533,-0.767 2.869,-0.998 3.209,-1.27C3.55,-1.542 3.882,-1.823 4.208,-2.114C4.533,-2.406 4.82,-2.654 5.069,-2.861L5.069,-0.529Z" style="fill:white;fill-rule:nonzero;"/>
        </g>
        <g transform="matrix(1,0,0,1,118.116,96.2356)">
            <path d="M0,3.677C0.34,3.064 0.701,2.375 1.083,1.609C1.465,0.843 1.826,0.054 2.166,-0.758C2.506,-1.57 2.801,-2.38 3.051,-3.188C3.3,-3.996 3.459,-4.748 3.527,-5.446C3.527,-5.668 3.521,-5.857 3.51,-6.014C3.499,-6.171 3.463,-6.25 3.402,-6.25C3.183,-6.25 2.947,-6.106 2.693,-5.819C2.44,-5.531 2.187,-5.143 1.934,-4.653C1.681,-4.162 1.438,-3.592 1.208,-2.941C0.978,-2.29 0.771,-1.596 0.59,-0.861C0.409,-0.126 0.265,0.631 0.159,1.408C0.053,2.185 0,2.942 0,3.677M-0.011,12.868C-0.419,12.868 -0.799,12.686 -1.151,12.323C-1.502,11.959 -1.809,11.47 -2.069,10.858C-2.33,10.245 -2.534,9.534 -2.682,8.726C-2.829,7.918 -2.903,7.07 -2.903,6.181C-2.903,5.5 -2.854,4.759 -2.755,3.958C-2.657,3.158 -2.514,2.333 -2.325,1.483C-2.135,0.632 -1.911,-0.222 -1.65,-1.08C-1.389,-1.937 -1.094,-2.761 -0.765,-3.55C-0.437,-4.339 -0.079,-5.076 0.306,-5.761C0.692,-6.447 1.096,-7.044 1.52,-7.553C1.943,-8.063 2.386,-8.463 2.847,-8.754C3.308,-9.045 3.776,-9.191 4.253,-9.191C4.578,-9.191 4.846,-9.116 5.058,-8.967C5.27,-8.818 5.436,-8.62 5.557,-8.375C5.678,-8.13 5.763,-7.852 5.812,-7.542C5.861,-7.232 5.886,-6.916 5.886,-6.594C5.886,-5.874 5.805,-5.141 5.642,-4.394C5.479,-3.647 5.26,-2.897 4.984,-2.142C4.708,-1.388 4.389,-0.632 4.026,0.127C3.663,0.885 3.285,1.637 2.892,2.385C2.499,3.131 2.104,3.866 1.707,4.59C1.31,5.314 0.937,6.021 0.59,6.71C0.552,6.787 0.512,6.886 0.471,7.009C0.429,7.131 0.39,7.263 0.352,7.405C0.314,7.547 0.276,7.698 0.238,7.859C0.201,8.02 0.17,8.177 0.147,8.33L0.147,8.491C0.147,8.69 0.168,8.884 0.21,9.071C0.251,9.259 0.303,9.427 0.363,9.576C0.423,9.726 0.488,9.844 0.556,9.933C0.624,10.021 0.688,10.065 0.749,10.065C0.893,10.065 1.057,10.034 1.242,9.973C1.427,9.912 1.624,9.829 1.832,9.726C2.04,9.622 2.253,9.504 2.472,9.37C2.692,9.236 2.903,9.1 3.107,8.962C3.584,8.64 4.083,8.269 4.604,7.847L5.534,10.26C4.861,10.75 4.196,11.187 3.539,11.57C3.251,11.731 2.955,11.89 2.648,12.047C2.342,12.204 2.034,12.344 1.724,12.466C1.414,12.589 1.112,12.686 0.817,12.759C0.522,12.832 0.246,12.868 -0.011,12.868" style="fill:white;fill-rule:nonzero;"/>
        </g>
        <g transform="matrix(1,0,0,1,124.87,96.2356)">
            <path d="M0,3.677C0.34,3.064 0.701,2.375 1.083,1.609C1.465,0.843 1.826,0.054 2.166,-0.758C2.506,-1.57 2.801,-2.38 3.05,-3.188C3.3,-3.996 3.458,-4.748 3.527,-5.446C3.527,-5.668 3.521,-5.857 3.51,-6.014C3.499,-6.171 3.462,-6.25 3.402,-6.25C3.183,-6.25 2.946,-6.106 2.693,-5.819C2.44,-5.531 2.187,-5.143 1.934,-4.653C1.68,-4.162 1.438,-3.592 1.208,-2.941C0.977,-2.29 0.771,-1.596 0.589,-0.861C0.408,-0.126 0.265,0.631 0.159,1.408C0.053,2.185 0,2.942 0,3.677M-0.011,12.868C-0.42,12.868 -0.799,12.686 -1.151,12.323C-1.502,11.959 -1.809,11.47 -2.07,10.858C-2.331,10.245 -2.535,9.534 -2.682,8.726C-2.83,7.918 -2.903,7.07 -2.903,6.181C-2.903,5.5 -2.854,4.759 -2.756,3.958C-2.658,3.158 -2.514,2.333 -2.325,1.483C-2.136,0.632 -1.911,-0.222 -1.65,-1.08C-1.389,-1.937 -1.094,-2.761 -0.766,-3.55C-0.437,-4.339 -0.08,-5.076 0.306,-5.761C0.692,-6.447 1.096,-7.044 1.52,-7.553C1.943,-8.063 2.385,-8.463 2.846,-8.754C3.308,-9.045 3.776,-9.191 4.252,-9.191C4.578,-9.191 4.846,-9.116 5.058,-8.967C5.27,-8.818 5.436,-8.62 5.557,-8.375C5.678,-8.13 5.763,-7.852 5.812,-7.542C5.861,-7.232 5.886,-6.916 5.886,-6.594C5.886,-5.874 5.804,-5.141 5.642,-4.394C5.479,-3.647 5.26,-2.897 4.984,-2.142C4.708,-1.388 4.389,-0.632 4.026,0.127C3.663,0.885 3.285,1.637 2.892,2.385C2.499,3.131 2.104,3.866 1.707,4.59C1.31,5.314 0.937,6.021 0.589,6.71C0.552,6.787 0.512,6.886 0.471,7.009C0.429,7.131 0.389,7.263 0.352,7.405C0.313,7.547 0.276,7.698 0.238,7.859C0.2,8.02 0.17,8.177 0.147,8.33L0.147,8.491C0.147,8.69 0.168,8.884 0.209,9.071C0.251,9.259 0.302,9.427 0.363,9.576C0.423,9.726 0.487,9.844 0.556,9.933C0.624,10.021 0.688,10.065 0.749,10.065C0.892,10.065 1.057,10.034 1.242,9.973C1.427,9.912 1.624,9.829 1.832,9.726C2.039,9.622 2.253,9.504 2.472,9.37C2.691,9.236 2.903,9.1 3.107,8.962C3.583,8.64 4.083,8.269 4.604,7.847L5.534,10.26C4.861,10.75 4.196,11.187 3.538,11.57C3.251,11.731 2.954,11.89 2.648,12.047C2.342,12.204 2.034,12.344 1.724,12.466C1.414,12.589 1.111,12.686 0.816,12.759C0.521,12.832 0.246,12.868 -0.011,12.868" style="fill:white;fill-rule:nonzero;"/>
        </g>
        <g transform="matrix(1,0,0,1,131.407,103.485)">
            <path d="M0,0.219C0.271,0.219 0.568,0.148 0.89,0.006C1.211,-0.135 1.51,-0.318 1.785,-0.539C2.062,-0.761 2.294,-1.003 2.483,-1.263C2.672,-1.524 2.767,-1.777 2.767,-2.022C2.767,-2.366 2.704,-2.65 2.579,-2.872C2.455,-3.094 2.302,-3.205 2.12,-3.205C1.795,-3.205 1.518,-3.144 1.286,-3.021C1.056,-2.899 0.863,-2.739 0.708,-2.544C0.553,-2.349 0.429,-2.127 0.334,-1.878C0.24,-1.629 0.168,-1.378 0.119,-1.125C0.069,-0.873 0.038,-0.628 0.022,-0.39C0.007,-0.153 0,0.05 0,0.219M1.508,5.618C0.797,5.618 0.175,5.489 -0.357,5.228C-0.89,4.968 -1.334,4.617 -1.69,4.177C-2.045,3.737 -2.312,3.227 -2.489,2.649C-2.667,2.071 -2.756,1.464 -2.756,0.828C-2.756,0.399 -2.714,-0.055 -2.631,-0.534C-2.548,-1.012 -2.421,-1.482 -2.251,-1.941C-2.081,-2.401 -1.867,-2.839 -1.61,-3.257C-1.354,-3.674 -1.053,-4.042 -0.709,-4.36C-0.365,-4.677 0.021,-4.93 0.447,-5.118C0.875,-5.305 1.349,-5.399 1.87,-5.399C2.294,-5.399 2.688,-5.33 3.05,-5.193C3.413,-5.054 3.729,-4.862 3.997,-4.613C4.266,-4.364 4.475,-4.063 4.626,-3.711C4.777,-3.358 4.854,-2.964 4.854,-2.527C4.854,-2.052 4.738,-1.577 4.507,-1.102C4.276,-0.628 3.957,-0.179 3.549,0.242C3.141,0.663 2.655,1.038 2.092,1.368C1.528,1.697 0.918,1.953 0.26,2.137C0.374,2.344 0.485,2.516 0.595,2.655C0.705,2.792 0.816,2.9 0.929,2.976C1.043,3.053 1.162,3.106 1.286,3.137C1.411,3.168 1.546,3.183 1.689,3.183C2.143,3.183 2.621,3.091 3.124,2.907C3.627,2.723 4.116,2.493 4.592,2.218C5.068,1.942 5.519,1.641 5.941,1.316C6.365,0.99 6.725,0.682 7.019,0.391L8.482,1.931C7.816,2.628 7.109,3.244 6.361,3.781C6.036,4.01 5.687,4.236 5.312,4.458C4.938,4.68 4.545,4.878 4.133,5.05C3.721,5.222 3.294,5.36 2.852,5.464C2.409,5.567 1.961,5.618 1.508,5.618" style="fill:white;fill-rule:nonzero;"/>
        </g>
        <g transform="matrix(1,0,0,1,146.721,108.392)">
            <path d="M0,-9.571C0,-9.364 -0.022,-9.082 -0.068,-8.726C-0.113,-8.37 -0.172,-7.98 -0.244,-7.554C-0.315,-7.129 -0.394,-6.691 -0.477,-6.239C-0.56,-5.787 -0.637,-5.366 -0.709,-4.975C-0.78,-4.585 -0.839,-4.242 -0.885,-3.947C-0.93,-3.652 -0.952,-3.447 -0.952,-3.332C-0.952,-3.118 -0.949,-2.921 -0.941,-2.74C-0.934,-2.561 -0.911,-2.404 -0.873,-2.269C-0.835,-2.135 -0.776,-2.032 -0.697,-1.959C-0.618,-1.886 -0.503,-1.85 -0.352,-1.85C-0.186,-1.85 0.017,-1.892 0.255,-1.976C0.493,-2.061 0.746,-2.174 1.015,-2.316C1.283,-2.457 1.558,-2.618 1.837,-2.798C2.117,-2.978 2.384,-3.168 2.637,-3.367C2.89,-3.566 3.12,-3.763 3.328,-3.958C3.536,-4.154 3.704,-4.336 3.833,-4.504C3.833,-4.251 3.835,-4.022 3.839,-3.815C3.843,-3.608 3.845,-3.411 3.845,-3.223C3.845,-3.035 3.846,-2.842 3.85,-2.643C3.854,-2.444 3.855,-2.221 3.855,-1.976C3.689,-1.808 3.483,-1.628 3.237,-1.437C2.992,-1.245 2.72,-1.053 2.421,-0.862C2.122,-0.671 1.805,-0.487 1.469,-0.311C1.132,-0.134 0.794,0.021 0.453,0.155C0.113,0.289 -0.223,0.396 -0.556,0.476C-0.889,0.557 -1.198,0.597 -1.485,0.597C-1.772,0.597 -2.019,0.539 -2.223,0.425C-2.427,0.31 -2.603,0.149 -2.75,-0.058C-2.897,-0.265 -3.022,-0.511 -3.124,-0.799C-3.227,-1.086 -3.315,-1.406 -3.391,-1.758C-3.663,-1.398 -3.95,-1.067 -4.253,-0.764C-4.555,-0.462 -4.863,-0.199 -5.177,0.023C-5.49,0.245 -5.809,0.419 -6.13,0.545C-6.451,0.672 -6.763,0.735 -7.065,0.735C-7.314,0.735 -7.549,0.693 -7.768,0.609C-7.987,0.524 -8.182,0.383 -8.353,0.183C-8.522,-0.016 -8.656,-0.278 -8.755,-0.604C-8.853,-0.929 -8.902,-1.333 -8.902,-1.816C-8.902,-2.405 -8.832,-3.156 -8.692,-4.068C-8.553,-4.979 -8.381,-6.021 -8.177,-7.193C-8.161,-7.307 -8.133,-7.463 -8.091,-7.658C-8.05,-7.853 -7.993,-8.066 -7.921,-8.296C-7.85,-8.525 -7.761,-8.759 -7.654,-8.996C-7.549,-9.234 -7.424,-9.448 -7.28,-9.64C-7.137,-9.831 -6.969,-9.988 -6.775,-10.111C-6.583,-10.233 -6.365,-10.299 -6.124,-10.306C-5.723,-10.291 -5.436,-10.239 -5.262,-10.151C-5.088,-10.063 -5.001,-9.954 -5.001,-9.823C-5.069,-9.418 -5.143,-8.966 -5.223,-8.468C-5.302,-7.97 -5.383,-7.468 -5.466,-6.963C-5.549,-6.457 -5.629,-5.965 -5.704,-5.487C-5.779,-5.008 -5.848,-4.581 -5.908,-4.205C-5.969,-3.83 -6.016,-3.528 -6.05,-3.298C-6.084,-3.068 -6.101,-2.949 -6.101,-2.942C-6.101,-2.804 -6.088,-2.672 -6.062,-2.545C-6.035,-2.419 -5.995,-2.306 -5.942,-2.206C-5.89,-2.107 -5.821,-2.026 -5.738,-1.965C-5.655,-1.904 -5.557,-1.873 -5.443,-1.873C-5.277,-1.873 -5.106,-1.917 -4.933,-2.005C-4.759,-2.093 -4.595,-2.219 -4.439,-2.384C-4.285,-2.549 -4.146,-2.752 -4.025,-2.993C-3.905,-3.235 -3.814,-3.509 -3.754,-3.815L-2.631,-9.651C-2.593,-9.835 -2.44,-9.99 -2.172,-10.116C-1.903,-10.243 -1.599,-10.306 -1.259,-10.306C-0.873,-10.306 -0.567,-10.237 -0.34,-10.099C-0.113,-9.961 0,-9.785 0,-9.571" style="fill:white;fill-rule:nonzero;"/>
        </g>
        <g transform="matrix(1,0,0,1,151.921,96.2356)">
            <path d="M0,3.677C0.341,3.064 0.701,2.375 1.083,1.609C1.465,0.843 1.826,0.054 2.166,-0.758C2.507,-1.57 2.802,-2.38 3.051,-3.188C3.3,-3.996 3.459,-4.748 3.527,-5.446C3.527,-5.668 3.521,-5.857 3.51,-6.014C3.499,-6.171 3.463,-6.25 3.402,-6.25C3.183,-6.25 2.947,-6.106 2.693,-5.819C2.44,-5.531 2.187,-5.143 1.934,-4.653C1.681,-4.162 1.438,-3.592 1.208,-2.941C0.978,-2.29 0.771,-1.596 0.59,-0.861C0.408,-0.126 0.265,0.631 0.159,1.408C0.053,2.185 0,2.942 0,3.677M-0.011,12.868C-0.419,12.868 -0.799,12.686 -1.15,12.323C-1.502,11.959 -1.809,11.47 -2.069,10.858C-2.33,10.245 -2.534,9.534 -2.682,8.726C-2.829,7.918 -2.903,7.07 -2.903,6.181C-2.903,5.5 -2.854,4.759 -2.756,3.958C-2.657,3.158 -2.514,2.333 -2.324,1.483C-2.136,0.632 -1.91,-0.222 -1.649,-1.08C-1.389,-1.937 -1.094,-2.761 -0.766,-3.55C-0.437,-4.339 -0.079,-5.076 0.307,-5.761C0.692,-6.447 1.097,-7.044 1.52,-7.553C1.943,-8.063 2.386,-8.463 2.847,-8.754C3.308,-9.045 3.776,-9.191 4.253,-9.191C4.578,-9.191 4.847,-9.116 5.058,-8.967C5.27,-8.818 5.436,-8.62 5.557,-8.375C5.678,-8.13 5.763,-7.852 5.812,-7.542C5.861,-7.232 5.886,-6.916 5.886,-6.594C5.886,-5.874 5.805,-5.141 5.642,-4.394C5.479,-3.647 5.26,-2.897 4.984,-2.142C4.708,-1.388 4.389,-0.632 4.026,0.127C3.663,0.885 3.285,1.637 2.892,2.385C2.499,3.131 2.104,3.866 1.707,4.59C1.311,5.314 0.937,6.021 0.59,6.71C0.552,6.787 0.513,6.886 0.471,7.009C0.43,7.131 0.39,7.263 0.352,7.405C0.314,7.547 0.276,7.698 0.238,7.859C0.2,8.02 0.17,8.177 0.147,8.33L0.147,8.491C0.147,8.69 0.169,8.884 0.21,9.071C0.252,9.259 0.303,9.427 0.363,9.576C0.424,9.726 0.488,9.844 0.556,9.933C0.624,10.021 0.688,10.065 0.749,10.065C0.893,10.065 1.057,10.034 1.242,9.973C1.428,9.912 1.624,9.829 1.832,9.726C2.04,9.622 2.253,9.504 2.473,9.37C2.691,9.236 2.903,9.1 3.107,8.962C3.584,8.64 4.083,8.269 4.604,7.847L5.534,10.26C4.861,10.75 4.196,11.187 3.538,11.57C3.251,11.731 2.954,11.89 2.648,12.047C2.342,12.204 2.034,12.344 1.724,12.466C1.414,12.589 1.111,12.686 0.816,12.759C0.521,12.832 0.246,12.868 -0.011,12.868" style="fill:white;fill-rule:nonzero;"/>
        </g>
        <g transform="matrix(1,0,0,1,157.221,101.119)">
            <path d="M0,5.044C0.091,5.044 0.19,5.102 0.301,5.216C0.41,5.331 0.537,5.458 0.681,5.595C0.824,5.733 0.99,5.859 1.18,5.975C1.368,6.089 1.584,6.147 1.826,6.147C2.121,6.147 2.364,6.097 2.558,5.998C2.75,5.898 2.903,5.766 3.017,5.601C3.13,5.437 3.209,5.245 3.255,5.027C3.3,4.809 3.322,4.581 3.322,4.343C3.322,4.136 3.31,3.926 3.283,3.711C3.257,3.497 3.223,3.292 3.181,3.097C3.14,2.901 3.094,2.717 3.045,2.545C2.996,2.373 2.952,2.225 2.914,2.103L0,5.044ZM-1.451,3.573C-1.028,3.206 -0.685,2.899 -0.42,2.654C-0.155,2.409 0.072,2.185 0.261,1.982C0.45,1.779 0.622,1.574 0.776,1.367C0.932,1.161 1.115,0.916 1.327,0.632C1.538,0.349 1.796,0.002 2.098,-0.408C2.4,-0.817 2.794,-1.329 3.277,-1.941C3.376,-2.079 3.485,-2.213 3.606,-2.344C3.728,-2.474 3.861,-2.59 4.009,-2.694C4.156,-2.797 4.318,-2.882 4.496,-2.947C4.674,-3.012 4.872,-3.044 5.092,-3.044C5.455,-3.044 5.734,-3.004 5.931,-2.924C6.128,-2.843 6.271,-2.746 6.362,-2.631C6.453,-2.516 6.506,-2.395 6.521,-2.269C6.536,-2.143 6.543,-2.033 6.543,-1.941C6.543,-1.758 6.472,-1.555 6.328,-1.332C6.185,-1.11 6.025,-0.896 5.852,-0.689C5.678,-0.482 5.514,-0.293 5.358,-0.121C5.203,0.052 5.114,0.18 5.092,0.265C5.092,0.502 5.108,0.718 5.143,0.914C5.177,1.109 5.223,1.3 5.279,1.488C5.336,1.676 5.395,1.875 5.455,2.086C5.516,2.296 5.573,2.539 5.631,2.815C5.687,3.091 5.732,3.409 5.767,3.769C5.801,4.128 5.817,4.554 5.817,5.044C6.09,4.86 6.383,4.693 6.696,4.544C7.01,4.395 7.337,4.24 7.678,4.079C8.018,3.918 8.367,3.74 8.727,3.544C9.086,3.349 9.446,3.114 9.81,2.838L9.82,5.412C9.352,5.779 8.81,6.124 8.193,6.446C7.577,6.767 6.931,7.051 6.254,7.296C5.577,7.541 4.894,7.734 4.201,7.876C3.51,8.018 2.854,8.088 2.234,8.088C1.788,8.088 1.372,8.046 0.986,7.962C0.602,7.878 0.263,7.746 -0.028,7.566C-0.319,7.386 -0.556,7.15 -0.737,6.859C-0.919,6.568 -1.028,6.216 -1.066,5.802C-1.172,5.825 -1.275,5.84 -1.378,5.848C-1.479,5.856 -1.58,5.859 -1.679,5.859C-1.799,5.859 -1.913,5.856 -2.019,5.848C-2.124,5.84 -2.215,5.812 -2.291,5.762C-2.366,5.712 -2.427,5.632 -2.472,5.521C-2.518,5.41 -2.54,5.251 -2.54,5.044C-2.54,4.86 -2.495,4.69 -2.404,4.533C-2.313,4.376 -2.208,4.236 -2.087,4.113C-1.966,3.991 -1.845,3.883 -1.724,3.792C-1.603,3.7 -1.512,3.627 -1.451,3.573" style="fill:white;fill-rule:nonzero;"/>
        </g>
        <g transform="matrix(1,0,0,1,172.343,107.242)">
            <path d="M0,-0.333C0,-0.302 -0.004,-0.226 -0.011,-0.103C-0.019,0.02 -0.043,0.161 -0.085,0.322C-0.127,0.483 -0.19,0.653 -0.277,0.834C-0.364,1.013 -0.487,1.18 -0.646,1.333C-0.805,1.486 -1.005,1.613 -1.247,1.712C-1.489,1.812 -1.784,1.861 -2.132,1.861C-2.411,1.861 -2.665,1.825 -2.892,1.752C-3.118,1.68 -3.313,1.569 -3.476,1.419C-3.638,1.27 -3.765,1.079 -3.855,0.845C-3.946,0.611 -3.991,0.33 -3.991,0C-3.991,-0.275 -3.952,-0.545 -3.872,-0.81C-3.793,-1.074 -3.67,-1.31 -3.504,-1.516C-3.338,-1.723 -3.122,-1.888 -2.857,-2.01C-2.593,-2.133 -2.279,-2.194 -1.916,-2.194C-1.289,-2.194 -0.812,-2.033 -0.487,-1.711C-0.162,-1.39 0,-0.93 0,-0.333" style="fill:white;fill-rule:nonzero;"/>
        </g>
        <g transform="matrix(1,0,0,1,177.894,98.0745)">
            <path d="M0,11.029C-0.695,11.029 -1.306,10.899 -1.831,10.639C-2.356,10.378 -2.797,10.029 -3.152,9.593C-3.508,9.156 -3.776,8.651 -3.957,8.076C-4.139,7.502 -4.229,6.904 -4.229,6.284C-4.229,5.84 -4.185,5.377 -4.094,4.894C-4.003,4.411 -3.868,3.939 -3.69,3.475C-3.514,3.012 -3.294,2.57 -3.033,2.148C-2.772,1.727 -2.47,1.358 -2.126,1.039C-1.782,0.721 -1.398,0.469 -0.975,0.281C-0.552,0.093 -0.087,0 0.42,0C0.851,0 1.25,0.067 1.616,0.201C1.983,0.335 2.297,0.521 2.558,0.758C2.818,0.995 3.022,1.277 3.17,1.603C3.317,1.928 3.392,2.279 3.392,2.654C3.392,2.914 3.357,3.171 3.289,3.424C3.221,3.676 3.121,3.904 2.988,4.107C2.856,4.31 2.695,4.473 2.507,4.595C2.317,4.718 2.105,4.779 1.871,4.779C1.517,4.779 1.283,4.683 1.174,4.492C1.064,4.3 1.01,4.036 1.01,3.699C1.01,3.561 1.016,3.416 1.026,3.262C1.038,3.11 1.044,2.971 1.044,2.849C1.044,2.665 1.024,2.512 0.987,2.389C0.949,2.267 0.866,2.206 0.737,2.206C0.428,2.206 0.163,2.28 -0.057,2.43C-0.275,2.579 -0.463,2.775 -0.617,3.016C-0.772,3.257 -0.896,3.529 -0.986,3.831C-1.077,4.134 -1.148,4.434 -1.201,4.733C-1.255,5.032 -1.289,5.317 -1.304,5.589C-1.318,5.861 -1.326,6.089 -1.326,6.273C-1.326,6.549 -1.302,6.836 -1.253,7.134C-1.203,7.433 -1.111,7.707 -0.975,7.956C-0.839,8.205 -0.653,8.412 -0.419,8.576C-0.185,8.741 0.117,8.823 0.488,8.823C0.851,8.823 1.252,8.71 1.69,8.485C2.129,8.258 2.569,7.973 3.011,7.629C3.453,7.284 3.875,6.904 4.275,6.491C4.677,6.077 5.021,5.687 5.308,5.319L6.09,6.652C5.523,7.471 4.911,8.203 4.253,8.846C3.974,9.122 3.669,9.39 3.34,9.651C3.011,9.911 2.667,10.143 2.308,10.345C1.949,10.549 1.575,10.713 1.186,10.84C0.796,10.966 0.401,11.029 0,11.029" style="fill:white;fill-rule:nonzero;"/>
        </g>
        <g transform="matrix(1,0,0,1,186.428,100.28)">
            <path d="M0,6.618C0.257,6.618 0.506,6.486 0.748,6.222C0.99,5.957 1.202,5.624 1.383,5.222C1.564,4.82 1.71,4.376 1.819,3.889C1.93,3.403 1.984,2.937 1.984,2.493C1.984,2.141 1.958,1.813 1.905,1.511C1.852,1.208 1.772,0.946 1.667,0.724C1.561,0.502 1.425,0.326 1.259,0.196C1.092,0.065 0.892,0 0.657,0C0.348,0 0.053,0.134 -0.228,0.402C-0.507,0.67 -0.753,1.013 -0.964,1.431C-1.176,1.848 -1.342,2.309 -1.463,2.815C-1.584,3.321 -1.645,3.807 -1.645,4.274C-1.645,4.596 -1.614,4.898 -1.554,5.182C-1.493,5.465 -1.399,5.712 -1.271,5.923C-1.142,6.134 -0.972,6.302 -0.76,6.428C-0.549,6.555 -0.295,6.618 0,6.618M3.504,0.219C3.723,0.663 3.888,1.132 3.997,1.626C4.106,2.12 4.161,2.593 4.161,3.045C4.161,3.497 4.112,3.952 4.015,4.412C3.916,4.871 3.774,5.316 3.589,5.745C3.403,6.174 3.177,6.576 2.908,6.951C2.64,7.326 2.334,7.652 1.99,7.928C1.646,8.203 1.27,8.422 0.861,8.582C0.453,8.743 0.019,8.824 -0.442,8.824C-1.107,8.824 -1.677,8.676 -2.149,8.382C-2.622,8.087 -3.01,7.701 -3.312,7.227C-3.614,6.752 -3.835,6.216 -3.975,5.618C-4.115,5.021 -4.185,4.416 -4.185,3.803C-4.185,2.96 -4.061,2.174 -3.811,1.442C-3.562,0.711 -3.204,0.075 -2.739,-0.465C-2.274,-1.005 -1.705,-1.43 -1.032,-1.74C-0.359,-2.05 0.396,-2.206 1.235,-2.206C1.954,-2.206 2.627,-2.093 3.254,-1.867C3.882,-1.641 4.47,-1.338 5.018,-0.959C5.565,-0.58 6.076,-0.145 6.549,0.345C7.021,0.835 7.462,1.341 7.87,1.861L7.654,3.481C7.45,3.205 7.174,2.907 6.826,2.585C6.479,2.264 6.11,1.95 5.721,1.643C5.331,1.337 4.948,1.048 4.569,0.776C4.191,0.504 3.867,0.276 3.595,0.092L3.504,0.219Z" style="fill:white;fill-rule:nonzero;"/>
        </g>
        <g transform="matrix(1,0,0,1,196.559,100.28)">
            <path d="M0,6.618C0.258,6.618 0.507,6.486 0.749,6.222C0.991,5.957 1.202,5.624 1.384,5.222C1.565,4.82 1.711,4.376 1.82,3.889C1.93,3.403 1.985,2.937 1.985,2.493C1.985,2.141 1.958,1.813 1.905,1.511C1.853,1.208 1.773,0.946 1.667,0.724C1.562,0.502 1.426,0.326 1.259,0.196C1.093,0.065 0.893,0 0.658,0C0.348,0 0.054,0.134 -0.227,0.402C-0.506,0.67 -0.752,1.013 -0.964,1.431C-1.175,1.848 -1.342,2.309 -1.463,2.815C-1.584,3.321 -1.644,3.807 -1.644,4.274C-1.644,4.596 -1.613,4.898 -1.554,5.182C-1.493,5.465 -1.398,5.712 -1.27,5.923C-1.142,6.134 -0.971,6.302 -0.76,6.428C-0.548,6.555 -0.295,6.618 0,6.618M3.505,0.219C3.724,0.663 3.888,1.132 3.998,1.626C4.107,2.12 4.162,2.593 4.162,3.045C4.162,3.497 4.113,3.952 4.015,4.412C3.916,4.871 3.774,5.316 3.59,5.745C3.404,6.174 3.178,6.576 2.909,6.951C2.641,7.326 2.335,7.652 1.99,7.928C1.646,8.203 1.271,8.422 0.862,8.582C0.454,8.743 0.02,8.824 -0.442,8.824C-1.107,8.824 -1.676,8.676 -2.148,8.382C-2.621,8.087 -3.009,7.701 -3.311,7.227C-3.613,6.752 -3.835,6.216 -3.975,5.618C-4.114,5.021 -4.185,4.416 -4.185,3.803C-4.185,2.96 -4.06,2.174 -3.81,1.442C-3.561,0.711 -3.203,0.075 -2.738,-0.465C-2.273,-1.005 -1.704,-1.43 -1.031,-1.74C-0.358,-2.05 0.397,-2.206 1.236,-2.206C1.955,-2.206 2.628,-2.093 3.255,-1.867C3.883,-1.641 4.471,-1.338 5.019,-0.959C5.566,-0.58 6.077,-0.145 6.549,0.345C7.021,0.835 7.462,1.341 7.87,1.861L7.655,3.481C7.451,3.205 7.175,2.907 6.827,2.585C6.479,2.264 6.11,1.95 5.722,1.643C5.332,1.337 4.948,1.048 4.57,0.776C4.192,0.504 3.867,0.276 3.595,0.092L3.505,0.219Z" style="fill:white;fill-rule:nonzero;"/>
        </g>
        <g transform="matrix(1,0,0,1,206.431,110.218)">
            <path d="M0,-4.32C0.453,-4.55 0.845,-4.806 1.174,-5.09C1.503,-5.373 1.786,-5.676 2.024,-5.998C2.263,-6.319 2.457,-6.653 2.608,-6.997C2.76,-7.342 2.88,-7.694 2.971,-8.054C3.009,-8.223 3.033,-8.42 3.045,-8.646C3.056,-8.872 3.033,-9.084 2.977,-9.283C2.92,-9.483 2.821,-9.653 2.682,-9.795C2.542,-9.936 2.348,-10.007 2.098,-10.007C1.818,-10.007 1.572,-9.929 1.36,-9.772C1.149,-9.614 0.966,-9.402 0.811,-9.134C0.656,-8.866 0.527,-8.548 0.425,-8.18C0.323,-7.813 0.24,-7.418 0.176,-6.997C0.111,-6.576 0.066,-6.137 0.04,-5.682C0.013,-5.226 0,-4.772 0,-4.32M-3.946,3.952C-3.946,4.013 -3.934,4.113 -3.907,4.251C-3.88,4.388 -3.837,4.526 -3.776,4.664C-3.716,4.802 -3.637,4.925 -3.538,5.032C-3.44,5.139 -3.319,5.193 -3.175,5.193C-3.047,5.193 -2.94,5.122 -2.857,4.98C-2.774,4.839 -2.707,4.649 -2.653,4.411C-2.601,4.174 -2.563,3.906 -2.54,3.607C-2.518,3.308 -2.499,3.002 -2.483,2.688C-2.469,2.374 -2.459,2.068 -2.455,1.769C-2.451,1.471 -2.442,1.202 -2.427,0.965C-2.404,0.551 -2.387,0.201 -2.376,-0.087C-2.364,-0.374 -2.355,-0.613 -2.348,-0.804C-2.34,-1.019 -2.332,-1.199 -2.325,-1.344C-2.469,-1.092 -2.608,-0.799 -2.744,-0.466C-2.881,-0.133 -3.009,0.214 -3.13,0.574C-3.251,0.934 -3.36,1.294 -3.459,1.654C-3.558,2.014 -3.643,2.349 -3.714,2.659C-3.786,2.97 -3.843,3.238 -3.884,3.464C-3.926,3.69 -3.946,3.852 -3.946,3.952M1.429,-3.16C2.192,-3.16 2.888,-3.237 3.516,-3.389C4.143,-3.543 4.712,-3.75 5.222,-4.01C5.732,-4.27 6.193,-4.575 6.605,-4.924C7.018,-5.272 7.39,-5.645 7.723,-6.044L7.848,-3.412C7.605,-3.114 7.312,-2.824 6.969,-2.545C6.624,-2.265 6.248,-2.02 5.84,-1.81C5.432,-1.599 5.003,-1.431 4.553,-1.304C4.104,-1.178 3.659,-1.115 3.221,-1.115C3.168,-1.115 3.102,-1.122 3.022,-1.138C2.942,-1.153 2.805,-1.18 2.608,-1.218C2.411,-1.257 2.13,-1.308 1.764,-1.373C1.396,-1.438 0.899,-1.517 0.272,-1.609L0.272,-1.402C0.272,-0.008 0.157,1.258 -0.073,2.395C-0.305,3.533 -0.612,4.503 -0.998,5.308C-1.384,6.112 -1.826,6.732 -2.325,7.169C-2.823,7.605 -3.342,7.824 -3.878,7.824C-4.31,7.824 -4.668,7.717 -4.956,7.502C-5.243,7.287 -5.472,6.998 -5.642,6.635C-5.812,6.271 -5.933,5.846 -6.005,5.359C-6.076,4.873 -6.112,4.358 -6.112,3.814C-6.112,3.5 -6.063,3.146 -5.965,2.751C-5.867,2.357 -5.734,1.943 -5.568,1.511C-5.401,1.078 -5.215,0.638 -5.007,0.189C-4.799,-0.259 -4.585,-0.694 -4.366,-1.115C-3.852,-2.095 -3.266,-3.106 -2.608,-4.148C-2.525,-4.745 -2.44,-5.358 -2.354,-5.986C-2.267,-6.614 -2.156,-7.223 -2.024,-7.813C-1.892,-8.403 -1.726,-8.962 -1.525,-9.49C-1.325,-10.019 -1.068,-10.478 -0.754,-10.869C-0.44,-11.259 -0.064,-11.57 0.374,-11.799C0.812,-12.029 1.342,-12.144 1.962,-12.144C2.423,-12.144 2.854,-12.081 3.255,-11.955C3.655,-11.828 4.007,-11.623 4.31,-11.34C4.611,-11.056 4.85,-10.691 5.023,-10.243C5.197,-9.795 5.284,-9.245 5.284,-8.594C5.284,-8.073 5.209,-7.57 5.058,-7.083C4.906,-6.597 4.67,-6.132 4.349,-5.687C4.027,-5.243 3.619,-4.827 3.124,-4.441C2.629,-4.054 2.041,-3.707 1.36,-3.401L1.429,-3.16Z" style="fill:white;fill-rule:nonzero;"/>
        </g>
        <g transform="matrix(1,0,0,1,93.6895,105.781)">
            <path d="M0,-1.654C0.073,-1.654 0.159,-1.645 0.255,-1.628C0.351,-1.611 0.439,-1.578 0.519,-1.529C0.598,-1.48 0.666,-1.414 0.723,-1.331C0.779,-1.247 0.808,-1.137 0.808,-0.999C0.808,-0.884 0.795,-0.768 0.77,-0.65C0.744,-0.532 0.693,-0.426 0.616,-0.331C0.54,-0.237 0.431,-0.157 0.289,-0.094C0.147,-0.031 -0.043,0 -0.281,0L-3.811,0C-3.992,0 -4.137,-0.032 -4.244,-0.098C-4.352,-0.165 -4.436,-0.245 -4.495,-0.34C-4.555,-0.435 -4.593,-0.536 -4.61,-0.646C-4.627,-0.755 -4.636,-0.853 -4.636,-0.939C-4.636,-1.013 -4.627,-1.092 -4.61,-1.175C-4.593,-1.259 -4.556,-1.337 -4.5,-1.408C-4.443,-1.48 -4.359,-1.539 -4.249,-1.585C-4.138,-1.631 -3.992,-1.654 -3.811,-1.654L0,-1.654Z" style="fill:white;fill-rule:nonzero;"/>
        </g>
    </g>
</svg>
