<?xml version="1.0" encoding="iso-8859-1"?>
<!-- Generator: Adobe Illustrator 23.0.6, SVG Export Plug-In . SVG Version: 6.00 Build 0)  -->
<svg version="1.1" id="Ebene_1" xmlns="http://www.w3.org/2000/svg" xmlns:xlink="http://www.w3.org/1999/xlink" x="0px" y="0px"
	 viewBox="0 0 500 500" xml:space="preserve">
<g>
	<g>
		<path style="fill:none;" d="M109.039,88.845v-0.592l-0.062,0.588C108.997,88.841,109.019,88.845,109.039,88.845z"/>
		<path style="fill:#FFCC00;" d="M300.363,267.739c-5.031-13.45-10.588-28.041-16.985-44.596
			c-6.587-3.233-12.739-6.267-18.235-8.986l-1.553-0.77l-1.21-0.6l-5.393-2.67l-6.124,5.398c2.531,4.621,5.319,9.706,8.302,15.118
			l2.14,3.889c20.214,36.643,36.517,65.277,48.455,85.107c7.749,12.874,13.719,22.089,17.459,26.962
			c-1.187-5.321-3.842-14.178-7.63-25.391C314.978,307.481,308.51,289.494,300.363,267.739z"/>
		<path style="fill:#FFCC00;" d="M171.704,28.736c-1.126,2.359-1.697,5.507-1.695,9.353c-0.044,16.166,10.335,45.327,30.015,84.336
			l1.338,2.64l0.383,0.754c10.717,6.736,22.052,14.179,34.642,22.75l1.37,0.936l1.46,0.997c3.691,2.526,7.094,4.869,10.161,6.985
			c1.901-2.231,3.927-4.598,6.071-7.09c-4.849-12.809-9.347-24.199-13.742-34.801c-0.755-1.819-1.518-3.64-2.293-5.476
			c-12.629-29.894-24.195-52.467-34.377-67.092c-8.997-13.054-17.451-20.24-23.808-20.24l-0.155,0.001
			c-1.492,0-2.869,0.343-4.23,1.048l-0.03,0.016l-0.145,0.069C174.391,24.884,172.821,26.41,171.704,28.736z"/>
		<path style="fill:#69972F;" d="M108.916,89.42c-6.051,0.036-9.785,1.788-11.749,5.512l-0.008,0.016l-0.07,0.125
			c-1.003,1.584-1.478,3.197-1.48,4.98c-0.1,6.492,6.748,15.646,19.282,25.792c10.854,8.866,26.304,18.961,45.925,30.009
			c4.732,2.659,9.86,5.46,15.246,8.328c12.672-0.627,26.228-1.032,41.427-1.236l1.327-0.015l2.096-0.025
			c4.881-0.054,9.405-0.086,13.386-0.109l2.574-0.022l0.447-0.004c2.881-0.013,5.426-0.028,7.605-0.056l0.931-1.093l0.041-0.048
			c-2.577-1.779-5.347-3.689-8.339-5.738l-1.501-1.025l-1.331-0.908c-11.583-7.9-21.982-14.775-31.79-21.015
			c-1.597-1.022-3.207-2.035-4.827-3.053l-0.186-0.117c-2.355-1.474-4.726-2.956-7.12-4.423
			c-26.632-16.367-62.434-35.877-81.761-35.877v-0.575c-0.02,0-0.042-0.004-0.062-0.004L108.916,89.42z"/>
		<path style="fill:#69972F;" d="M389.144,259.969c-11.08-8.316-26.841-19.524-46.846-33.313
			c-13.153-9.064-27.8-19.013-43.542-29.574c-7.246,1.127-14.029,2.172-20.089,3.095l-1.815,0.28l-1.234,0.189l-3.725,0.562
			l-3.007,0.454l-2.788,0.427l-1.373,1.195l-3.41,3.012c0.919,0.454,1.864,0.923,2.833,1.407l1.264,0.626l1.495,0.739
			c4.941,2.448,10.445,5.157,16.31,8.039l2.08,1.022l1.903,0.935c39.486,19.359,91.255,44.163,113.65,52.396
			c1.66,0.619,3.228,1.16,4.608,1.593c-0.443-0.405-0.925-0.835-1.446-1.29C400.657,268.829,395.656,264.862,389.144,259.969z"/>
		<path style="fill:#0094C6;" d="M427.404,167.941c-3.069-0.41-7.385-0.755-12.856-1.027c-10.753-0.547-25.984-0.825-45.272-0.825
			l-0.966,0c-17.194,0-37.809,0.209-61.282,0.622c-6.248,5.585-12.871,11.383-20.236,17.714l-0.8,0.685l-1.576,1.35
			c-2.813,2.406-5.429,4.638-7.824,6.673l-1.806,1.532l-0.62,0.527l-0.386,0.328l0.363-0.055l3.048-0.463
			c5.455-0.832,11.499-1.766,17.97-2.772l1.916-0.298l2.467-0.385c14.914-2.334,28.921-4.585,41.634-6.691
			C373.177,179.563,413.043,172.495,427.404,167.941z"/>
		<path style="fill:#0094C6;" d="M240.348,168.103l-0.767,0.005l-2.526,0.016c-0.944,0-1.907,0.008-2.906,0.016l-1.082,0.007
			c-3.203,0.021-6.705,0.044-10.451,0.088c-1.127,0.009-2.263,0.023-3.428,0.04c-13.771,0.164-26.235,0.497-38.106,1.019
			c-1.519,0.066-3.045,0.139-4.576,0.212l-1.359,0.064c-25.04,1.272-45.862,3.451-61.882,6.477
			c-16.608,3.122-28.741,7.369-35.09,12.283c-3.746,2.893-5.571,5.925-5.58,9.268c0,0.412,0.03,0.833,0.085,1.262l0.004,0.032
			l0.012,0.158c0.132,2.645,1.165,4.772,3.25,6.717c2.106,1.968,5.297,3.639,9.484,4.966c7.906,2.516,19.379,3.792,34.1,3.792
			c22.093,0,50.653-2.723,87.41-8.324c4.944-5.66,20.181-22.972,20.181-22.972l1.828-2.074l0.724-0.82l0.945-1.07l1.452-1.646
			C232.073,177.616,238.37,170.423,240.348,168.103z"/>
		<path style="fill:#CD1316;" d="M187.216,263.724c11.644-9.931,24.473-21.016,39.219-33.888l1.262-1.104l2.082-1.818
			c5.51-4.82,10.585-9.275,15.048-13.201l1.128-0.995l1.186-1.046l5.981-5.269c0.864-0.767,1.665-1.478,2.437-2.155l0.457-0.404
			l3.29-2.906l0.864-0.764l1.017-0.901c0.664-0.587,1.463-1.274,2.327-2.016l1.476-1.27l0.937-0.803l3.015-2.562l0.884-0.751
			l0.554-0.473l1.111-0.948l1.378-1.166l1.053-0.893c1.982-1.686,4.118-3.509,6.373-5.439l0.718-0.616l1.662-1.421
			c6.454-5.54,12.681-10.976,18.506-16.151l0.575-0.512l2.86-2.554c27.213-24.402,47.338-44.999,59.816-61.219
			c10.229-13.224,15.607-23.991,15.554-31.141c-0.014-3.183-0.986-5.558-3.057-7.479l-0.036-0.033l-0.081-0.083
			c-1.962-2.113-4.34-3.085-7.521-3.1h-0.107c-7.151,0-17.883,5.378-31.036,15.552c-11.232,8.647-24.57,20.949-39.647,36.565
			c-2.876,2.984-5.85,6.123-9.092,9.594c-1.356,1.457-2.695,2.91-4.029,4.361c-7.608,8.267-15.545,17.195-24.264,27.294
			l-1.193,1.381l-1.047,1.212c-2.095,2.44-4.062,4.741-5.921,6.922l-1.959,2.299l-0.637,0.75l-0.333,0.393l-2.266,2.671
			l-0.588,0.692c-3.338,3.925-5.975,7.025-7.813,9.111l-2.456,2.779l-0.184,0.208l-1.823,2.068l-1.591,1.805l-0.116,0.13
			l-0.204,0.228l-1.101,1.25l-0.991,1.125c-1.176,1.328-2.43,2.749-3.761,4.263l-2.068,2.351c-3.601,4.09-7.652,8.702-12.024,13.698
			l-1.087,1.241l-1.999,2.28c-28.77,32.933-50.911,58.987-65.806,77.435c-9.286,11.49-15.799,20.117-19.075,25.258
			c0.752-0.479,1.574-1.025,2.464-1.635c3.906-2.679,9.124-6.59,15.51-11.626C154.07,291.611,168.93,279.307,187.216,263.724z"/>
		<path style="fill:#F59D0F;" d="M261.877,33.17c-5.059,12.723-9.649,30.839-13.642,53.844c-1.189,6.856-2.35,14.288-3.449,22.095
			c4.665,11.082,9.461,23.105,14.635,36.692c9.089-10.476,17.378-19.73,25.294-28.24c6.812-31.84,10.263-57.012,10.257-74.82
			c0.006-9.777-1.027-17.428-3.07-22.74c-2.099-5.372-4.966-8.134-9.02-8.688l-0.055-0.007l-0.121-0.028
			c-0.717-0.16-1.401-0.237-2.088-0.237c-3.279,0-6.422,1.814-9.608,5.545C267.842,20.304,264.769,25.885,261.877,33.17z"/>
		<path style="fill:#F59D0F;" d="M242.645,287.83c4.035-15.496,8.473-33.043,13.194-52.159c-3.262-5.914-6.322-11.492-9.085-16.54
			c-4.649,4.093-9.906,8.704-15.573,13.656c-4.722,44.123-10.325,101.401-10.322,124.774c0,1.647,0.028,3.11,0.083,4.373
			c0.133-0.321,0.27-0.656,0.408-1.004c1.582-3.984,3.578-9.903,5.933-17.593C231.335,330.092,236.503,311.417,242.645,287.83z"/>
	</g>
	<g>
		<path d="M13.59,395.844h16.955v31.3h0.522c1.826-2.087,4.173-3.738,7.041-4.956c2.87-1.216,6.043-1.826,9.522-1.826
			c7.825,0,13.801,2.673,17.932,8.02c4.128,5.348,6.194,13.499,6.194,24.453c0,11.738-2.893,20.651-8.673,26.736
			c-5.784,6.086-13.717,9.129-23.8,9.129c-5.566,0-10.652-0.457-15.259-1.369c-4.609-0.914-8.086-1.934-10.434-3.065V395.844z
			 M42.674,434.707c-3.13,0-5.674,0.806-7.63,2.413c-1.957,1.609-3.456,3.934-4.499,6.976v28.431
			c1.39,0.697,2.889,1.173,4.499,1.434c1.608,0.261,3.326,0.392,5.152,0.392c4.607,0,8.106-1.673,10.499-5.021
			c2.39-3.346,3.585-8.673,3.585-15.976C54.28,440.924,50.411,434.707,42.674,434.707z"/>
		<path d="M83.572,425.71c3.475-1.565,7.607-2.805,12.389-3.717c4.781-0.912,9.781-1.369,14.998-1.369
			c4.52,0,8.302,0.544,11.346,1.63c3.042,1.087,5.454,2.63,7.237,4.63c1.781,2.001,3.044,4.391,3.783,7.173
			c0.739,2.783,1.108,5.913,1.108,9.39c0,3.827-0.129,7.673-0.39,11.542c-0.261,3.869-0.414,7.673-0.457,11.411
			c-0.045,3.74,0.065,7.368,0.326,10.889c0.261,3.521,0.912,6.847,1.957,9.977h-13.825l-2.738-9h-0.653
			c-1.74,2.697-4.152,5.021-7.237,6.978c-3.088,1.957-7.065,2.934-11.934,2.934c-3.044,0-5.784-0.455-8.216-1.369
			c-2.436-0.912-4.521-2.216-6.26-3.912c-1.74-1.695-3.087-3.695-4.044-6c-0.957-2.302-1.434-4.891-1.434-7.759
			c0-3.997,0.892-7.368,2.675-10.108c1.78-2.738,4.346-4.956,7.694-6.651c3.346-1.695,7.345-2.869,11.997-3.521
			c4.65-0.651,9.846-0.847,15.586-0.586c0.607-4.868,0.261-8.367-1.043-10.499c-1.305-2.129-4.219-3.195-8.738-3.195
			c-3.391,0-6.978,0.349-10.76,1.044c-3.781,0.696-6.89,1.609-9.324,2.738L83.572,425.71z M105.09,474.224
			c3.391,0,6.086-0.761,8.087-2.283c1.998-1.52,3.475-3.151,4.434-4.891v-8.476c-2.697-0.261-5.282-0.304-7.759-0.131
			c-2.479,0.175-4.676,0.565-6.586,1.173c-1.914,0.61-3.436,1.479-4.566,2.608c-1.13,1.132-1.695,2.566-1.695,4.305
			c0,2.434,0.718,4.325,2.152,5.672C100.591,473.552,102.568,474.224,105.09,474.224z"/>
		<path d="M175.631,469.137c0-1.738-0.74-3.13-2.218-4.173c-1.479-1.044-3.305-2-5.476-2.87c-2.175-0.868-4.566-1.761-7.174-2.673
			c-2.608-0.912-5-2.171-7.174-3.783c-2.173-1.608-3.999-3.65-5.476-6.129c-1.481-2.477-2.218-5.672-2.218-9.585
			c0-6.433,1.912-11.346,5.739-14.737c3.824-3.391,9.345-5.086,16.561-5.086c4.956,0,9.434,0.522,13.433,1.565
			c3.999,1.044,7.129,2.218,9.39,3.521l-3.781,12.258c-2.001-0.782-4.523-1.606-7.565-2.477c-3.044-0.868-6.129-1.304-9.259-1.304
			c-5.043,0-7.564,1.957-7.564,5.868c0,1.565,0.737,2.827,2.216,3.783c1.477,0.957,3.303,1.848,5.478,2.673
			c2.171,0.828,4.564,1.718,7.174,2.675c2.608,0.957,4.997,2.195,7.172,3.716c2.173,1.522,3.999,3.501,5.478,5.935
			c1.477,2.434,2.216,5.564,2.216,9.39c0,6.608-2.108,11.803-6.325,15.584c-4.217,3.783-10.542,5.674-18.975,5.674
			c-4.609,0-8.934-0.587-12.976-1.761c-4.044-1.173-7.326-2.542-9.846-4.109l4.695-12.65c2,1.132,4.65,2.24,7.955,3.326
			c3.303,1.089,6.694,1.63,10.173,1.63c2.52,0,4.542-0.476,6.064-1.434C174.868,473.008,175.631,471.4,175.631,469.137z"/>
		<path d="M256.175,481.526c-2.608,2.087-6.151,3.848-10.628,5.282c-4.478,1.434-9.24,2.152-14.28,2.152
			c-10.521,0-18.216-3.065-23.084-9.194c-4.87-6.131-7.304-14.543-7.304-25.236c0-11.477,2.74-20.085,8.216-25.822
			c5.478-5.739,13.172-8.608,23.084-8.608c3.303,0,6.521,0.436,9.651,1.304c3.13,0.871,5.913,2.305,8.347,4.305
			c2.433,2.001,4.389,4.695,5.87,8.086c1.477,3.391,2.216,7.608,2.216,12.65c0,1.826-0.11,3.783-0.326,5.868
			c-0.218,2.087-0.543,4.262-0.977,6.521h-39.125c0.261,5.478,1.673,9.609,4.238,12.39c2.565,2.783,6.717,4.173,12.456,4.173
			c3.563,0,6.758-0.541,9.585-1.63c2.824-1.086,4.977-2.194,6.456-3.326L256.175,481.526z M231.917,433.665
			c-4.434,0-7.716,1.326-9.846,3.977c-2.132,2.654-3.413,6.196-3.846,10.63h24.257c0.345-4.695-0.371-8.302-2.152-10.826
			C238.546,434.926,235.743,433.665,231.917,433.665z"/>
		<path d="M316.622,483.091c-2.608,1.914-5.76,3.372-9.455,4.37c-3.697,0.998-7.498,1.5-11.411,1.5
			c-5.217,0-9.63-0.828-13.237-2.479c-3.609-1.649-6.543-3.977-8.804-6.976c-2.261-2.999-3.891-6.629-4.891-10.891
			c-1-4.259-1.5-8.953-1.5-14.084c0-11.04,2.479-19.54,7.435-25.496c4.956-5.956,12.171-8.934,21.65-8.934
			c4.779,0,8.627,0.392,11.54,1.173c2.913,0.783,5.543,1.783,7.891,3.001l-4.044,13.823c-2.001-0.955-3.977-1.695-5.933-2.218
			c-1.957-0.521-4.197-0.782-6.717-0.782c-4.695,0-8.261,1.544-10.695,4.63c-2.434,3.087-3.65,8.02-3.65,14.802
			c0,2.783,0.302,5.348,0.912,7.694c0.608,2.348,1.52,4.392,2.738,6.131c1.218,1.74,2.805,3.109,4.76,4.107
			c1.957,1,4.24,1.5,6.847,1.5c2.87,0,5.303-0.369,7.304-1.108c1.998-0.739,3.781-1.63,5.348-2.675L316.622,483.091z"/>
		<path d="M322.19,454.531c0-11.04,2.695-19.54,8.086-25.496c5.391-5.956,12.954-8.934,22.692-8.934
			c5.217,0,9.737,0.828,13.564,2.479c3.826,1.652,6.998,3.977,9.52,6.976c2.522,2.999,4.413,6.631,5.674,10.891
			c1.259,4.26,1.891,8.955,1.891,14.084c0,11.042-2.675,19.542-8.02,25.496c-5.348,5.957-12.892,8.934-22.629,8.934
			c-5.215,0-9.738-0.828-13.562-2.479c-3.827-1.649-7.022-3.977-9.585-6.976c-2.566-2.999-4.48-6.629-5.739-10.891
			C322.82,464.357,322.19,459.662,322.19,454.531z M339.667,454.531c0,2.869,0.259,5.523,0.782,7.955
			c0.522,2.436,1.304,4.564,2.348,6.39c1.043,1.826,2.412,3.24,4.107,4.239c1.695,1,3.717,1.5,6.064,1.5
			c4.435,0,7.739-1.608,9.912-4.825c2.173-3.216,3.26-8.302,3.26-15.259c0-5.999-1-10.845-2.999-14.541
			c-2.001-3.695-5.392-5.543-10.173-5.543c-4.173,0-7.433,1.565-9.781,4.695C340.84,442.273,339.667,447.404,339.667,454.531z"/>
		<path d="M432.418,487.135v-35.473c0-6-0.567-10.259-1.695-12.78c-1.132-2.522-3.479-3.783-7.043-3.783
			c-2.956,0-5.347,0.806-7.173,2.412c-1.824,1.611-3.217,3.674-4.173,6.196v43.428h-16.955v-65.208h13.172l1.957,8.608h0.522
			c2-2.781,4.542-5.217,7.629-7.304c3.085-2.087,7.064-3.13,11.934-3.13c4.173,0,7.584,0.849,10.238,2.544
			c2.651,1.695,4.714,4.544,6.194,8.541c1.998-3.391,4.564-6.085,7.694-8.086c3.13-1.998,6.912-2.999,11.346-2.999
			c3.652,0,6.76,0.436,9.324,1.304c2.565,0.871,4.65,2.37,6.261,4.501c1.606,2.13,2.803,4.978,3.585,8.541
			c0.783,3.566,1.175,8.086,1.175,13.564v39.125h-16.955v-36.648c0-5.128-0.544-8.976-1.63-11.54
			c-1.089-2.565-3.501-3.848-7.239-3.848c-3.044,0-5.456,0.828-7.237,2.477c-1.783,1.652-3.109,3.913-3.978,6.782v42.777H432.418z"
			/>
	</g>
</g>
<g>
</g>
<g>
</g>
<g>
</g>
<g>
</g>
<g>
</g>
<g>
</g>
<g>
</g>
<g>
</g>
<g>
</g>
<g>
</g>
<g>
</g>
<g>
</g>
<g>
</g>
<g>
</g>
<g>
</g>
</svg>
