<svg id="Form_5_kopier_8_Billede" data-name="Form 5 kopier 8 Billede" xmlns="http://www.w3.org/2000/svg" viewBox="0 0 2435 594.7"><defs><style>.cls-1{fill:#3c3c3c;}.cls-2{fill:#e3c58f;}</style></defs><title>setono-logo</title><path class="cls-1" d="M3719,1037c-2,4.46-1.46,9.3-1.93,14-5.78,56.62-25.29,106.93-67.35,146.86-29.62,28.1-65.06,44.71-105,51.71-43.07,7.55-86.1,6.93-128.06-6-71.84-22.15-116.95-71.13-138.59-142.38-7.83-25.8-10.72-52.38-11.35-79.33-.76-32.47,1.33-64.56,10.22-95.94,14.55-51.4,41.51-94.1,87.2-123.53,27.62-17.79,58-27.94,90.47-32,38.74-4.83,77.26-3.37,114.74,8.19,70.28,21.67,114.28,69.71,136.51,138.79,7.23,22.45,10.63,45.65,12.16,69.14.08,1.2-.67,2.73,1,3.53v5c-1.58,1.52-.69,3.43-.69,5.14,0,7.58,0,15.17.13,22.75,0,2.7-1.15,5.52.56,8.11Zm-146.23-25.45c0-2.33,0-4.66,0-7-.49-24.7-2.21-49.24-10.8-72.72-10.45-28.54-29.19-47.32-60.74-50.34-30.68-2.94-56.84,7.68-72.3,37.83-5.89,11.49-9.49,23.72-11.95,36.34-5.44,27.85-5,56-3.62,84.12,1,20,4.25,39.71,12.56,58.2,12.7,28.22,34.7,42.44,65.55,43,31.36.53,53.84-13.38,67.1-41.88a108.4,108.4,0,0,0,4.4-11.12C3571.33,1063.14,3572.71,1037.43,3572.77,1011.55Z" transform="translate(-1284 -660)"/><path class="cls-1" d="M1284,1095c1.82-.1,3.65-.28,5.47-.28,41.83,0,83.65,0,125.48-.1,4.21,0,5.89.7,6.18,5.51,1.4,23.12,12.24,40.1,34,49.13,22.83,9.47,46.33,10.44,69.91,3.55,18.6-5.44,29.61-20.17,30.11-37.91.33-11.9-4.8-20.86-14.14-27.65-10.39-7.56-22.5-11.34-34.53-15.21-23.14-7.43-47.17-11.45-70.52-18.07-31.38-8.89-61.54-20.51-87.69-40.67-25.93-20-43.76-45.31-48-78.33-6.32-48.6,9.27-89.18,46.78-121,28.51-24.2,62-37.36,98.55-42.56,46.56-6.63,92.75-4.61,137.84,9.67,36.24,11.48,67.46,30.78,90.08,62.12,15.7,21.73,22.57,46.43,23.49,73,.12,3.37-.92,4.12-4.13,4.11q-69-.15-138,0c-3.36,0-4.8-.74-4.67-4.34a52.38,52.38,0,0,0-1.61-13.86c-4.95-21.14-19.27-33.78-41.93-37-13-1.82-25.94-2-38.43,2.83-13.29,5.11-23.81,13.46-28.89,27.18-6.23,16.8-.66,33.18,14.66,43.73,13.1,9,28.11,13.5,43.35,17.12,24.59,5.84,49.6,9.76,73.89,16.91,25.33,7.46,49.86,16.61,71.57,32.07,40.88,29.11,56.93,69.34,52.38,118.45-3.45,37.25-22.75,65.36-52,87.34-27.16,20.42-58,32.22-91.22,38.1-36.53,6.47-73.25,7.53-109.86,1.06-49.48-8.75-92.91-29.11-125.48-68.74-17.35-21.11-28.66-45.11-31.71-72.59-.07-.69-.22-1.29-.94-1.58Z" transform="translate(-1284 -660)"/><path class="cls-1" d="M2258,660c0,37.66,0,75.31-.1,113,0,3.28.87,4.13,4.12,4.1,22.82-.14,45.65,0,68.48-.17,3.75,0,4.65.92,4.63,4.65q-.26,46,0,92c0,3.8-1,4.63-4.67,4.6-22.66-.18-45.32,0-68-.19-3.84,0-4.6,1.05-4.59,4.7q.17,105.72.07,211.44c0,8.87.72,17.63,3.31,26.16,4.33,14.24,15.44,19.13,28.8,20.77,15.48,1.89,30.94,1.08,46.33-1,4.06-.54,5.36.26,5.33,4.65-.2,31.16-.12,62.32-.08,93.48,0,2.61.06,4.62-3.28,5.58a289.57,289.57,0,0,1-55.84,10.39c-2.87.23-4.42-.57-5.9-3.12q-81.43-141.4-163.09-282.67a13.41,13.41,0,0,1-1.59-7.13c0-25.83-.15-51.65.16-77.48.06-5.06-1.5-5.87-6.09-5.79-16.49.29-33,0-49.48.19-3.35,0-4.53-.65-4.52-4.3q.24-46.23,0-92.47c0-3.49.86-4.46,4.39-4.43,17,.19,34,0,51,.18,3.72,0,4.68-.85,4.66-4.62-.14-37.49-.07-75-.06-112.47Z" transform="translate(-1284 -660)"/><path class="cls-2" d="M3719,1031c-1.71-2.59-.51-5.41-.56-8.11-.15-7.58-.17-15.17-.13-22.75,0-1.71-.89-3.62.69-5.14Z" transform="translate(-1284 -660)"/><path class="cls-1" d="M2964.12,1251.71l-27.12-47q-57.73-100.07-115.51-200.13a17.08,17.08,0,0,1-2.52-8.89q.12-107.24-.06-214.48c0-4.54,1.24-5.36,5.48-5.34q63.49.26,127,0c3.49,0,4.79.62,5,4.45.95,14.46,2.36,28.89,3.61,43.32.2,2.31,0,4.67,1,6.88,1.49,0,1.8-1.33,2.45-2.16,31.08-39.62,72.25-59.22,122.12-61.26,25-1,49.59,1.46,73,11,34.74,14.16,55.91,40.79,68.27,75.23,11.11,31,14.44,63.17,14.47,95.81q.14,149.73.14,299.48c0,4.39-1,5.44-5.43,5.42q-68-.27-136,0c-4.1,0-5.18-.89-5.17-5.11q.18-149.49,0-299a108.36,108.36,0,0,0-5-34c-5.23-15.93-15.71-26.5-32.09-30.53-20.46-5-40.89-5.6-60.82,2.5-13.09,5.31-22.91,14.55-30.6,26.26-1.53,2.32-1.35,4.71-1.36,7.18v329.92Z" transform="translate(-1284 -660)"/><path class="cls-1" d="M2795.29,1119.83Q2694.64,945.71,2594.2,771.49c-1.55-2.69-3.23-3.58-6.26-3.56a267.11,267.11,0,0,0-57.51,6.12c-60,13.6-106.2,46.19-136,100.63-17.67,32.31-27,67.15-29.68,103.77-2.81,38.89-1.72,77.59,8.28,115.56,15.4,58.48,48,104.11,101.54,133.53,35.9,19.73,75,26.39,115.52,26.51a274.62,274.62,0,0,0,54.14-5c71.77-14.41,122-55.48,151.46-122.34A6.73,6.73,0,0,0,2795.29,1119.83Zm-125.52-108.11c-.1,25.7-1.37,51.26-9.74,75.89a118.53,118.53,0,0,1-5.68,13.81c-15.17,31.09-42,42.49-73.5,39-33.55-3.76-54-23.06-63.76-58.46-5.82-21-7.44-42.56-7.48-64.27,0-25.16.44-50.28,7.34-74.77a127.77,127.77,0,0,1,8.83-23.25c15.38-30.31,41.69-41.14,72.62-38.11,31.54,3.09,50.21,21.93,60.62,50.48,8.57,23.49,10.25,48,10.75,72.72C2669.81,1007.05,2669.77,1009.39,2669.77,1011.72Z" transform="translate(-1284 -660)"/><path class="cls-1" d="M1955.1,881.35c-9-.51-17.64-.62-26.16,1-20.08,3.82-34.81,15.11-44.94,32.64-9,15.67-13.27,32.87-16,51h5.66q63,0,126,0c2.51,0,4.63-.16,6.25,2.69q24.54,43.05,49.37,86c.3.53.55,1.09,1.16,2.31H1868.27c7.3,46.37,41.9,79,87.83,83.2,29.48,2.69,57.79-1.33,84.27-15.23a115.69,115.69,0,0,0,34.5-27.64c2.84-3.34,3.71-2.58,5.6.73q24.71,43.24,49.79,86.29c1.72,3,1.3,4.41-1,6.63-27.3,26.84-60.18,43.93-96.79,53.44-64.26,16.68-127.89,14.11-188.2-14.72C1776,1197,1734.68,1142,1723.14,1066.83c-8.42-54.84-5.63-109.43,13.85-162,26.42-71.37,77.36-115,151.65-131.38,2.37-.52,4.25-.89,5.84,1.89q29.79,52,59.78,103.8A16.72,16.72,0,0,1,1955.1,881.35Z" transform="translate(-1284 -660)"/><path class="cls-2" d="M2819.85,1163l52.52,91h-14.62c-11.49,0-23,0-34.46,0-2.61,0-4.37-.09-4.35-3.59.11-29.1.06-58.2.06-87.29Z" transform="translate(-1284 -660)"/></svg>