<?xml version="1.0" encoding="UTF-8"?>
<svg width="646px" height="185px" viewBox="0 0 646 185" version="1.1" xmlns="http://www.w3.org/2000/svg" xmlns:xlink="http://www.w3.org/1999/xlink">
    <!-- Generator: Sketch 60.1 (88133) - https://sketch.com -->
    <title>RedAnt logo</title>
    <desc>Copyright (c) 2000-2019 RedAnt BV. All rights reserved.</desc>
    <g id="RedAnt-logo" stroke="none" stroke-width="1" fill="none" fill-rule="evenodd">
        <path d="M75.5727647,56 L76.2697674,56.006703 C78.765904,56.006703 80.9945638,56.1496955 82.955814,56.4356848 C84.9170641,56.7216741 86.9317726,57.2221478 89,57.9371211 L83.7581395,82.389084 C81.9751849,81.6741108 80.1744277,81.1557629 78.355814,80.834025 C76.5372002,80.512287 74.3798574,80.3514205 71.8837209,80.3514205 C68.3891298,80.3514205 65.0372253,80.9412645 61.827907,82.1209704 C58.6185886,83.3006763 55.8372211,84.9987123 53.4837209,87.2151294 C51.1302208,89.4315464 49.2581465,92.0769078 47.8674419,95.1512928 C46.4767372,98.2256777 45.7813953,101.657498 45.7813953,105.446856 L45.781,159.574 L25.439,161 L20,161 L20,57.9371211 L44.7116279,57.9371211 L45.3534884,70.9138207 C46.4945793,69.4838742 47.9922388,67.8930826 49.8465116,66.1413981 C51.7007845,64.3897137 53.8759565,62.781048 56.372093,61.3153528 C58.8682295,59.8496576 61.7565727,58.5805992 65.0372093,57.5081393 C68.1355883,56.4952605 71.6474085,55.9925792 75.5727647,56 L75.5727647,56 Z" id="r" fill="#FF2F0C" fill-rule="nonzero"></path>
        <path d="M147.251042,54 C156.621227,54 164.560731,55.7153825 171.069792,59.1461988 C177.578852,62.5770152 182.818209,67.0798942 186.788021,72.6549708 C190.757832,78.2300474 193.618915,84.519783 195.371354,91.5243665 C197.123793,98.5289499 198,105.712114 198,113.074074 L198,116.699 L95.521993,116.699724 C95.173997,113.804712 95,110.809291 95,107.71345 C95,100.137064 96.2696054,93.0968486 98.8088542,86.5925926 C101.348103,80.0883365 104.924456,74.4240007 109.538021,69.5994152 C114.151586,64.7748297 119.659169,60.9688249 126.060937,58.1812865 C132.462706,55.3937482 139.526003,54 147.251042,54 Z M147.251042,75.6569201 C143.030882,75.6569201 139.275711,76.3537942 135.985417,77.7475634 C132.695122,79.1413325 129.941331,80.9103207 127.723958,83.0545809 C125.506586,85.1988411 123.807818,87.5932291 122.627604,90.2378168 C121.44739,92.8824044 120.857292,95.4912152 120.857292,98.0643275 L171.391667,98.0643275 C171.391667,95.4197399 170.890977,92.7930605 169.889583,90.1842105 C168.888189,87.5753606 167.386121,85.1988411 165.383333,83.0545809 C163.380546,80.9103207 160.841335,79.1413325 157.765625,77.7475634 C154.689915,76.3537942 151.185089,75.6569201 147.251042,75.6569201 Z" id="e-top" fill="#FF2F0C"></path>
        <path d="M105.072464,147.048493 C116.168609,159.260011 130.459813,165.304808 147.946075,165.182885 C165.432337,165.060962 179.107726,159.030481 188.972243,147.091442 L171.319203,129 C167.006679,138.552722 159.143484,143.329084 147.72962,143.329084 C136.315755,143.329084 127.65985,138.552722 121.761905,129 L105.072464,147.048493 Z" id="e-smile" fill="#FF2F0C"></path>
        <path d="M284.43,19 L310,20.795 L310,160.461758 L285.06962,160.461758 L284.43038,150.383131 C283.151892,151.812731 281.571564,153.331657 279.689346,154.939957 C277.807128,156.548257 275.587566,158.013575 273.030591,159.335954 C270.473616,160.658334 267.632575,161.766257 264.507384,162.659757 C261.382193,163.553257 257.866405,164 253.959916,164 C248.419804,164 242.950801,162.820598 237.552743,160.461758 C232.154685,158.102919 227.342672,154.654061 223.116561,150.115082 C218.89045,145.576103 215.481201,140.018618 212.888713,133.442459 C210.296225,126.8663 209,119.325275 209,110.819157 C209,102.741918 210.154173,95.6833754 212.462553,89.6433167 C214.770933,83.6032579 217.665243,78.4389064 221.14557,74.1501072 C224.05768,70.6475879 227.271607,67.7169525 230.787447,65.3581129 C234.303288,62.9992734 237.836832,61.051473 241.388186,59.5146533 C244.93954,57.9778336 248.384301,56.8877802 251.722574,56.2444603 C255.060847,55.6011405 257.972913,55.2794853 260.458861,55.2794853 C263.797133,55.2794853 266.567148,55.3867037 268.768987,55.6011437 C270.970827,55.8155836 272.941799,56.1014993 274.681962,56.4588992 C276.422125,56.8162991 278.020211,57.2987818 279.476266,57.9063617 L280.475903,58.3193559 C281.675903,58.8104472 282.994054,59.3339659 284.43038,59.8899214 L284.43,19 Z M263.335443,77.6883488 C258.221493,77.6883488 253.995446,78.6711839 250.657173,80.6368835 C247.3189,82.6025831 244.406834,85.1936937 241.920886,88.4102931 C239.719047,91.3409725 237.996666,94.7540906 236.753692,98.6497498 C235.510718,102.545409 234.889241,106.601837 234.889241,110.819157 C234.889241,119.611195 237.07329,126.937783 241.441456,132.799142 C245.809621,138.660501 252.148693,141.591137 260.458861,141.591137 C264.791513,141.591137 268.502622,140.751259 271.5923,139.07148 C274.681977,137.3917 277.167888,135.229463 279.050105,132.584703 C280.932323,129.939944 282.299574,127.045048 283.151899,123.899929 C284.004224,120.754809 284.43038,117.716955 284.43038,114.786276 L284.43038,83.1565404 C281.944432,81.0836208 279.067879,79.6540425 275.800633,78.8677627 C272.533387,78.0814828 268.378366,77.6883488 263.335443,77.6883488 Z" id="d" fill="#FF2F0C" fill-rule="nonzero"></path>
        <path d="M373.617886,54 C380.171539,54 386.119602,54.9130768 391.462253,56.7392578 C396.804905,58.5654388 401.363899,61.1256346 405.139373,64.4199219 C408.914847,67.7142092 411.835452,71.6708753 413.901278,76.2900391 C415.967103,80.9092028 417,85.940077 417,91.3828125 L417,160.669922 L392.851336,160.669922 L392.210221,151.001953 C389.432042,154.367855 385.193602,157.375638 379.494774,160.025391 C373.795945,162.675143 367.456094,164 360.475029,164 C356.272143,164 352.087129,163.337572 347.919861,162.012695 C343.752592,160.687819 339.959367,158.664727 336.54007,155.943359 C333.120773,153.221992 330.342636,149.730816 328.205575,145.469727 C326.068514,141.208638 325,136.21357 325,130.484375 C325,124.61195 326.104131,119.366234 328.312427,114.74707 C330.520723,110.127907 333.583798,106.242854 337.501742,103.091797 C341.419687,99.9407395 346.156767,97.5595784 351.713124,95.9482422 C357.269482,94.336906 363.39563,93.53125 370.091754,93.53125 C372.157579,93.53125 374.437076,93.5670569 376.930314,93.6386719 C379.423551,93.7102868 381.8099,93.8177076 384.089431,93.9609375 C386.725139,94.1041674 389.432042,94.2832021 392.210221,94.4980469 L392.210221,92.0273438 C392.210221,86.871068 390.162235,82.8248845 386.066202,79.8886719 C381.970169,76.9524593 376.645406,75.484375 370.091754,75.484375 C362.825748,75.484375 357.002345,76.4511622 352.62137,78.3847656 C348.240396,80.318369 344.375936,82.3593643 341.027875,84.5078125 L329.167247,66.9980469 C331.233073,65.565748 333.583804,64.0618568 336.219512,62.4863281 C338.85522,60.9107994 341.918295,59.4964255 345.408827,58.2431641 C348.899359,56.9899026 352.941905,55.969405 357.536585,55.1816406 C362.131266,54.3938763 367.491646,54 373.617886,54 Z M372.322418,113 C364.070488,113 358.28717,114.631189 354.972292,117.893617 C351.657414,121.156045 350,124.879412 350,129.06383 C350,133.390093 351.551622,136.794314 354.654912,139.276596 C357.758202,141.758878 362.342539,143 368.40806,143 C371.440821,143 374.367744,142.503551 377.188917,141.510638 C380.01009,140.517726 382.496211,139.134761 384.647355,137.361702 C386.798499,135.588644 388.561706,133.549657 389.937028,131.244681 C391.312349,128.939705 392,126.47519 392,123.851064 L392,113.851064 C389.390415,113.709219 386.851398,113.567377 384.382872,113.425532 C382.337521,113.283687 380.204041,113.177305 377.982368,113.106383 C375.760694,113.035461 373.874063,113 372.322418,113 Z" id="a" fill="#000000" fill-rule="nonzero"></path>
        <path d="M438,161 L438,58.1406728 L462.519553,58.1406728 L463.156425,69.8073394 C464.430174,68.3802171 465.986955,66.8460836 467.826816,65.204893 C469.666676,63.5637023 471.860322,62.0652463 474.407821,60.7094801 C476.95532,59.3537139 479.821213,58.2298719 483.005587,57.3379205 C486.18996,56.445969 489.798863,56 493.832402,56 C506.569896,56 516.282089,59.8353337 522.969274,67.5061162 C529.656458,75.1768987 533,85.5055416 533,98.4923547 L533,161 L507.312849,161 L507.312849,98.706422 C507.312849,92.1416593 505.543779,87.0754511 502.005587,83.5076453 C498.467394,79.9398394 493.867812,78.1559633 488.206704,78.1559633 C484.739275,78.1559633 481.484187,78.851675 478.441341,80.2431193 C475.398495,81.6345635 472.780272,83.5611498 470.586592,86.0229358 C468.392913,88.4847218 466.676915,91.3746011 465.438547,94.6926606 C464.20018,98.01072 463.581006,101.560633 463.581006,105.342508 L463.581006,161 L438,161 Z" id="n" fill="#000000" fill-rule="nonzero"></path>
        <path d="M562.661,39 L588.615,40.797 L588.615385,58.1765157 L616.4,58.1765157 L616.4,79.1918649 L588.615385,79.1918649 L588.615385,123.996163 C588.615385,129.827862 589.620503,134.308247 591.630769,137.437452 C593.641036,140.566657 596.835876,142.131236 601.215385,142.131236 C605.307713,142.131236 608.574347,141.544519 611.015385,140.371067 C613.456422,139.197615 615.789732,137.828608 618.015385,136.264006 L629,152.158864 C623.830743,156.354843 618.751307,159.377325 613.761538,161.226401 C608.77177,163.075476 603.189774,164 597.015385,164 C590.697404,164 585.330791,163.093255 580.915385,161.279739 C576.499978,159.466223 572.928219,156.870444 570.2,153.492325 C567.471781,150.114207 565.533339,146.060525 564.384615,141.331159 C563.235892,136.601793 562.661538,131.392456 562.661538,125.702993 L562.661538,79.1918649 L545,79.1918649 L545,58.1765157 L562.661538,58.1765157 L562.661,39 Z" id="t" fill="#000000" fill-rule="nonzero"></path>
    </g>
</svg>