<svg id="Layer_1" data-name="Layer 1" xmlns="http://www.w3.org/2000/svg" viewBox="0 0 400 400"><defs><style>.cls-1{fill:#fc6c4f;}.cls-2{fill:#abb2b1;}</style></defs><title>M_Musement_400x400px</title><path class="cls-1" d="M341.08,128.54a66.14,66.14,0,0,0-19.4-50,67,67,0,0,0-94.71,0l0,0-27.56,27.56L171.81,78.49a67,67,0,0,0-94.71,0l0,0a67.39,67.39,0,0,0,0,94.73L199.8,295.9,321.69,173.22a66.68,66.68,0,0,0,19.38-44.67"/><path class="cls-2" d="M215.9,309.52l12.26,12.25a67.07,67.07,0,0,0,114.22-47.69V182.23Z"/><path class="cls-2" d="M58.86,182.23v91.86a67.08,67.08,0,0,0,114.23,47.68l12.24-12.24Z"/></svg>